<svg width="54" height="47" viewBox="0 0 54 47" fill="none" xmlns="http://www.w3.org/2000/svg">
<path d="M21.8438 32.25L29.3438 34.75C29.3438 34.75 48.0938 31 50.5938 31C53.0938 31 53.0938 33.5 50.5938 36C48.0938 38.5 39.3438 46 31.8438 46C24.3438 46 19.3438 42.25 14.3438 42.25H1.84375" stroke="white" stroke-width="2" stroke-linecap="round" stroke-linejoin="round"/>
<path d="M1.84375 27.25C4.34375 24.75 9.34375 21 14.3438 21C19.3438 21 31.2188 26 33.0938 28.5C34.9688 31 29.3438 34.75 29.3438 34.75M16.8438 13.5V3.5C16.8438 2.83696 17.1071 2.20107 17.576 1.73223C18.0448 1.26339 18.6807 1 19.3438 1H49.3438C50.0068 1 50.6427 1.26339 51.1115 1.73223C51.5804 2.20107 51.8438 2.83696 51.8438 3.5V23.5" stroke="white" stroke-width="2" stroke-linecap="round" stroke-linejoin="round"/>
<path d="M28.0938 1H40.5938V12.25H28.0938V1Z" stroke="white" stroke-width="2" stroke-linecap="round" stroke-linejoin="round"/>
</svg>
