<svg width="36" height="45" viewBox="0 0 36 45" fill="none" xmlns="http://www.w3.org/2000/svg">
<path d="M3 36.2344L12.0938 29.8828C11.8594 30.5703 11.6797 31.2656 11.5547 31.9688C11.4297 32.6719 11.3438 33.3828 11.2969 34.1016L0 42V0L29.9531 21.0234C29.2344 20.7891 28.5078 20.6016 27.7734 20.4609C27.0391 20.3203 26.2812 20.25 25.5 20.25C25.2344 20.25 24.9766 20.2656 24.7266 20.2969C24.4766 20.3281 24.2109 20.3672 23.9297 20.4141L3 5.76562V36.2344ZM25.5 24C26.9531 24 28.3125 24.2734 29.5781 24.8203C30.8438 25.3672 31.9609 26.1172 32.9297 27.0703C33.8984 28.0234 34.6484 29.1328 35.1797 30.3984C35.7109 31.6641 35.9844 33.0312 36 34.5C36 35.9531 35.7266 37.3125 35.1797 38.5781C34.6328 39.8438 33.8828 40.9609 32.9297 41.9297C31.9766 42.8984 30.8672 43.6484 29.6016 44.1797C28.3359 44.7109 26.9688 44.9844 25.5 45C24.0469 45 22.6875 44.7266 21.4219 44.1797C20.1562 43.6328 19.0391 42.8828 18.0703 41.9297C17.1016 40.9766 16.3516 39.8672 15.8203 38.6016C15.2891 37.3359 15.0156 35.9688 15 34.5C15 33.0469 15.2734 31.6875 15.8203 30.4219C16.3672 29.1562 17.1172 28.0391 18.0703 27.0703C19.0234 26.1016 20.1328 25.3516 21.3984 24.8203C22.6641 24.2891 24.0312 24.0156 25.5 24ZM18 34.5C18 35.5312 18.1953 36.5 18.5859 37.4062C18.9766 38.3125 19.5078 39.1094 20.1797 39.7969C20.8516 40.4844 21.6484 41.0234 22.5703 41.4141C23.4922 41.8047 24.4688 42 25.5 42C26.2344 42 26.9531 41.8984 27.6562 41.6953C28.3594 41.4922 29.0156 41.1797 29.625 40.7578L19.2422 30.375C18.8359 30.9844 18.5312 31.6406 18.3281 32.3438C18.125 33.0469 18.0156 33.7656 18 34.5ZM31.7578 38.625C32.1641 38.0156 32.4688 37.3594 32.6719 36.6562C32.875 35.9531 32.9844 35.2344 33 34.5C33 33.4688 32.8047 32.5 32.4141 31.5938C32.0234 30.6875 31.4844 29.8984 30.7969 29.2266C30.1094 28.5547 29.3125 28.0156 28.4062 27.6094C27.5 27.2031 26.5312 27 25.5 27C24.7656 27 24.0469 27.1016 23.3438 27.3047C22.6406 27.5078 21.9844 27.8203 21.375 28.2422L31.7578 38.625Z" fill="white"/>
</svg>
