<svg width="31" height="31" viewBox="0 0 31 31" fill="none" xmlns="http://www.w3.org/2000/svg">
<path fill-rule="evenodd" clip-rule="evenodd" d="M15.5 2.39677C12.3097 2.39276 9.22727 3.55768 6.82995 5.67342C4.43263 7.78916 2.88478 10.7106 2.47621 13.8908C2.06764 17.071 2.82637 20.2918 4.61035 22.9503C6.39432 25.6087 9.0812 27.5224 12.1679 28.333V20.9717H10.3524C9.84701 20.9713 9.36243 20.7693 9.00506 20.4101C8.64769 20.0509 8.44673 19.5639 8.44631 19.0559V16.338C8.44673 15.83 8.64769 15.343 9.00506 14.9838C9.36243 14.6246 9.84701 14.4226 10.3524 14.4222H12.1234C12.1027 13.8677 12.0614 13.3101 12.0614 12.7556C12.0614 11.3351 12.2998 8.50853 14.5303 6.9043C15.2218 6.40896 15.872 6.07981 16.5874 5.88647C17.2885 5.69952 17.9911 5.65798 18.7415 5.65798C20.0673 5.65798 20.9846 5.7906 21.5681 5.87528L21.8304 5.91203C22.1847 5.95994 22.5097 6.13526 22.7453 6.40554C22.9809 6.67581 23.111 7.02273 23.1117 7.38205V10.3908C23.1119 10.5914 23.0716 10.79 22.9934 10.9746C22.9151 11.1592 22.8005 11.326 22.6564 11.4648C22.5123 11.6037 22.3418 11.7118 22.155 11.7826C21.9682 11.8534 21.7691 11.8854 21.5696 11.8768C21.3264 11.8864 20.4966 11.9183 19.7796 11.9183C19.2868 11.9183 19.1405 12.0318 19.0896 12.0877C19.0181 12.1644 18.8321 12.4456 18.8321 13.3085V14.4222H20.8558C21.1318 14.4224 21.4044 14.4827 21.6549 14.5991C21.9054 14.7155 22.1278 14.8851 22.3067 15.0962C22.4857 15.3074 22.6169 15.555 22.6914 15.8221C22.7659 16.0892 22.7818 16.3693 22.7381 16.6432L22.3264 19.3707C22.252 19.8177 22.0224 20.2238 21.6784 20.5169C21.3344 20.81 20.8982 20.9712 20.4473 20.9717H18.8321V28.333C21.9188 27.5224 24.6057 25.6087 26.3897 22.9503C28.1736 20.2918 28.9324 17.071 28.5238 13.8908C28.1152 10.7106 26.5674 7.78916 24.17 5.67342C21.7727 3.55768 18.6903 2.39276 15.5 2.39677ZM0 15.579C0 6.9746 6.93923 0 15.5 0C24.0608 0 31 6.9746 31 15.579C31 23.3925 25.2785 29.8606 17.8163 30.9854C17.6467 31.0107 17.4738 30.9989 17.3092 30.951C17.1446 30.903 16.9923 30.8199 16.8625 30.7074C16.7328 30.5948 16.6287 30.4555 16.5573 30.2989C16.486 30.1423 16.4491 29.9721 16.4491 29.7998V19.7734C16.4491 19.4555 16.5747 19.1507 16.7983 18.926C17.0219 18.7012 17.3252 18.575 17.6414 18.575H20.0355L20.2994 16.8189H17.6398C17.3236 16.8189 17.0203 16.6927 16.7967 16.4679C16.5731 16.2432 16.4475 15.9384 16.4475 15.6205V13.3101C16.4475 12.1836 16.678 11.1705 17.3489 10.4499C18.0404 9.70852 18.9656 9.52317 19.7812 9.52317C20.0928 9.52317 20.4314 9.51677 20.7271 9.50719V8.18097C20.0685 8.09781 19.4053 8.05618 18.7415 8.05634C18.0627 8.05634 17.6048 8.09629 17.2042 8.20494C16.8179 8.30721 16.4252 8.49096 15.9181 8.85527C14.7306 9.71011 14.4492 11.3799 14.446 12.7348L14.5509 15.579C14.5567 15.74 14.5301 15.9005 14.4728 16.0509C14.4155 16.2013 14.3285 16.3385 14.2173 16.4544C14.106 16.5703 13.9726 16.6625 13.825 16.7254C13.6775 16.7883 13.5189 16.8206 13.3586 16.8205H10.8309V18.5766H13.3586C13.6748 18.5766 13.9781 18.7028 14.2017 18.9276C14.4253 19.1523 14.5509 19.4571 14.5509 19.7749V29.8014C14.5509 29.9737 14.514 30.1439 14.4427 30.3005C14.3713 30.4571 14.2672 30.5964 14.1375 30.709C14.0077 30.8215 13.8554 30.9046 13.6908 30.9526C13.5262 31.0005 13.3533 31.0123 13.1837 30.987C5.72149 29.8606 0 23.3925 0 15.579Z" fill="white"/>
</svg>
