<?xml version="1.0" encoding="UTF-8" standalone="no"?>
<!-- Created with Inkscape (http://www.inkscape.org/) -->

<svg
   width="5.4002142in"
   height="5.4495292in"
   viewBox="0 0 137.16544 138.41804"
   version="1.1"
   id="svg1"
   xml:space="preserve"
   inkscape:version="1.3.2 (091e20e, 2023-11-25, custom)"
   sodipodi:docname="EMMANUEL CREATIVE CO LOGO.svg"
   inkscape:export-filename="NO BG M4.png"
   inkscape:export-xdpi="300"
   inkscape:export-ydpi="300"
   xmlns:inkscape="http://www.inkscape.org/namespaces/inkscape"
   xmlns:sodipodi="http://sodipodi.sourceforge.net/DTD/sodipodi-0.dtd"
   xmlns="http://www.w3.org/2000/svg"
   xmlns:svg="http://www.w3.org/2000/svg"><sodipodi:namedview
     id="namedview1"
     pagecolor="#ffffff"
     bordercolor="#000000"
     borderopacity="0.25"
     inkscape:showpageshadow="2"
     inkscape:pageopacity="0.0"
     inkscape:pagecheckerboard="0"
     inkscape:deskcolor="#d1d1d1"
     inkscape:document-units="mm"
     inkscape:zoom="0.70710678"
     inkscape:cx="183.84776"
     inkscape:cy="304.76302"
     inkscape:window-width="1366"
     inkscape:window-height="705"
     inkscape:window-x="-8"
     inkscape:window-y="-8"
     inkscape:window-maximized="1"
     inkscape:current-layer="g1"
     showguides="true" /><defs
     id="defs1"><inkscape:path-effect
       effect="fillet_chamfer"
       id="path-effect4"
       is_visible="true"
       lpeversion="1"
       nodesatellites_param="F,0,0,1,0,4.7677403,0,1 @ F,0,0,1,0,10.520727,0,1 @ F,0,0,1,0,10.520727,0,1 @ F,0,0,1,0,10.520727,0,1 @ F,0,0,1,0,10.520727,0,1 @ F,0,0,1,0,10.520727,0,1 @ F,0,0,1,0,5.1943526,0,1 | F,0,0,1,0,10.520727,0,1 @ F,0,0,1,0,10.520727,0,1 @ F,0,0,1,0,10.520727,0,1 @ F,0,0,1,0,10.520727,0,1 @ F,0,0,1,0,5.5444561,0,1 | F,0,0,1,0,10.520727,0,1 @ F,0,0,1,0,10.520727,0,1 @ F,0,0,1,0,10.520727,0,1 @ F,0,0,1,0,10.520727,0,1 @ F,0,0,1,0,10.520727,0,1 @ F,0,0,1,0,10.520727,0,1 @ F,0,0,1,0,3.217933,0,1 @ F,0,0,1,0,1.0469001,0,1 @ F,0,0,1,0,10.520727,0,1"
       radius="0"
       unit="px"
       method="auto"
       mode="F"
       chamfer_steps="1"
       flexible="false"
       use_knot_distance="true"
       apply_no_radius="true"
       apply_with_radius="true"
       only_selected="false"
       hide_knots="false" /><inkscape:path-effect
       effect="fillet_chamfer"
       id="path-effect6"
       is_visible="true"
       lpeversion="1"
       nodesatellites_param="F,0,0,1,0,4.7677403,0,1 @ F,0,0,1,0,10.520727,0,1 @ F,0,0,1,0,10.520727,0,1 @ F,0,0,1,0,10.520727,0,1 @ F,0,0,1,0,10.520727,0,1 @ F,0,0,1,0,10.520727,0,1 @ F,0,0,1,0,5.1943526,0,1 | F,0,0,1,0,10.520727,0,1 @ F,0,0,1,0,10.520727,0,1 @ F,0,0,1,0,10.520727,0,1 @ F,0,0,1,0,10.520727,0,1 @ F,0,0,1,0,5.5444561,0,1 | F,0,0,1,0,10.520727,0,1 @ F,0,0,1,0,10.520727,0,1 @ F,0,0,1,0,10.520727,0,1 @ F,0,0,1,0,10.520727,0,1 @ F,0,0,1,0,10.520727,0,1 @ F,0,0,1,0,10.520727,0,1 @ F,0,0,1,0,3.217933,0,1 @ F,0,0,1,0,1.0469001,0,1 @ F,0,0,1,0,10.520727,0,1"
       radius="0"
       unit="px"
       method="auto"
       mode="F"
       chamfer_steps="1"
       flexible="false"
       use_knot_distance="true"
       apply_no_radius="true"
       apply_with_radius="true"
       only_selected="false"
       hide_knots="false" /><inkscape:path-effect
       effect="fillet_chamfer"
       id="path-effect3"
       is_visible="true"
       lpeversion="1"
       nodesatellites_param="F,0,0,1,0,4.7677403,0,1 @ F,0,0,1,0,10.520727,0,1 @ F,0,0,1,0,10.520727,0,1 @ F,0,0,1,0,10.520727,0,1 @ F,0,0,1,0,10.520727,0,1 @ F,0,0,1,0,10.520727,0,1 @ F,0,0,1,0,5.1943526,0,1 | F,0,0,1,0,10.520727,0,1 @ F,0,0,1,0,10.520727,0,1 @ F,0,0,1,0,10.520727,0,1 @ F,0,0,1,0,10.520727,0,1 @ F,0,0,1,0,5.5444561,0,1 | F,0,0,1,0,10.520727,0,1 @ F,0,0,1,0,10.520727,0,1 @ F,0,0,1,0,10.520727,0,1 @ F,0,0,1,0,10.520727,0,1 @ F,0,0,1,0,10.520727,0,1 @ F,0,0,1,0,10.520727,0,1 @ F,0,0,1,0,3.217933,0,1 @ F,0,0,1,0,1.0469001,0,1 @ F,0,0,1,0,10.520727,0,1"
       radius="0"
       unit="px"
       method="auto"
       mode="F"
       chamfer_steps="1"
       flexible="false"
       use_knot_distance="true"
       apply_no_radius="true"
       apply_with_radius="true"
       only_selected="false"
       hide_knots="false" /></defs><g
     inkscape:label="Layer 1"
     inkscape:groupmode="layer"
     id="layer1"
     transform="translate(109.32688,234.35509)"><g
       id="g1"
       style="fill:#0f172a;fill-opacity:1"><path
         id="path1"
         style="fill:#0f172a;fill-opacity:1;stroke:none;stroke-width:4.59744"
         d="M 170.02521,36.446361 33.62681,36.4761 A 10.522717,10.522717 134.99292 0 0 23.106388,46.999121 l 0.0025,86.086369 a 6.914444,6.914444 33.312104 0 0 9.657636,6.3468 l 17.725454,-7.66098 A 16.0084,16.0084 123.31293 0 0 60.1493,117.07665 V 93.880497 A 16.008566,16.008566 123.31266 0 1 69.806591,79.185753 L 136.38186,50.410988 a 33.372674,33.372674 174.12277 0 1 19.96239,-2.054896 l 13.29518,2.733997 a 4.2529998,4.2529998 140.92993 0 0 5.10962,-4.148043 l 0.024,-5.729026 a 4.7468052,4.7468052 45.113577 0 0 -4.7478,-4.766659 z M 139.08425,55.345537 75.361581,82.656892 A 15.924249,15.924249 123.34849 0 0 65.710545,97.32213 l 0.02876,15.97131 a 6.9277406,6.9277406 33.261113 0 0 9.676246,6.34671 L 153.77769,85.771088 a 28.793867,28.793867 136.55408 0 0 14.34879,-13.590774 l 4.74543,-9.525042 a 4.4289991,4.4289991 65.10116 0 0 -2.91383,-6.277648 l -10.9833,-2.681414 a 31.516782,31.516782 175.25987 0 0 -19.89053,1.649327 z m 30.70567,24.543589 A 26.647513,26.647513 140.59526 0 1 156.44357,90.853795 L 32.754187,144.67291 a 16.051451,16.051451 123.24307 0 0 -9.647202,14.71832 l -2.53e-4,20.03717 a 10.518161,10.518161 44.993733 0 0 10.520595,10.5183 l 130.674863,-0.0302 a 10.521683,10.521683 134.98935 0 0 10.51925,-10.52316 l -0.006,-43.00528 a 6.8662259,6.8662259 33.121941 0 0 -9.63137,-6.28387 L 63.094535,175.0205 a 2.1000015,2.1000015 33.123736 0 1 -2.945706,-1.92202 l -1.84e-4,-2.37611 a 1.5955726,1.5955726 123.26555 0 1 0.960247,-1.46375 L 165.0438,124.1431 a 16.086325,16.086325 123.35019 0 0 9.68101,-14.70982 l 0.0813,-28.254894 a 2.6718036,2.6718036 14.414216 0 0 -5.01617,-1.28926 z"
         inkscape:path-effect="#path-effect3"
         inkscape:original-d="M 174.79295,36.445321 23.106083,36.478394 23.109184,143.60622 60.1493,127.59738 V 83.35977 l 85.88985,-37.122799 28.68817,5.899382 z m -26.03872,14.755688 -83.062633,35.600411 0.06666,37.01273 97.676733,-42.217063 11.90935,-23.904484 z m 26.08213,19.456694 -8.74572,15.998506 -142.983523,62.214291 -5.17e-4,41.07863 151.71632,-0.0351 -0.009,-64.04674 -114.66484,50.44912 -5.17e-4,-6.64094 114.545977,-49.72151 z"
         transform="matrix(0.43757721,0,0,0.43248799,17.727718,63.756361)" /><text
         xml:space="preserve"
         style="font-style:normal;font-variant:normal;font-weight:normal;font-stretch:normal;font-size:29.5707px;line-height:100%;font-family:'Albertus Extra Bold';-inkscape-font-specification:'Albertus Extra Bold, ';letter-spacing:0px;opacity:1;fill:#0f172a;fill-opacity:1;stroke:none;stroke-width:2"
         x="104.4452"
         y="108.81023"
         id="text7"><tspan
           sodipodi:role="line"
           id="tspan7"
           style="font-style:normal;font-variant:normal;font-weight:normal;font-stretch:normal;font-size:29.5707px;line-height:100%;font-family:'DM Sans';-inkscape-font-specification:'DM Sans';letter-spacing:0px;fill:#0f172a;fill-opacity:1;stroke:none;stroke-width:2"
           x="104.4452"
           y="108.81023">Emmanuel </tspan><tspan
           sodipodi:role="line"
           style="font-style:normal;font-variant:normal;font-weight:normal;font-stretch:normal;font-size:29.5707px;line-height:100%;font-family:'DM Sans';-inkscape-font-specification:'DM Sans';letter-spacing:0px;fill:#0f172a;fill-opacity:1;stroke:none;stroke-width:2"
           x="104.4452"
           y="140.1344"
           id="tspan1">Creative &amp; Co.</tspan></text><path
         id="path4"
         style="fill:#0f172a;fill-opacity:1;stroke:none;stroke-width:4.59744"
         d="M 170.02521,36.446361 33.62681,36.4761 A 10.522717,10.522717 134.99292 0 0 23.106388,46.999121 l 0.0025,86.086369 a 6.914444,6.914444 33.312104 0 0 9.657636,6.3468 l 17.725454,-7.66098 A 16.0084,16.0084 123.31293 0 0 60.1493,117.07665 V 93.880497 A 16.008566,16.008566 123.31266 0 1 69.806591,79.185753 L 136.38186,50.410988 a 33.372674,33.372674 174.12277 0 1 19.96239,-2.054896 l 13.29518,2.733997 a 4.2529998,4.2529998 140.92993 0 0 5.10962,-4.148043 l 0.024,-5.729026 a 4.7468052,4.7468052 45.113577 0 0 -4.7478,-4.766659 z M 139.08425,55.345537 75.361581,82.656892 A 15.924249,15.924249 123.34849 0 0 65.710545,97.32213 l 0.02876,15.97131 a 6.9277406,6.9277406 33.261113 0 0 9.676246,6.34671 L 153.77769,85.771088 a 28.793867,28.793867 136.55408 0 0 14.34879,-13.590774 l 4.74543,-9.525042 a 4.4289991,4.4289991 65.10116 0 0 -2.91383,-6.277648 l -10.9833,-2.681414 a 31.516782,31.516782 175.25987 0 0 -19.89053,1.649327 z m 30.70567,24.543589 A 26.647513,26.647513 140.59526 0 1 156.44357,90.853795 L 32.754187,144.67291 a 16.051451,16.051451 123.24307 0 0 -9.647202,14.71832 l -2.53e-4,20.03717 a 10.518161,10.518161 44.993733 0 0 10.520595,10.5183 l 130.674863,-0.0302 a 10.521683,10.521683 134.98935 0 0 10.51925,-10.52316 l -0.006,-43.00528 a 6.8662259,6.8662259 33.121941 0 0 -9.63137,-6.28387 L 63.094535,175.0205 a 2.1000015,2.1000015 33.123736 0 1 -2.945706,-1.92202 l -1.84e-4,-2.37611 a 1.5955726,1.5955726 123.26555 0 1 0.960247,-1.46375 L 165.0438,124.1431 a 16.086325,16.086325 123.35019 0 0 9.68101,-14.70982 l 0.0813,-28.254894 a 2.6718036,2.6718036 14.414216 0 0 -5.01617,-1.28926 z"
         inkscape:path-effect="#path-effect6"
         inkscape:original-d="M 174.79295,36.445321 23.106083,36.478394 23.109184,143.60622 60.1493,127.59738 V 83.35977 l 85.88985,-37.122799 28.68817,5.899382 z m -26.03872,14.755688 -83.062633,35.600411 0.06666,37.01273 97.676733,-42.217063 11.90935,-23.904484 z m 26.08213,19.456694 -8.74572,15.998506 -142.983523,62.214291 -5.17e-4,41.07863 151.71632,-0.0351 -0.009,-64.04674 -114.66484,50.44912 -5.17e-4,-6.64094 114.545977,-49.72151 z"
         transform="matrix(0.43757721,0,0,0.43248799,17.727718,63.756361)" /><text
         xml:space="preserve"
         style="font-style:normal;font-variant:normal;font-weight:normal;font-stretch:normal;font-size:29.5707px;line-height:100%;font-family:'Albertus Extra Bold';-inkscape-font-specification:'Albertus Extra Bold, ';letter-spacing:0px;opacity:1;fill:#0f172a;fill-opacity:1;stroke:none;stroke-width:2"
         x="104.4452"
         y="108.81023"
         id="text5"><tspan
           sodipodi:role="line"
           id="tspan4"
           style="font-style:normal;font-variant:normal;font-weight:normal;font-stretch:normal;font-size:29.5707px;line-height:100%;font-family:'DM Sans';-inkscape-font-specification:'DM Sans';letter-spacing:0px;fill:#0f172a;fill-opacity:1;stroke:none;stroke-width:2"
           x="104.4452"
           y="108.81023">Emmanuel </tspan><tspan
           sodipodi:role="line"
           style="font-style:normal;font-variant:normal;font-weight:normal;font-stretch:normal;font-size:29.5707px;line-height:100%;font-family:'DM Sans';-inkscape-font-specification:'DM Sans';letter-spacing:0px;fill:#0f172a;fill-opacity:1;stroke:none;stroke-width:2"
           x="104.4452"
           y="140.1344"
           id="tspan5">Creative &amp; Co.</tspan></text><g
         id="g7"><rect
           style="fill:#e78b3a;fill-opacity:1;stroke-width:2.00001"
           id="rect7"
           width="137.16544"
           height="138.41805"
           x="-109.32688"
           y="-234.35507" /><path
           id="path2"
           style="fill:#0f172a;fill-opacity:1;stroke:none;stroke-width:4.59744"
           d="M 170.02521,36.446361 33.62681,36.4761 A 10.522717,10.522717 134.99292 0 0 23.106388,46.999121 l 0.0025,86.086369 a 6.914444,6.914444 33.312104 0 0 9.657636,6.3468 l 17.725454,-7.66098 A 16.0084,16.0084 123.31293 0 0 60.1493,117.07665 V 93.880497 A 16.008566,16.008566 123.31266 0 1 69.806591,79.185753 L 136.38186,50.410988 a 33.372674,33.372674 174.12277 0 1 19.96239,-2.054896 l 13.29518,2.733997 a 4.2529998,4.2529998 140.92993 0 0 5.10962,-4.148043 l 0.024,-5.729026 a 4.7468052,4.7468052 45.113577 0 0 -4.7478,-4.766659 z M 139.08425,55.345537 75.361581,82.656892 A 15.924249,15.924249 123.34849 0 0 65.710545,97.32213 l 0.02876,15.97131 a 6.9277406,6.9277406 33.261113 0 0 9.676246,6.34671 L 153.77769,85.771088 a 28.793867,28.793867 136.55408 0 0 14.34879,-13.590774 l 4.74543,-9.525042 a 4.4289991,4.4289991 65.10116 0 0 -2.91383,-6.277648 l -10.9833,-2.681414 a 31.516782,31.516782 175.25987 0 0 -19.89053,1.649327 z m 30.70567,24.543589 A 26.647513,26.647513 140.59526 0 1 156.44357,90.853795 L 32.754187,144.67291 a 16.051451,16.051451 123.24307 0 0 -9.647202,14.71832 l -2.53e-4,20.03717 a 10.518161,10.518161 44.993733 0 0 10.520595,10.5183 l 130.674863,-0.0302 a 10.521683,10.521683 134.98935 0 0 10.51925,-10.52316 l -0.006,-43.00528 a 6.8662259,6.8662259 33.121941 0 0 -9.63137,-6.28387 L 63.094535,175.0205 a 2.1000015,2.1000015 33.123736 0 1 -2.945706,-1.92202 l -1.84e-4,-2.37611 a 1.5955726,1.5955726 123.26555 0 1 0.960247,-1.46375 L 165.0438,124.1431 a 16.086325,16.086325 123.35019 0 0 9.68101,-14.70982 l 0.0813,-28.254894 a 2.6718036,2.6718036 14.414216 0 0 -5.01617,-1.28926 z"
           inkscape:path-effect="#path-effect4"
           inkscape:original-d="M 174.79295,36.445321 23.106083,36.478394 23.109184,143.60622 60.1493,127.59738 V 83.35977 l 85.88985,-37.122799 28.68817,5.899382 z m -26.03872,14.755688 -83.062633,35.600411 0.06666,37.01273 97.676733,-42.217063 11.90935,-23.904484 z m 26.08213,19.456694 -8.74572,15.998506 -142.983523,62.214291 -5.17e-4,41.07863 151.71632,-0.0351 -0.009,-64.04674 -114.66484,50.44912 -5.17e-4,-6.64094 114.545977,-49.72151 z"
           transform="matrix(0.43757721,0,0,0.43248799,-84.048518,-214.10219)" /></g></g></g></svg>
