<svg width="46" height="45" viewBox="0 0 46 45" fill="none" xmlns="http://www.w3.org/2000/svg">
<path d="M0 45V4.5C0 3.2625 0.4508 2.2035 1.3524 1.323C2.254 0.4425 3.33653 0.0015 4.6 0H41.4C42.665 0 43.7483 0.441 44.6499 1.323C45.5515 2.205 46.0015 3.264 46 4.5V31.5C46 32.7375 45.55 33.7972 44.6499 34.6792C43.7498 35.5612 42.6665 36.0015 41.4 36H9.2L0 45ZM23 29.25C23.6517 29.25 24.1983 29.034 24.6399 28.602C25.0815 28.17 25.3015 27.636 25.3 27C25.2985 26.364 25.0777 25.83 24.6376 25.398C24.1975 24.966 23.6517 24.75 23 24.75C22.3483 24.75 21.8025 24.966 21.3624 25.398C20.9223 25.83 20.7015 26.364 20.7 27C20.6985 27.636 20.9193 28.1708 21.3624 28.6042C21.8055 29.0378 22.3514 29.253 23 29.25ZM20.7 20.25H25.3V6.75H20.7V20.25Z" fill="white"/>
</svg>
