<svg width="35" height="35" viewBox="0 0 35 35" fill="none" xmlns="http://www.w3.org/2000/svg">
<path d="M17.75 24.75C19.6065 24.75 21.387 24.0125 22.6997 22.6997C24.0125 21.387 24.75 19.6065 24.75 17.75C24.75 15.8935 24.0125 14.113 22.6997 12.8003C21.387 11.4875 19.6065 10.75 17.75 10.75C15.8935 10.75 14.113 11.4875 12.8003 12.8003C11.4875 14.113 10.75 15.8935 10.75 17.75C10.75 19.6065 11.4875 21.387 12.8003 22.6997C14.113 24.0125 15.8935 24.75 17.75 24.75Z" stroke="white" stroke-width="3" stroke-linecap="round" stroke-linejoin="round"/>
<path d="M2 24.75V10.75C2 8.42936 2.92187 6.20376 4.56282 4.56282C6.20376 2.92187 8.42936 2 10.75 2H24.75C27.0706 2 29.2962 2.92187 30.9372 4.56282C32.5781 6.20376 33.5 8.42936 33.5 10.75V24.75C33.5 27.0706 32.5781 29.2962 30.9372 30.9372C29.2962 32.5781 27.0706 33.5 24.75 33.5H10.75C8.42936 33.5 6.20376 32.5781 4.56282 30.9372C2.92187 29.2962 2 27.0706 2 24.75Z" stroke="white" stroke-width="3"/>
<path d="M27.375 8.14471L27.3929 8.125" stroke="white" stroke-width="3" stroke-linecap="round" stroke-linejoin="round"/>
</svg>
