<svg width="1064" height="355" viewBox="0 0 1064 355" fill="none" xmlns="http://www.w3.org/2000/svg">
<path d="M501 124C501 172.049 462.049 211 414 211C365.951 211 327 172.049 327 124C327 75.9512 365.951 37 414 37C462.049 37 501 75.9512 501 124ZM335.418 124C335.418 167.4 370.6 202.582 414 202.582C457.4 202.582 492.582 167.4 492.582 124C492.582 80.6004 457.4 45.418 414 45.418C370.6 45.418 335.418 80.6004 335.418 124Z" fill="#3A3A3A"/>
<g filter="url(#filter0_d_203_2534)">
<path d="M501 124C501 102.585 493.102 81.9228 478.817 65.9682C464.533 50.0136 444.866 39.8878 423.582 37.5293C402.297 35.1707 380.891 40.7452 363.46 53.1855C346.029 65.6257 333.799 84.0578 329.111 104.953C324.422 125.848 327.605 147.739 338.05 166.433C348.495 185.128 365.468 199.314 385.72 206.275C405.971 213.236 428.079 212.484 447.811 204.161C467.542 195.839 483.511 180.532 492.66 161.17L485.049 157.573C476.785 175.062 462.361 188.888 444.539 196.405C426.717 203.922 406.748 204.602 388.456 198.314C370.164 192.027 354.833 179.214 345.399 162.328C335.965 145.442 333.09 125.669 337.324 106.796C341.559 87.9225 352.606 71.2739 368.35 60.0374C384.094 48.8008 403.43 43.7657 422.655 45.896C441.88 48.0264 459.644 57.1724 472.546 71.5833C485.448 85.9941 492.582 104.657 492.582 124H501Z" fill="white"/>
</g>
<g filter="url(#filter1_d_203_2534)">
<path d="M399.08 131.24C398.2 131.24 397.447 131.067 396.82 130.72C396.193 130.373 395.693 129.913 395.32 129.34C394.96 128.753 394.74 128.113 394.66 127.42H396.22C396.353 128.167 396.673 128.747 397.18 129.16C397.687 129.573 398.327 129.78 399.1 129.78C399.807 129.78 400.433 129.567 400.98 129.14C401.54 128.713 401.987 128.06 402.32 127.18C402.667 126.3 402.86 125.18 402.9 123.82C402.9 123.793 402.9 123.767 402.9 123.74C402.9 123.7 402.9 123.667 402.9 123.64C402.687 124.053 402.387 124.44 402 124.8C401.613 125.147 401.153 125.427 400.62 125.64C400.1 125.853 399.507 125.96 398.84 125.96C398.067 125.96 397.327 125.773 396.62 125.4C395.913 125.027 395.34 124.507 394.9 123.84C394.46 123.16 394.24 122.367 394.24 121.46C394.24 120.673 394.433 119.92 394.82 119.2C395.207 118.48 395.76 117.893 396.48 117.44C397.213 116.987 398.073 116.76 399.06 116.76C400.073 116.76 400.927 116.953 401.62 117.34C402.313 117.713 402.867 118.22 403.28 118.86C403.707 119.5 404.013 120.22 404.2 121.02C404.4 121.807 404.5 122.613 404.5 123.44C404.5 124.973 404.287 126.327 403.86 127.5C403.433 128.673 402.813 129.593 402 130.26C401.2 130.913 400.227 131.24 399.08 131.24ZM399.18 124.5C399.807 124.5 400.367 124.36 400.86 124.08C401.353 123.787 401.747 123.4 402.04 122.92C402.333 122.44 402.48 121.92 402.48 121.36C402.48 120.76 402.333 120.227 402.04 119.76C401.747 119.28 401.353 118.907 400.86 118.64C400.367 118.373 399.807 118.24 399.18 118.24C398.567 118.24 398.013 118.38 397.52 118.66C397.027 118.927 396.64 119.293 396.36 119.76C396.08 120.227 395.94 120.767 395.94 121.38C395.94 122.007 396.08 122.553 396.36 123.02C396.64 123.487 397.027 123.853 397.52 124.12C398.013 124.373 398.567 124.5 399.18 124.5ZM413.418 131V128H406.318V126.7L413.118 117H415.078V126.52H417.158V128H415.078V131H413.418ZM408.178 126.52H413.498V118.86L408.178 126.52ZM420.449 131L428.589 117H430.269L422.129 131H420.449ZM429.209 131.24C428.609 131.24 428.069 131.107 427.589 130.84C427.109 130.56 426.722 130.167 426.429 129.66C426.149 129.153 426.009 128.56 426.009 127.88C426.009 127.187 426.149 126.593 426.429 126.1C426.722 125.593 427.109 125.207 427.589 124.94C428.069 124.66 428.609 124.52 429.209 124.52C429.822 124.52 430.362 124.66 430.829 124.94C431.309 125.207 431.689 125.593 431.969 126.1C432.249 126.593 432.389 127.187 432.389 127.88C432.389 128.56 432.249 129.153 431.969 129.66C431.689 130.167 431.309 130.56 430.829 130.84C430.349 131.107 429.809 131.24 429.209 131.24ZM429.189 129.94C429.509 129.94 429.802 129.867 430.069 129.72C430.336 129.56 430.549 129.327 430.709 129.02C430.882 128.713 430.969 128.333 430.969 127.88C430.969 127.413 430.889 127.027 430.729 126.72C430.569 126.413 430.356 126.187 430.089 126.04C429.822 125.88 429.529 125.8 429.209 125.8C428.902 125.8 428.609 125.88 428.329 126.04C428.062 126.187 427.842 126.413 427.669 126.72C427.509 127.027 427.429 127.413 427.429 127.88C427.429 128.333 427.509 128.713 427.669 129.02C427.842 129.327 428.062 129.56 428.329 129.72C428.596 129.867 428.882 129.94 429.189 129.94ZM421.649 123.5C421.049 123.5 420.509 123.367 420.029 123.1C419.549 122.82 419.162 122.427 418.869 121.92C418.589 121.413 418.449 120.82 418.449 120.14C418.449 119.447 418.589 118.853 418.869 118.36C419.162 117.853 419.549 117.467 420.029 117.2C420.522 116.92 421.069 116.78 421.669 116.78C422.269 116.78 422.809 116.92 423.289 117.2C423.769 117.467 424.149 117.853 424.429 118.36C424.709 118.853 424.849 119.447 424.849 120.14C424.849 120.82 424.709 121.413 424.429 121.92C424.149 122.427 423.762 122.82 423.269 123.1C422.789 123.367 422.249 123.5 421.649 123.5ZM421.649 122.2C421.969 122.2 422.262 122.127 422.529 121.98C422.796 121.82 423.009 121.587 423.169 121.28C423.329 120.973 423.409 120.593 423.409 120.14C423.409 119.673 423.329 119.287 423.169 118.98C423.009 118.66 422.796 118.427 422.529 118.28C422.262 118.12 421.976 118.04 421.669 118.04C421.362 118.04 421.069 118.12 420.789 118.28C420.509 118.427 420.282 118.66 420.109 118.98C419.949 119.287 419.869 119.673 419.869 120.14C419.869 120.593 419.949 120.973 420.109 121.28C420.282 121.587 420.502 121.82 420.769 121.98C421.049 122.127 421.342 122.2 421.649 122.2Z" fill="white"/>
</g>
<g filter="url(#filter2_d_203_2534)">
<g clip-path="url(#clip0_203_2534)">
<rect x="298" y="248" width="232" height="69" rx="19" fill="#242323"/>
<g filter="url(#filter3_f_203_2534)">
<circle cx="320.5" cy="302.5" r="40.5" fill="white"/>
</g>
<g filter="url(#filter4_f_203_2534)">
<circle cx="481.5" cy="274.5" r="68.5" fill="white"/>
</g>
<rect x="304" y="253" width="220" height="60" rx="15" fill="url(#paint0_linear_203_2534)"/>
<g filter="url(#filter5_d_203_2534)">
<path d="M367.232 288.192C366.464 288.192 365.765 288.037 365.136 287.728C364.517 287.419 364.021 286.949 363.648 286.32C363.275 285.68 363.088 284.864 363.088 283.872V276.8H364.432V283.888C364.432 284.613 364.549 285.205 364.784 285.664C365.029 286.123 365.365 286.459 365.792 286.672C366.219 286.885 366.709 286.992 367.264 286.992C367.829 286.992 368.32 286.885 368.736 286.672C369.152 286.459 369.477 286.123 369.712 285.664C369.947 285.205 370.064 284.613 370.064 283.888V276.8H371.408V283.872C371.408 284.864 371.221 285.68 370.848 286.32C370.475 286.949 369.973 287.419 369.344 287.728C368.715 288.037 368.011 288.192 367.232 288.192ZM373.7 288V276.8H375.044V288H373.7ZM381.466 288.192C380.698 288.192 380 288.037 379.37 287.728C378.752 287.419 378.256 286.949 377.882 286.32C377.509 285.68 377.322 284.864 377.322 283.872V276.8H378.666V283.888C378.666 284.613 378.784 285.205 379.018 285.664C379.264 286.123 379.6 286.459 380.026 286.672C380.453 286.885 380.944 286.992 381.498 286.992C382.064 286.992 382.554 286.885 382.97 286.672C383.386 286.459 383.712 286.123 383.946 285.664C384.181 285.205 384.298 284.613 384.298 283.888V276.8H385.642V283.872C385.642 284.864 385.456 285.68 385.082 286.32C384.709 286.949 384.208 287.419 383.578 287.728C382.949 288.037 382.245 288.192 381.466 288.192ZM387.342 288L390.766 282.352L387.342 276.8H388.862L391.614 281.264L394.238 276.8H395.742L392.318 282.4L395.758 288H394.238L391.47 283.488L388.862 288H387.342ZM401.809 288V276.8H405.137C406.439 276.8 407.516 277.029 408.369 277.488C409.223 277.936 409.852 278.581 410.257 279.424C410.673 280.256 410.881 281.259 410.881 282.432C410.881 283.584 410.673 284.576 410.257 285.408C409.852 286.24 409.223 286.88 408.369 287.328C407.516 287.776 406.439 288 405.137 288H401.809ZM403.153 286.88H405.105C406.183 286.88 407.041 286.704 407.681 286.352C408.332 285.989 408.796 285.477 409.073 284.816C409.351 284.144 409.489 283.349 409.489 282.432C409.489 281.493 409.351 280.688 409.073 280.016C408.796 279.344 408.332 278.827 407.681 278.464C407.041 278.101 406.183 277.92 405.105 277.92H403.153V286.88ZM416.312 288.192C415.566 288.192 414.899 288.016 414.312 287.664C413.726 287.312 413.262 286.821 412.92 286.192C412.59 285.563 412.424 284.827 412.424 283.984C412.424 283.131 412.59 282.395 412.92 281.776C413.251 281.147 413.71 280.656 414.296 280.304C414.894 279.952 415.576 279.776 416.344 279.776C417.134 279.776 417.806 279.952 418.36 280.304C418.915 280.656 419.336 281.115 419.624 281.68C419.923 282.245 420.072 282.869 420.072 283.552C420.072 283.659 420.072 283.771 420.072 283.888C420.072 284.005 420.067 284.139 420.056 284.288H413.432V283.248H418.744C418.712 282.512 418.467 281.941 418.008 281.536C417.56 281.12 416.995 280.912 416.312 280.912C415.864 280.912 415.443 281.019 415.048 281.232C414.654 281.435 414.334 281.733 414.088 282.128C413.854 282.523 413.736 283.019 413.736 283.616V284.064C413.736 284.725 413.859 285.28 414.104 285.728C414.35 286.165 414.664 286.496 415.048 286.72C415.443 286.944 415.864 287.056 416.312 287.056C416.878 287.056 417.342 286.933 417.704 286.688C418.078 286.432 418.35 286.085 418.52 285.648H419.848C419.71 286.139 419.48 286.576 419.16 286.96C418.84 287.333 418.44 287.632 417.96 287.856C417.491 288.08 416.942 288.192 416.312 288.192ZM424.894 288.192C424.243 288.192 423.667 288.085 423.166 287.872C422.665 287.648 422.265 287.333 421.966 286.928C421.678 286.523 421.497 286.048 421.422 285.504H422.798C422.862 285.781 422.979 286.043 423.15 286.288C423.321 286.523 423.55 286.709 423.838 286.848C424.137 286.987 424.494 287.056 424.91 287.056C425.294 287.056 425.609 287.003 425.854 286.896C426.099 286.779 426.281 286.624 426.398 286.432C426.515 286.24 426.574 286.032 426.574 285.808C426.574 285.488 426.494 285.243 426.334 285.072C426.185 284.901 425.961 284.768 425.662 284.672C425.363 284.565 425.006 284.475 424.59 284.4C424.238 284.336 423.891 284.251 423.55 284.144C423.219 284.037 422.921 283.899 422.654 283.728C422.387 283.557 422.174 283.344 422.014 283.088C421.854 282.821 421.774 282.507 421.774 282.144C421.774 281.685 421.891 281.28 422.126 280.928C422.371 280.565 422.707 280.283 423.134 280.08C423.571 279.877 424.089 279.776 424.686 279.776C425.539 279.776 426.233 279.984 426.766 280.4C427.31 280.816 427.625 281.419 427.71 282.208H426.382C426.339 281.803 426.169 281.488 425.87 281.264C425.571 281.029 425.171 280.912 424.67 280.912C424.169 280.912 423.785 281.013 423.518 281.216C423.262 281.419 423.134 281.685 423.134 282.016C423.134 282.229 423.203 282.416 423.342 282.576C423.491 282.736 423.71 282.875 423.998 282.992C424.286 283.099 424.633 283.195 425.038 283.28C425.561 283.376 426.041 283.504 426.478 283.664C426.915 283.824 427.267 284.059 427.534 284.368C427.811 284.677 427.95 285.12 427.95 285.696C427.961 286.197 427.838 286.635 427.582 287.008C427.337 287.381 426.985 287.675 426.526 287.888C426.067 288.091 425.523 288.192 424.894 288.192ZM430.029 288V279.968H431.373V288H430.029ZM430.701 278.24C430.435 278.24 430.211 278.155 430.029 277.984C429.859 277.803 429.773 277.579 429.773 277.312C429.773 277.045 429.859 276.832 430.029 276.672C430.211 276.501 430.435 276.416 430.701 276.416C430.957 276.416 431.176 276.501 431.357 276.672C431.539 276.832 431.629 277.045 431.629 277.312C431.629 277.579 431.539 277.803 431.357 277.984C431.176 278.155 430.957 278.24 430.701 278.24ZM436.897 291.712C436.172 291.712 435.532 291.616 434.977 291.424C434.423 291.243 433.991 290.96 433.681 290.576C433.372 290.192 433.217 289.717 433.217 289.152C433.217 288.907 433.265 288.645 433.361 288.368C433.468 288.101 433.644 287.835 433.889 287.568C434.145 287.301 434.503 287.061 434.961 286.848L435.873 287.392C435.319 287.627 434.956 287.893 434.785 288.192C434.615 288.491 434.529 288.768 434.529 289.024C434.529 289.376 434.631 289.669 434.833 289.904C435.036 290.139 435.313 290.315 435.665 290.432C436.028 290.549 436.439 290.608 436.897 290.608C437.356 290.608 437.751 290.539 438.081 290.4C438.412 290.272 438.668 290.091 438.849 289.856C439.031 289.632 439.121 289.36 439.121 289.04C439.121 288.677 438.983 288.368 438.705 288.112C438.428 287.867 437.905 287.723 437.137 287.68C436.497 287.637 435.964 287.579 435.537 287.504C435.121 287.429 434.775 287.344 434.497 287.248C434.22 287.141 433.985 287.024 433.793 286.896C433.612 286.768 433.447 286.635 433.297 286.496V286.128L434.849 284.576L436.017 284.992L434.417 286.448L434.625 285.888C434.743 285.973 434.855 286.053 434.961 286.128C435.068 286.192 435.212 286.251 435.393 286.304C435.575 286.357 435.825 286.411 436.145 286.464C436.465 286.507 436.897 286.549 437.441 286.592C438.167 286.645 438.748 286.773 439.185 286.976C439.633 287.179 439.953 287.451 440.145 287.792C440.348 288.133 440.449 288.533 440.449 288.992C440.449 289.451 440.321 289.883 440.065 290.288C439.82 290.704 439.436 291.045 438.913 291.312C438.391 291.579 437.719 291.712 436.897 291.712ZM436.881 285.472C436.209 285.472 435.639 285.349 435.169 285.104C434.7 284.848 434.343 284.507 434.097 284.08C433.852 283.643 433.729 283.157 433.729 282.624C433.729 282.091 433.852 281.611 434.097 281.184C434.343 280.757 434.7 280.416 435.169 280.16C435.639 279.904 436.209 279.776 436.881 279.776C437.564 279.776 438.14 279.904 438.609 280.16C439.079 280.416 439.436 280.757 439.681 281.184C439.927 281.611 440.049 282.091 440.049 282.624C440.049 283.157 439.927 283.643 439.681 284.08C439.436 284.507 439.079 284.848 438.609 285.104C438.14 285.349 437.564 285.472 436.881 285.472ZM436.881 284.368C437.457 284.368 437.911 284.224 438.241 283.936C438.583 283.637 438.753 283.2 438.753 282.624C438.753 282.069 438.583 281.643 438.241 281.344C437.911 281.045 437.457 280.896 436.881 280.896C436.316 280.896 435.863 281.045 435.521 281.344C435.18 281.643 435.009 282.069 435.009 282.624C435.009 283.2 435.18 283.637 435.521 283.936C435.863 284.224 436.316 284.368 436.881 284.368ZM438.193 281.104L437.793 279.968H441.089V280.976L438.193 281.104ZM442.62 288V279.968H443.836L443.916 281.376C444.172 280.875 444.534 280.485 445.004 280.208C445.484 279.92 446.028 279.776 446.636 279.776C447.265 279.776 447.809 279.899 448.268 280.144C448.726 280.389 449.084 280.768 449.34 281.28C449.596 281.792 449.724 282.437 449.724 283.216V288H448.38V283.36C448.38 282.549 448.204 281.941 447.852 281.536C447.5 281.131 446.993 280.928 446.332 280.928C445.884 280.928 445.478 281.04 445.116 281.264C444.764 281.477 444.481 281.792 444.268 282.208C444.065 282.624 443.964 283.131 443.964 283.728V288H442.62ZM455.344 288.192C454.597 288.192 453.93 288.016 453.344 287.664C452.757 287.312 452.293 286.821 451.952 286.192C451.621 285.563 451.456 284.827 451.456 283.984C451.456 283.131 451.621 282.395 451.952 281.776C452.282 281.147 452.741 280.656 453.328 280.304C453.925 279.952 454.608 279.776 455.376 279.776C456.165 279.776 456.837 279.952 457.392 280.304C457.946 280.656 458.368 281.115 458.656 281.68C458.954 282.245 459.104 282.869 459.104 283.552C459.104 283.659 459.104 283.771 459.104 283.888C459.104 284.005 459.098 284.139 459.088 284.288H452.464V283.248H457.776C457.744 282.512 457.498 281.941 457.04 281.536C456.592 281.12 456.026 280.912 455.344 280.912C454.896 280.912 454.474 281.019 454.08 281.232C453.685 281.435 453.365 281.733 453.12 282.128C452.885 282.523 452.768 283.019 452.768 283.616V284.064C452.768 284.725 452.89 285.28 453.136 285.728C453.381 286.165 453.696 286.496 454.08 286.72C454.474 286.944 454.896 287.056 455.344 287.056C455.909 287.056 456.373 286.933 456.736 286.688C457.109 286.432 457.381 286.085 457.552 285.648H458.88C458.741 286.139 458.512 286.576 458.192 286.96C457.872 287.333 457.472 287.632 456.992 287.856C456.522 288.08 455.973 288.192 455.344 288.192ZM460.885 288V279.968H462.101L462.213 281.504C462.395 281.141 462.624 280.832 462.901 280.576C463.189 280.32 463.531 280.123 463.925 279.984C464.32 279.845 464.768 279.776 465.269 279.776V281.184H464.805C464.464 281.184 464.139 281.232 463.829 281.328C463.52 281.413 463.243 281.557 462.997 281.76C462.763 281.952 462.576 282.224 462.437 282.576C462.299 282.928 462.229 283.36 462.229 283.872V288H460.885Z" fill="white"/>
</g>
</g>
</g>
<path d="M748 124C748 172.049 709.049 211 661 211C612.951 211 574 172.049 574 124C574 75.9512 612.951 37 661 37C709.049 37 748 75.9512 748 124ZM582.418 124C582.418 167.4 617.6 202.582 661 202.582C704.4 202.582 739.582 167.4 739.582 124C739.582 80.6004 704.4 45.418 661 45.418C617.6 45.418 582.418 80.6004 582.418 124Z" fill="#3A3A3A"/>
<g filter="url(#filter6_d_203_2534)">
<path d="M748 124C748 104.489 741.442 85.5448 729.379 70.21C717.316 54.8753 700.448 44.0405 681.486 39.4463C662.524 34.8521 642.568 36.7651 624.824 44.8781C607.08 52.991 592.578 66.8329 583.648 84.1801C574.718 101.527 571.878 121.373 575.584 140.528C579.291 159.684 589.329 177.037 604.086 189.801C618.842 202.565 637.461 209.998 656.95 210.906C676.44 211.814 695.669 206.144 711.549 194.808L706.658 187.957C692.315 198.196 674.946 203.317 657.342 202.497C639.738 201.677 622.921 194.963 609.593 183.434C596.264 171.905 587.197 156.231 583.849 138.929C580.501 121.627 583.066 103.702 591.132 88.033C599.198 72.3643 612.297 59.8618 628.324 52.5338C644.351 45.2059 662.376 43.4779 679.504 47.6276C696.631 51.7773 711.867 61.5637 722.762 75.4147C733.658 89.2656 739.582 106.377 739.582 124H748Z" fill="white"/>
</g>
<g filter="url(#filter7_d_203_2534)">
<path d="M646.1 131.24C645.18 131.24 644.353 131.073 643.62 130.74C642.9 130.393 642.327 129.92 641.9 129.32C641.473 128.707 641.26 128 641.26 127.2C641.26 126.627 641.373 126.093 641.6 125.6C641.827 125.107 642.147 124.68 642.56 124.32C642.973 123.947 643.453 123.687 644 123.54C643.24 123.273 642.653 122.86 642.24 122.3C641.827 121.74 641.62 121.133 641.62 120.48C641.62 119.787 641.8 119.16 642.16 118.6C642.52 118.04 643.033 117.593 643.7 117.26C644.367 116.927 645.167 116.76 646.1 116.76C647.02 116.76 647.813 116.927 648.48 117.26C649.147 117.593 649.66 118.04 650.02 118.6C650.38 119.16 650.56 119.787 650.56 120.48C650.56 121.133 650.353 121.74 649.94 122.3C649.527 122.86 648.947 123.273 648.2 123.54C648.747 123.687 649.22 123.947 649.62 124.32C650.033 124.68 650.353 125.107 650.58 125.6C650.807 126.093 650.92 126.627 650.92 127.2C650.92 128 650.707 128.707 650.28 129.32C649.853 129.92 649.273 130.393 648.54 130.74C647.82 131.073 647.007 131.24 646.1 131.24ZM646.1 129.76C647.153 129.76 647.94 129.52 648.46 129.04C648.98 128.547 649.24 127.9 649.24 127.1C649.24 126.193 648.953 125.507 648.38 125.04C647.807 124.573 647.047 124.34 646.1 124.34C645.14 124.34 644.373 124.573 643.8 125.04C643.227 125.507 642.94 126.193 642.94 127.1C642.94 127.9 643.2 128.547 643.72 129.04C644.253 129.52 645.047 129.76 646.1 129.76ZM646.1 122.94C646.94 122.94 647.607 122.72 648.1 122.28C648.607 121.84 648.86 121.273 648.86 120.58C648.86 119.793 648.613 119.2 648.12 118.8C647.627 118.4 646.953 118.2 646.1 118.2C645.247 118.2 644.573 118.4 644.08 118.8C643.587 119.2 643.34 119.793 643.34 120.58C643.34 121.273 643.587 121.84 644.08 122.28C644.573 122.72 645.247 122.94 646.1 122.94ZM658.428 131.24C657.468 131.24 656.634 131.067 655.928 130.72C655.221 130.36 654.661 129.88 654.248 129.28C653.834 128.68 653.581 128 653.488 127.24H655.127C655.274 128.013 655.641 128.633 656.228 129.1C656.814 129.567 657.554 129.8 658.448 129.8C659.101 129.8 659.668 129.647 660.148 129.34C660.628 129.02 660.994 128.593 661.248 128.06C661.514 127.527 661.648 126.933 661.648 126.28C661.648 125.6 661.514 125 661.248 124.48C660.981 123.96 660.614 123.553 660.148 123.26C659.681 122.967 659.134 122.82 658.508 122.82C657.734 122.82 657.074 122.993 656.528 123.34C655.994 123.673 655.594 124.113 655.328 124.66H653.728L654.908 117H662.268V118.46H656.208L655.408 122.74C655.741 122.353 656.188 122.033 656.748 121.78C657.308 121.527 657.954 121.4 658.688 121.4C659.381 121.4 660.001 121.527 660.548 121.78C661.108 122.02 661.588 122.36 661.988 122.8C662.401 123.24 662.714 123.76 662.928 124.36C663.154 124.947 663.268 125.58 663.268 126.26C663.268 126.94 663.161 127.58 662.948 128.18C662.734 128.78 662.414 129.313 661.988 129.78C661.574 130.233 661.068 130.593 660.468 130.86C659.868 131.113 659.188 131.24 658.428 131.24ZM667.234 131L675.374 117H677.054L668.914 131H667.234ZM675.994 131.24C675.394 131.24 674.854 131.107 674.374 130.84C673.894 130.56 673.507 130.167 673.214 129.66C672.934 129.153 672.794 128.56 672.794 127.88C672.794 127.187 672.934 126.593 673.214 126.1C673.507 125.593 673.894 125.207 674.374 124.94C674.854 124.66 675.394 124.52 675.994 124.52C676.607 124.52 677.147 124.66 677.614 124.94C678.094 125.207 678.474 125.593 678.754 126.1C679.034 126.593 679.174 127.187 679.174 127.88C679.174 128.56 679.034 129.153 678.754 129.66C678.474 130.167 678.094 130.56 677.614 130.84C677.134 131.107 676.594 131.24 675.994 131.24ZM675.974 129.94C676.294 129.94 676.587 129.867 676.854 129.72C677.121 129.56 677.334 129.327 677.494 129.02C677.667 128.713 677.754 128.333 677.754 127.88C677.754 127.413 677.674 127.027 677.514 126.72C677.354 126.413 677.141 126.187 676.874 126.04C676.607 125.88 676.314 125.8 675.994 125.8C675.687 125.8 675.394 125.88 675.114 126.04C674.847 126.187 674.627 126.413 674.454 126.72C674.294 127.027 674.214 127.413 674.214 127.88C674.214 128.333 674.294 128.713 674.454 129.02C674.627 129.327 674.847 129.56 675.114 129.72C675.381 129.867 675.667 129.94 675.974 129.94ZM668.434 123.5C667.834 123.5 667.294 123.367 666.814 123.1C666.334 122.82 665.947 122.427 665.654 121.92C665.374 121.413 665.234 120.82 665.234 120.14C665.234 119.447 665.374 118.853 665.654 118.36C665.947 117.853 666.334 117.467 666.814 117.2C667.307 116.92 667.854 116.78 668.454 116.78C669.054 116.78 669.594 116.92 670.074 117.2C670.554 117.467 670.934 117.853 671.214 118.36C671.494 118.853 671.634 119.447 671.634 120.14C671.634 120.82 671.494 121.413 671.214 121.92C670.934 122.427 670.547 122.82 670.054 123.1C669.574 123.367 669.034 123.5 668.434 123.5ZM668.434 122.2C668.754 122.2 669.047 122.127 669.314 121.98C669.581 121.82 669.794 121.587 669.954 121.28C670.114 120.973 670.194 120.593 670.194 120.14C670.194 119.673 670.114 119.287 669.954 118.98C669.794 118.66 669.581 118.427 669.314 118.28C669.047 118.12 668.761 118.04 668.454 118.04C668.147 118.04 667.854 118.12 667.574 118.28C667.294 118.427 667.067 118.66 666.894 118.98C666.734 119.287 666.654 119.673 666.654 120.14C666.654 120.593 666.734 120.973 666.894 121.28C667.067 121.587 667.287 121.82 667.554 121.98C667.834 122.127 668.127 122.2 668.434 122.2Z" fill="white"/>
</g>
<g filter="url(#filter8_d_203_2534)">
<g clip-path="url(#clip1_203_2534)">
<rect x="545" y="248" width="232" height="69" rx="19" fill="#242323"/>
<g filter="url(#filter9_f_203_2534)">
<circle cx="567.5" cy="302.5" r="40.5" fill="white"/>
</g>
<g filter="url(#filter10_f_203_2534)">
<circle cx="728.5" cy="274.5" r="68.5" fill="white"/>
</g>
<rect x="551" y="253" width="220" height="60" rx="15" fill="url(#paint1_linear_203_2534)"/>
<g filter="url(#filter11_d_203_2534)">
<path d="M602 288.192C600.955 288.192 600.037 287.952 599.248 287.472C598.459 286.981 597.845 286.304 597.408 285.44C596.971 284.576 596.752 283.568 596.752 282.416C596.752 281.275 596.971 280.267 597.408 279.392C597.856 278.517 598.485 277.835 599.296 277.344C600.117 276.853 601.083 276.608 602.192 276.608C603.451 276.608 604.501 276.912 605.344 277.52C606.187 278.117 606.725 278.955 606.96 280.032H605.408C605.259 279.36 604.907 278.827 604.352 278.432C603.797 278.037 603.077 277.84 602.192 277.84C601.371 277.84 600.651 278.027 600.032 278.4C599.424 278.763 598.955 279.285 598.624 279.968C598.293 280.651 598.128 281.467 598.128 282.416C598.128 283.365 598.293 284.187 598.624 284.88C598.955 285.563 599.413 286.085 600 286.448C600.597 286.811 601.28 286.992 602.048 286.992C603.243 286.992 604.144 286.64 604.752 285.936C605.36 285.232 605.707 284.277 605.792 283.072H602.56V282.016H607.168V288H605.936L605.824 286.16C605.557 286.597 605.248 286.971 604.896 287.28C604.555 287.579 604.149 287.808 603.68 287.968C603.211 288.117 602.651 288.192 602 288.192ZM609.229 288V279.968H610.445L610.557 281.504C610.738 281.141 610.968 280.832 611.245 280.576C611.533 280.32 611.874 280.123 612.269 279.984C612.664 279.845 613.112 279.776 613.613 279.776V281.184H613.149C612.808 281.184 612.482 281.232 612.173 281.328C611.864 281.413 611.586 281.557 611.341 281.76C611.106 281.952 610.92 282.224 610.781 282.576C610.642 282.928 610.573 283.36 610.573 283.872V288H609.229ZM617.76 288.192C617.109 288.192 616.565 288.08 616.128 287.856C615.69 287.621 615.365 287.317 615.152 286.944C614.938 286.56 614.832 286.149 614.832 285.712C614.832 285.168 614.97 284.709 615.248 284.336C615.536 283.952 615.936 283.664 616.448 283.472C616.97 283.269 617.578 283.168 618.272 283.168H620.416C620.416 282.667 620.336 282.251 620.176 281.92C620.026 281.589 619.802 281.339 619.504 281.168C619.205 280.997 618.842 280.912 618.416 280.912C617.904 280.912 617.461 281.04 617.088 281.296C616.714 281.552 616.485 281.931 616.4 282.432H615.024C615.088 281.856 615.28 281.376 615.6 280.992C615.93 280.597 616.346 280.299 616.848 280.096C617.349 279.883 617.872 279.776 618.416 279.776C619.162 279.776 619.781 279.915 620.272 280.192C620.762 280.459 621.13 280.837 621.376 281.328C621.632 281.808 621.76 282.373 621.76 283.024V288H620.56L620.48 286.576C620.373 286.8 620.234 287.013 620.064 287.216C619.904 287.408 619.712 287.579 619.488 287.728C619.274 287.867 619.024 287.979 618.736 288.064C618.448 288.149 618.122 288.192 617.76 288.192ZM617.968 287.056C618.341 287.056 618.677 286.981 618.976 286.832C619.285 286.672 619.546 286.459 619.76 286.192C619.973 285.925 620.133 285.627 620.24 285.296C620.357 284.955 620.416 284.608 620.416 284.256V284.208H618.384C617.872 284.208 617.456 284.272 617.136 284.4C616.816 284.517 616.586 284.688 616.448 284.912C616.309 285.125 616.24 285.371 616.24 285.648C616.24 285.936 616.304 286.187 616.432 286.4C616.57 286.603 616.768 286.763 617.024 286.88C617.28 286.997 617.594 287.056 617.968 287.056ZM623.823 291.52V279.968H625.039L625.167 281.28C625.337 281.024 625.556 280.784 625.823 280.56C626.089 280.325 626.409 280.139 626.783 280C627.156 279.851 627.588 279.776 628.079 279.776C628.857 279.776 629.535 279.963 630.111 280.336C630.697 280.699 631.151 281.2 631.471 281.84C631.801 282.469 631.967 283.189 631.967 284C631.967 284.811 631.801 285.531 631.471 286.16C631.151 286.789 630.697 287.285 630.111 287.648C629.524 288.011 628.841 288.192 628.063 288.192C627.412 288.192 626.836 288.059 626.335 287.792C625.833 287.525 625.444 287.152 625.167 286.672V291.52H623.823ZM627.903 287.024C628.436 287.024 628.905 286.901 629.311 286.656C629.716 286.4 630.031 286.043 630.255 285.584C630.489 285.125 630.607 284.592 630.607 283.984C630.607 283.376 630.489 282.843 630.255 282.384C630.031 281.925 629.716 281.573 629.311 281.328C628.905 281.072 628.436 280.944 627.903 280.944C627.369 280.944 626.9 281.072 626.495 281.328C626.089 281.573 625.775 281.925 625.551 282.384C625.327 282.843 625.215 283.376 625.215 283.984C625.215 284.592 625.327 285.125 625.551 285.584C625.775 286.043 626.089 286.4 626.495 286.656C626.9 286.901 627.369 287.024 627.903 287.024ZM633.854 288V276.48H635.198V281.328C635.475 280.837 635.854 280.459 636.334 280.192C636.814 279.915 637.347 279.776 637.934 279.776C638.553 279.776 639.086 279.904 639.534 280.16C639.993 280.405 640.345 280.784 640.59 281.296C640.846 281.808 640.974 282.453 640.974 283.232V288H639.646V283.376C639.646 282.565 639.475 281.957 639.134 281.552C638.793 281.136 638.297 280.928 637.646 280.928C637.187 280.928 636.771 281.04 636.398 281.264C636.035 281.477 635.742 281.797 635.518 282.224C635.305 282.64 635.198 283.152 635.198 283.76V288H633.854ZM643.186 288V279.968H644.53V288H643.186ZM643.858 278.24C643.591 278.24 643.367 278.155 643.186 277.984C643.015 277.803 642.93 277.579 642.93 277.312C642.93 277.045 643.015 276.832 643.186 276.672C643.367 276.501 643.591 276.416 643.858 276.416C644.114 276.416 644.332 276.501 644.514 276.672C644.695 276.832 644.786 277.045 644.786 277.312C644.786 277.579 644.695 277.803 644.514 277.984C644.332 278.155 644.114 278.24 643.858 278.24ZM650.518 288.192C649.76 288.192 649.078 288.016 648.47 287.664C647.872 287.312 647.398 286.821 647.046 286.192C646.704 285.563 646.534 284.827 646.534 283.984C646.534 283.141 646.704 282.405 647.046 281.776C647.398 281.147 647.872 280.656 648.47 280.304C649.078 279.952 649.76 279.776 650.518 279.776C651.478 279.776 652.278 280.027 652.918 280.528C653.558 281.019 653.963 281.68 654.134 282.512H652.758C652.651 282.011 652.39 281.621 651.974 281.344C651.558 281.067 651.067 280.928 650.502 280.928C650.043 280.928 649.616 281.045 649.222 281.28C648.838 281.504 648.523 281.845 648.278 282.304C648.032 282.752 647.91 283.312 647.91 283.984C647.91 284.485 647.979 284.928 648.118 285.312C648.267 285.696 648.459 286.021 648.694 286.288C648.928 286.544 649.2 286.736 649.51 286.864C649.83 286.992 650.16 287.056 650.502 287.056C650.886 287.056 651.232 286.997 651.542 286.88C651.851 286.752 652.112 286.571 652.326 286.336C652.539 286.091 652.683 285.797 652.758 285.456H654.134C653.963 286.277 653.552 286.939 652.902 287.44C652.262 287.941 651.467 288.192 650.518 288.192ZM660.356 288V276.8H663.684C664.986 276.8 666.063 277.029 666.916 277.488C667.77 277.936 668.399 278.581 668.804 279.424C669.22 280.256 669.428 281.259 669.428 282.432C669.428 283.584 669.22 284.576 668.804 285.408C668.399 286.24 667.77 286.88 666.916 287.328C666.063 287.776 664.986 288 663.684 288H660.356ZM661.7 286.88H663.652C664.73 286.88 665.588 286.704 666.228 286.352C666.879 285.989 667.343 285.477 667.62 284.816C667.898 284.144 668.036 283.349 668.036 282.432C668.036 281.493 667.898 280.688 667.62 280.016C667.343 279.344 666.879 278.827 666.228 278.464C665.588 278.101 664.73 277.92 663.652 277.92H661.7V286.88ZM674.859 288.192C674.112 288.192 673.446 288.016 672.859 287.664C672.272 287.312 671.808 286.821 671.467 286.192C671.136 285.563 670.971 284.827 670.971 283.984C670.971 283.131 671.136 282.395 671.467 281.776C671.798 281.147 672.256 280.656 672.843 280.304C673.44 279.952 674.123 279.776 674.891 279.776C675.68 279.776 676.352 279.952 676.907 280.304C677.462 280.656 677.883 281.115 678.171 281.68C678.47 282.245 678.619 282.869 678.619 283.552C678.619 283.659 678.619 283.771 678.619 283.888C678.619 284.005 678.614 284.139 678.603 284.288H671.979V283.248H677.291C677.259 282.512 677.014 281.941 676.555 281.536C676.107 281.12 675.542 280.912 674.859 280.912C674.411 280.912 673.99 281.019 673.595 281.232C673.2 281.435 672.88 281.733 672.635 282.128C672.4 282.523 672.283 283.019 672.283 283.616V284.064C672.283 284.725 672.406 285.28 672.651 285.728C672.896 286.165 673.211 286.496 673.595 286.72C673.99 286.944 674.411 287.056 674.859 287.056C675.424 287.056 675.888 286.933 676.251 286.688C676.624 286.432 676.896 286.085 677.067 285.648H678.395C678.256 286.139 678.027 286.576 677.707 286.96C677.387 287.333 676.987 287.632 676.507 287.856C676.038 288.08 675.488 288.192 674.859 288.192ZM683.441 288.192C682.79 288.192 682.214 288.085 681.713 287.872C681.212 287.648 680.812 287.333 680.513 286.928C680.225 286.523 680.044 286.048 679.969 285.504H681.345C681.409 285.781 681.526 286.043 681.697 286.288C681.868 286.523 682.097 286.709 682.385 286.848C682.684 286.987 683.041 287.056 683.457 287.056C683.841 287.056 684.156 287.003 684.401 286.896C684.646 286.779 684.828 286.624 684.945 286.432C685.062 286.24 685.121 286.032 685.121 285.808C685.121 285.488 685.041 285.243 684.881 285.072C684.732 284.901 684.508 284.768 684.209 284.672C683.91 284.565 683.553 284.475 683.137 284.4C682.785 284.336 682.438 284.251 682.097 284.144C681.766 284.037 681.468 283.899 681.201 283.728C680.934 283.557 680.721 283.344 680.561 283.088C680.401 282.821 680.321 282.507 680.321 282.144C680.321 281.685 680.438 281.28 680.673 280.928C680.918 280.565 681.254 280.283 681.681 280.08C682.118 279.877 682.636 279.776 683.233 279.776C684.086 279.776 684.78 279.984 685.313 280.4C685.857 280.816 686.172 281.419 686.257 282.208H684.929C684.886 281.803 684.716 281.488 684.417 281.264C684.118 281.029 683.718 280.912 683.217 280.912C682.716 280.912 682.332 281.013 682.065 281.216C681.809 281.419 681.681 281.685 681.681 282.016C681.681 282.229 681.75 282.416 681.889 282.576C682.038 282.736 682.257 282.875 682.545 282.992C682.833 283.099 683.18 283.195 683.585 283.28C684.108 283.376 684.588 283.504 685.025 283.664C685.462 283.824 685.814 284.059 686.081 284.368C686.358 284.677 686.497 285.12 686.497 285.696C686.508 286.197 686.385 286.635 686.129 287.008C685.884 287.381 685.532 287.675 685.073 287.888C684.614 288.091 684.07 288.192 683.441 288.192ZM688.576 288V279.968H689.92V288H688.576ZM689.248 278.24C688.981 278.24 688.757 278.155 688.576 277.984C688.405 277.803 688.32 277.579 688.32 277.312C688.32 277.045 688.405 276.832 688.576 276.672C688.757 276.501 688.981 276.416 689.248 276.416C689.504 276.416 689.723 276.501 689.904 276.672C690.085 276.832 690.176 277.045 690.176 277.312C690.176 277.579 690.085 277.803 689.904 277.984C689.723 278.155 689.504 278.24 689.248 278.24ZM695.444 291.712C694.719 291.712 694.079 291.616 693.524 291.424C692.97 291.243 692.538 290.96 692.228 290.576C691.919 290.192 691.764 289.717 691.764 289.152C691.764 288.907 691.812 288.645 691.908 288.368C692.015 288.101 692.191 287.835 692.436 287.568C692.692 287.301 693.05 287.061 693.508 286.848L694.42 287.392C693.866 287.627 693.503 287.893 693.332 288.192C693.162 288.491 693.076 288.768 693.076 289.024C693.076 289.376 693.178 289.669 693.38 289.904C693.583 290.139 693.86 290.315 694.212 290.432C694.575 290.549 694.986 290.608 695.444 290.608C695.903 290.608 696.298 290.539 696.628 290.4C696.959 290.272 697.215 290.091 697.396 289.856C697.578 289.632 697.668 289.36 697.668 289.04C697.668 288.677 697.53 288.368 697.252 288.112C696.975 287.867 696.452 287.723 695.684 287.68C695.044 287.637 694.511 287.579 694.084 287.504C693.668 287.429 693.322 287.344 693.044 287.248C692.767 287.141 692.532 287.024 692.34 286.896C692.159 286.768 691.994 286.635 691.844 286.496V286.128L693.396 284.576L694.564 284.992L692.964 286.448L693.172 285.888C693.29 285.973 693.402 286.053 693.508 286.128C693.615 286.192 693.759 286.251 693.94 286.304C694.122 286.357 694.372 286.411 694.692 286.464C695.012 286.507 695.444 286.549 695.988 286.592C696.714 286.645 697.295 286.773 697.732 286.976C698.18 287.179 698.5 287.451 698.692 287.792C698.895 288.133 698.996 288.533 698.996 288.992C698.996 289.451 698.868 289.883 698.612 290.288C698.367 290.704 697.983 291.045 697.46 291.312C696.938 291.579 696.266 291.712 695.444 291.712ZM695.428 285.472C694.756 285.472 694.186 285.349 693.716 285.104C693.247 284.848 692.89 284.507 692.644 284.08C692.399 283.643 692.276 283.157 692.276 282.624C692.276 282.091 692.399 281.611 692.644 281.184C692.89 280.757 693.247 280.416 693.716 280.16C694.186 279.904 694.756 279.776 695.428 279.776C696.111 279.776 696.687 279.904 697.156 280.16C697.626 280.416 697.983 280.757 698.228 281.184C698.474 281.611 698.596 282.091 698.596 282.624C698.596 283.157 698.474 283.643 698.228 284.08C697.983 284.507 697.626 284.848 697.156 285.104C696.687 285.349 696.111 285.472 695.428 285.472ZM695.428 284.368C696.004 284.368 696.458 284.224 696.788 283.936C697.13 283.637 697.3 283.2 697.3 282.624C697.3 282.069 697.13 281.643 696.788 281.344C696.458 281.045 696.004 280.896 695.428 280.896C694.863 280.896 694.41 281.045 694.068 281.344C693.727 281.643 693.556 282.069 693.556 282.624C693.556 283.2 693.727 283.637 694.068 283.936C694.41 284.224 694.863 284.368 695.428 284.368ZM696.74 281.104L696.34 279.968H699.636V280.976L696.74 281.104ZM701.167 288V279.968H702.383L702.463 281.376C702.719 280.875 703.081 280.485 703.551 280.208C704.031 279.92 704.575 279.776 705.183 279.776C705.812 279.776 706.356 279.899 706.815 280.144C707.273 280.389 707.631 280.768 707.887 281.28C708.143 281.792 708.271 282.437 708.271 283.216V288H706.927V283.36C706.927 282.549 706.751 281.941 706.399 281.536C706.047 281.131 705.54 280.928 704.879 280.928C704.431 280.928 704.025 281.04 703.663 281.264C703.311 281.477 703.028 281.792 702.815 282.208C702.612 282.624 702.511 283.131 702.511 283.728V288H701.167ZM713.89 288.192C713.144 288.192 712.477 288.016 711.89 287.664C711.304 287.312 710.84 286.821 710.498 286.192C710.168 285.563 710.002 284.827 710.002 283.984C710.002 283.131 710.168 282.395 710.498 281.776C710.829 281.147 711.288 280.656 711.874 280.304C712.472 279.952 713.154 279.776 713.922 279.776C714.712 279.776 715.384 279.952 715.938 280.304C716.493 280.656 716.914 281.115 717.202 281.68C717.501 282.245 717.65 282.869 717.65 283.552C717.65 283.659 717.65 283.771 717.65 283.888C717.65 284.005 717.645 284.139 717.634 284.288H711.01V283.248H716.322C716.29 282.512 716.045 281.941 715.586 281.536C715.138 281.12 714.573 280.912 713.89 280.912C713.442 280.912 713.021 281.019 712.626 281.232C712.232 281.435 711.912 281.733 711.666 282.128C711.432 282.523 711.314 283.019 711.314 283.616V284.064C711.314 284.725 711.437 285.28 711.682 285.728C711.928 286.165 712.242 286.496 712.626 286.72C713.021 286.944 713.442 287.056 713.89 287.056C714.456 287.056 714.92 286.933 715.282 286.688C715.656 286.432 715.928 286.085 716.098 285.648H717.426C717.288 286.139 717.058 286.576 716.738 286.96C716.418 287.333 716.018 287.632 715.538 287.856C715.069 288.08 714.52 288.192 713.89 288.192ZM719.432 288V279.968H720.648L720.76 281.504C720.941 281.141 721.171 280.832 721.448 280.576C721.736 280.32 722.077 280.123 722.472 279.984C722.867 279.845 723.315 279.776 723.816 279.776V281.184H723.352C723.011 281.184 722.685 281.232 722.376 281.328C722.067 281.413 721.789 281.557 721.544 281.76C721.309 281.952 721.123 282.224 720.984 282.576C720.845 282.928 720.776 283.36 720.776 283.872V288H719.432Z" fill="white"/>
</g>
</g>
</g>
<path d="M254 124C254 172.049 215.049 211 167 211C118.951 211 80 172.049 80 124C80 75.9512 118.951 37 167 37C215.049 37 254 75.9512 254 124ZM88.418 124C88.418 167.4 123.6 202.582 167 202.582C210.4 202.582 245.582 167.4 245.582 124C245.582 80.6004 210.4 45.418 167 45.418C123.6 45.418 88.418 80.6004 88.418 124Z" fill="#3A3A3A"/>
<g filter="url(#filter12_d_203_2534)">
<path d="M254 124C254 101.809 245.52 80.4558 230.295 64.311C215.07 48.1661 194.25 38.4496 172.097 37.1494C149.944 35.8493 128.131 43.0639 111.122 57.3171C94.1126 71.5702 83.193 91.7844 80.5972 113.824C78.0015 135.863 83.9257 158.061 97.1579 175.876C110.39 193.691 129.93 205.776 151.779 209.658C173.628 213.541 196.135 208.927 214.695 196.761C233.254 184.596 246.463 165.798 251.619 144.213L243.432 142.257C238.775 161.753 226.844 178.732 210.08 189.721C193.316 200.71 172.987 204.877 153.252 201.37C133.517 197.863 115.868 186.947 103.916 170.856C91.9639 154.765 86.6128 134.715 88.9574 114.808C91.302 94.9015 101.165 76.6432 116.528 63.7692C131.892 50.8952 151.594 44.3787 171.604 45.553C191.614 46.7273 210.418 55.5037 224.17 70.0864C237.922 84.6691 245.582 103.956 245.582 124H254Z" fill="white"/>
</g>
<g filter="url(#filter13_d_203_2534)">
<path d="M152.08 131.24C151.2 131.24 150.447 131.067 149.82 130.72C149.193 130.373 148.693 129.913 148.32 129.34C147.96 128.753 147.74 128.113 147.66 127.42H149.22C149.353 128.167 149.673 128.747 150.18 129.16C150.687 129.573 151.327 129.78 152.1 129.78C152.807 129.78 153.433 129.567 153.98 129.14C154.54 128.713 154.987 128.06 155.32 127.18C155.667 126.3 155.86 125.18 155.9 123.82C155.9 123.793 155.9 123.767 155.9 123.74C155.9 123.7 155.9 123.667 155.9 123.64C155.687 124.053 155.387 124.44 155 124.8C154.613 125.147 154.153 125.427 153.62 125.64C153.1 125.853 152.507 125.96 151.84 125.96C151.067 125.96 150.327 125.773 149.62 125.4C148.913 125.027 148.34 124.507 147.9 123.84C147.46 123.16 147.24 122.367 147.24 121.46C147.24 120.673 147.433 119.92 147.82 119.2C148.207 118.48 148.76 117.893 149.48 117.44C150.213 116.987 151.073 116.76 152.06 116.76C153.073 116.76 153.927 116.953 154.62 117.34C155.313 117.713 155.867 118.22 156.28 118.86C156.707 119.5 157.013 120.22 157.2 121.02C157.4 121.807 157.5 122.613 157.5 123.44C157.5 124.973 157.287 126.327 156.86 127.5C156.433 128.673 155.813 129.593 155 130.26C154.2 130.913 153.227 131.24 152.08 131.24ZM152.18 124.5C152.807 124.5 153.367 124.36 153.86 124.08C154.353 123.787 154.747 123.4 155.04 122.92C155.333 122.44 155.48 121.92 155.48 121.36C155.48 120.76 155.333 120.227 155.04 119.76C154.747 119.28 154.353 118.907 153.86 118.64C153.367 118.373 152.807 118.24 152.18 118.24C151.567 118.24 151.013 118.38 150.52 118.66C150.027 118.927 149.64 119.293 149.36 119.76C149.08 120.227 148.94 120.767 148.94 121.38C148.94 122.007 149.08 122.553 149.36 123.02C149.64 123.487 150.027 123.853 150.52 124.12C151.013 124.373 151.567 124.5 152.18 124.5ZM165.098 131.24C164.085 131.24 163.231 131.053 162.538 130.68C161.845 130.293 161.285 129.78 160.858 129.14C160.445 128.5 160.138 127.787 159.938 127C159.751 126.2 159.658 125.387 159.658 124.56C159.658 123.013 159.871 121.66 160.298 120.5C160.725 119.327 161.345 118.413 162.158 117.76C162.971 117.093 163.945 116.76 165.078 116.76C165.958 116.76 166.711 116.933 167.338 117.28C167.978 117.627 168.478 118.087 168.838 118.66C169.211 119.233 169.438 119.873 169.518 120.58H167.958C167.825 119.833 167.505 119.253 166.998 118.84C166.491 118.427 165.845 118.22 165.058 118.22C164.365 118.22 163.738 118.44 163.178 118.88C162.618 119.307 162.171 119.96 161.838 120.84C161.505 121.72 161.311 122.847 161.258 124.22C161.258 124.233 161.258 124.253 161.258 124.28C161.258 124.307 161.258 124.333 161.258 124.36C161.471 123.947 161.771 123.567 162.158 123.22C162.545 122.86 163.005 122.573 163.538 122.36C164.071 122.147 164.665 122.04 165.318 122.04C166.118 122.04 166.865 122.227 167.558 122.6C168.251 122.973 168.818 123.5 169.258 124.18C169.698 124.847 169.918 125.633 169.918 126.54C169.918 127.327 169.725 128.08 169.338 128.8C168.951 129.52 168.398 130.107 167.678 130.56C166.958 131.013 166.098 131.24 165.098 131.24ZM164.978 129.76C165.605 129.76 166.158 129.627 166.638 129.36C167.131 129.08 167.518 128.707 167.798 128.24C168.078 127.76 168.218 127.22 168.218 126.62C168.218 125.993 168.078 125.447 167.798 124.98C167.518 124.513 167.131 124.153 166.638 123.9C166.158 123.633 165.605 123.5 164.978 123.5C164.365 123.5 163.805 123.647 163.298 123.94C162.805 124.22 162.411 124.6 162.118 125.08C161.838 125.547 161.698 126.067 161.698 126.64C161.698 127.24 161.838 127.773 162.118 128.24C162.411 128.707 162.805 129.08 163.298 129.36C163.805 129.627 164.365 129.76 164.978 129.76ZM173.644 131L181.784 117H183.464L175.324 131H173.644ZM182.404 131.24C181.804 131.24 181.264 131.107 180.784 130.84C180.304 130.56 179.918 130.167 179.624 129.66C179.344 129.153 179.204 128.56 179.204 127.88C179.204 127.187 179.344 126.593 179.624 126.1C179.918 125.593 180.304 125.207 180.784 124.94C181.264 124.66 181.804 124.52 182.404 124.52C183.018 124.52 183.558 124.66 184.024 124.94C184.504 125.207 184.884 125.593 185.164 126.1C185.444 126.593 185.584 127.187 185.584 127.88C185.584 128.56 185.444 129.153 185.164 129.66C184.884 130.167 184.504 130.56 184.024 130.84C183.544 131.107 183.004 131.24 182.404 131.24ZM182.384 129.94C182.704 129.94 182.998 129.867 183.264 129.72C183.531 129.56 183.744 129.327 183.904 129.02C184.078 128.713 184.164 128.333 184.164 127.88C184.164 127.413 184.084 127.027 183.924 126.72C183.764 126.413 183.551 126.187 183.284 126.04C183.018 125.88 182.724 125.8 182.404 125.8C182.098 125.8 181.804 125.88 181.524 126.04C181.258 126.187 181.038 126.413 180.864 126.72C180.704 127.027 180.624 127.413 180.624 127.88C180.624 128.333 180.704 128.713 180.864 129.02C181.038 129.327 181.258 129.56 181.524 129.72C181.791 129.867 182.078 129.94 182.384 129.94ZM174.844 123.5C174.244 123.5 173.704 123.367 173.224 123.1C172.744 122.82 172.358 122.427 172.064 121.92C171.784 121.413 171.644 120.82 171.644 120.14C171.644 119.447 171.784 118.853 172.064 118.36C172.358 117.853 172.744 117.467 173.224 117.2C173.718 116.92 174.264 116.78 174.864 116.78C175.464 116.78 176.004 116.92 176.484 117.2C176.964 117.467 177.344 117.853 177.624 118.36C177.904 118.853 178.044 119.447 178.044 120.14C178.044 120.82 177.904 121.413 177.624 121.92C177.344 122.427 176.958 122.82 176.464 123.1C175.984 123.367 175.444 123.5 174.844 123.5ZM174.844 122.2C175.164 122.2 175.458 122.127 175.724 121.98C175.991 121.82 176.204 121.587 176.364 121.28C176.524 120.973 176.604 120.593 176.604 120.14C176.604 119.673 176.524 119.287 176.364 118.98C176.204 118.66 175.991 118.427 175.724 118.28C175.458 118.12 175.171 118.04 174.864 118.04C174.558 118.04 174.264 118.12 173.984 118.28C173.704 118.427 173.478 118.66 173.304 118.98C173.144 119.287 173.064 119.673 173.064 120.14C173.064 120.593 173.144 120.973 173.304 121.28C173.478 121.587 173.698 121.82 173.964 121.98C174.244 122.127 174.538 122.2 174.844 122.2Z" fill="white"/>
</g>
<g filter="url(#filter14_d_203_2534)">
<g clip-path="url(#clip2_203_2534)">
<rect x="51" y="248" width="232" height="69" rx="19" fill="#242323"/>
<g filter="url(#filter15_f_203_2534)">
<circle cx="73.5" cy="302.5" r="40.5" fill="white"/>
</g>
<g filter="url(#filter16_f_203_2534)">
<circle cx="234.5" cy="274.5" r="68.5" fill="white"/>
</g>
<rect x="57" y="253" width="220" height="60" rx="15" fill="url(#paint2_linear_203_2534)"/>
<g filter="url(#filter17_d_203_2534)">
<path d="M80.575 288V276.8H84.511C85.3003 276.8 85.951 276.928 86.463 277.184C86.9857 277.429 87.375 277.771 87.631 278.208C87.887 278.635 88.015 279.115 88.015 279.648C88.015 280.224 87.887 280.704 87.631 281.088C87.3857 281.472 87.0603 281.765 86.655 281.968C86.2603 282.171 85.839 282.293 85.391 282.336L85.615 282.176C86.095 282.187 86.5377 282.315 86.943 282.56C87.3483 282.805 87.6683 283.136 87.903 283.552C88.1483 283.968 88.271 284.432 88.271 284.944C88.271 285.509 88.1323 286.027 87.855 286.496C87.5777 286.955 87.167 287.323 86.623 287.6C86.0897 287.867 85.4283 288 84.639 288H80.575ZM81.919 286.88H84.495C85.2523 286.88 85.839 286.704 86.255 286.352C86.6817 285.989 86.895 285.488 86.895 284.848C86.895 284.219 86.6763 283.717 86.239 283.344C85.8123 282.96 85.2203 282.768 84.463 282.768H81.919V286.88ZM81.919 281.696H84.415C85.1403 281.696 85.6897 281.525 86.063 281.184C86.447 280.843 86.639 280.379 86.639 279.792C86.639 279.227 86.447 278.773 86.063 278.432C85.6897 278.091 85.1243 277.92 84.367 277.92H81.919V281.696ZM90.1196 288V279.968H91.3356L91.4476 281.504C91.629 281.141 91.8583 280.832 92.1356 280.576C92.4236 280.32 92.765 280.123 93.1596 279.984C93.5543 279.845 94.0023 279.776 94.5036 279.776V281.184H94.0396C93.6983 281.184 93.373 281.232 93.0636 281.328C92.7543 281.413 92.477 281.557 92.2316 281.76C91.997 281.952 91.8103 282.224 91.6716 282.576C91.533 282.928 91.4636 283.36 91.4636 283.872V288H90.1196ZM98.6503 288.192C97.9996 288.192 97.4556 288.08 97.0182 287.856C96.5809 287.621 96.2556 287.317 96.0423 286.944C95.8289 286.56 95.7223 286.149 95.7223 285.712C95.7223 285.168 95.8609 284.709 96.1383 284.336C96.4263 283.952 96.8263 283.664 97.3383 283.472C97.8609 283.269 98.4689 283.168 99.1623 283.168H101.306C101.306 282.667 101.226 282.251 101.066 281.92C100.917 281.589 100.693 281.339 100.394 281.168C100.096 280.997 99.7329 280.912 99.3063 280.912C98.7943 280.912 98.3516 281.04 97.9783 281.296C97.6049 281.552 97.3756 281.931 97.2903 282.432H95.9143C95.9783 281.856 96.1703 281.376 96.4903 280.992C96.8209 280.597 97.2369 280.299 97.7383 280.096C98.2396 279.883 98.7623 279.776 99.3063 279.776C100.053 279.776 100.672 279.915 101.162 280.192C101.653 280.459 102.021 280.837 102.266 281.328C102.522 281.808 102.65 282.373 102.65 283.024V288H101.45L101.37 286.576C101.264 286.8 101.125 287.013 100.954 287.216C100.794 287.408 100.602 287.579 100.378 287.728C100.165 287.867 99.9143 287.979 99.6263 288.064C99.3383 288.149 99.0129 288.192 98.6503 288.192ZM98.8583 287.056C99.2316 287.056 99.5676 286.981 99.8663 286.832C100.176 286.672 100.437 286.459 100.65 286.192C100.864 285.925 101.024 285.627 101.13 285.296C101.248 284.955 101.306 284.608 101.306 284.256V284.208H99.2743C98.7623 284.208 98.3463 284.272 98.0263 284.4C97.7063 284.517 97.4769 284.688 97.3383 284.912C97.1996 285.125 97.1303 285.371 97.1303 285.648C97.1303 285.936 97.1943 286.187 97.3223 286.4C97.4609 286.603 97.6583 286.763 97.9143 286.88C98.1703 286.997 98.4849 287.056 98.8583 287.056ZM104.713 288V279.968H105.929L106.009 281.376C106.265 280.875 106.628 280.485 107.097 280.208C107.577 279.92 108.121 279.776 108.729 279.776C109.359 279.776 109.903 279.899 110.361 280.144C110.82 280.389 111.177 280.768 111.433 281.28C111.689 281.792 111.817 282.437 111.817 283.216V288H110.473V283.36C110.473 282.549 110.297 281.941 109.945 281.536C109.593 281.131 109.087 280.928 108.425 280.928C107.977 280.928 107.572 281.04 107.209 281.264C106.857 281.477 106.575 281.792 106.361 282.208C106.159 282.624 106.057 283.131 106.057 283.728V288H104.713ZM117.469 288.192C116.691 288.192 116.003 288.011 115.405 287.648C114.819 287.275 114.36 286.773 114.029 286.144C113.709 285.504 113.549 284.779 113.549 283.968C113.549 283.157 113.709 282.437 114.029 281.808C114.36 281.179 114.819 280.683 115.405 280.32C116.003 279.957 116.696 279.776 117.485 279.776C118.136 279.776 118.712 279.909 119.213 280.176C119.715 280.443 120.099 280.816 120.365 281.296V276.48H121.709V288H120.493L120.365 286.688C120.195 286.944 119.976 287.189 119.709 287.424C119.453 287.648 119.139 287.835 118.765 287.984C118.392 288.123 117.96 288.192 117.469 288.192ZM117.613 287.024C118.147 287.024 118.616 286.901 119.021 286.656C119.437 286.4 119.757 286.043 119.981 285.584C120.205 285.125 120.317 284.592 120.317 283.984C120.317 283.376 120.205 282.843 119.981 282.384C119.757 281.925 119.437 281.573 119.021 281.328C118.616 281.072 118.147 280.944 117.613 280.944C117.101 280.944 116.637 281.072 116.221 281.328C115.816 281.573 115.496 281.925 115.261 282.384C115.037 282.843 114.925 283.376 114.925 283.984C114.925 284.592 115.037 285.125 115.261 285.584C115.496 286.043 115.816 286.4 116.221 286.656C116.637 286.901 117.101 287.024 117.613 287.024ZM128.263 288V276.8H129.607V288H128.263ZM135.485 288.192C134.706 288.192 134.018 288.011 133.421 287.648C132.834 287.275 132.376 286.773 132.045 286.144C131.725 285.504 131.565 284.779 131.565 283.968C131.565 283.157 131.725 282.437 132.045 281.808C132.376 281.179 132.834 280.683 133.421 280.32C134.018 279.957 134.712 279.776 135.501 279.776C136.152 279.776 136.728 279.909 137.229 280.176C137.73 280.443 138.114 280.816 138.381 281.296V276.48H139.725V288H138.509L138.381 286.688C138.21 286.944 137.992 287.189 137.725 287.424C137.469 287.648 137.154 287.835 136.781 287.984C136.408 288.123 135.976 288.192 135.485 288.192ZM135.629 287.024C136.162 287.024 136.632 286.901 137.037 286.656C137.453 286.4 137.773 286.043 137.997 285.584C138.221 285.125 138.333 284.592 138.333 283.984C138.333 283.376 138.221 282.843 137.997 282.384C137.773 281.925 137.453 281.573 137.037 281.328C136.632 281.072 136.162 280.944 135.629 280.944C135.117 280.944 134.653 281.072 134.237 281.328C133.832 281.573 133.512 281.925 133.277 282.384C133.053 282.843 132.941 283.376 132.941 283.984C132.941 284.592 133.053 285.125 133.277 285.584C133.512 286.043 133.832 286.4 134.237 286.656C134.653 286.901 135.117 287.024 135.629 287.024ZM145.484 288.192C144.737 288.192 144.071 288.016 143.484 287.664C142.897 287.312 142.433 286.821 142.092 286.192C141.761 285.563 141.596 284.827 141.596 283.984C141.596 283.131 141.761 282.395 142.092 281.776C142.423 281.147 142.881 280.656 143.468 280.304C144.065 279.952 144.748 279.776 145.516 279.776C146.305 279.776 146.977 279.952 147.532 280.304C148.087 280.656 148.508 281.115 148.796 281.68C149.095 282.245 149.244 282.869 149.244 283.552C149.244 283.659 149.244 283.771 149.244 283.888C149.244 284.005 149.239 284.139 149.228 284.288H142.604V283.248H147.916C147.884 282.512 147.639 281.941 147.18 281.536C146.732 281.12 146.167 280.912 145.484 280.912C145.036 280.912 144.615 281.019 144.22 281.232C143.825 281.435 143.505 281.733 143.26 282.128C143.025 282.523 142.908 283.019 142.908 283.616V284.064C142.908 284.725 143.031 285.28 143.276 285.728C143.521 286.165 143.836 286.496 144.22 286.72C144.615 286.944 145.036 287.056 145.484 287.056C146.049 287.056 146.513 286.933 146.876 286.688C147.249 286.432 147.521 286.085 147.692 285.648H149.02C148.881 286.139 148.652 286.576 148.332 286.96C148.012 287.333 147.612 287.632 147.132 287.856C146.663 288.08 146.113 288.192 145.484 288.192ZM151.026 288V279.968H152.242L152.322 281.376C152.578 280.875 152.941 280.485 153.41 280.208C153.89 279.92 154.434 279.776 155.042 279.776C155.671 279.776 156.215 279.899 156.674 280.144C157.133 280.389 157.49 280.768 157.746 281.28C158.002 281.792 158.13 282.437 158.13 283.216V288H156.786V283.36C156.786 282.549 156.61 281.941 156.258 281.536C155.906 281.131 155.399 280.928 154.738 280.928C154.29 280.928 153.885 281.04 153.522 281.264C153.17 281.477 152.887 281.792 152.674 282.208C152.471 282.624 152.37 283.131 152.37 283.728V288H151.026ZM163.366 288C162.886 288 162.47 287.925 162.118 287.776C161.766 287.627 161.494 287.376 161.302 287.024C161.12 286.661 161.03 286.176 161.03 285.568V281.104H159.638V279.968H161.03L161.206 278.032H162.374V279.968H164.726V281.104H162.374V285.568C162.374 286.069 162.475 286.411 162.678 286.592C162.88 286.763 163.238 286.848 163.75 286.848H164.614V288H163.366ZM166.592 288V279.968H167.936V288H166.592ZM167.264 278.24C166.997 278.24 166.773 278.155 166.592 277.984C166.421 277.803 166.336 277.579 166.336 277.312C166.336 277.045 166.421 276.832 166.592 276.672C166.773 276.501 166.997 276.416 167.264 276.416C167.52 276.416 167.738 276.501 167.92 276.672C168.101 276.832 168.192 277.045 168.192 277.312C168.192 277.579 168.101 277.803 167.92 277.984C167.738 278.155 167.52 278.24 167.264 278.24ZM173.444 288C172.964 288 172.548 287.925 172.196 287.776C171.844 287.627 171.572 287.376 171.38 287.024C171.199 286.661 171.108 286.176 171.108 285.568V281.104H169.716V279.968H171.108L171.284 278.032H172.452V279.968H174.804V281.104H172.452V285.568C172.452 286.069 172.553 286.411 172.756 286.592C172.959 286.763 173.316 286.848 173.828 286.848H174.692V288H173.444ZM177.406 291.52L179.374 287.104H178.91L175.758 279.968H177.214L179.838 286.096L182.606 279.968H183.998L178.814 291.52H177.406ZM189.763 288V276.8H193.091C194.392 276.8 195.469 277.029 196.323 277.488C197.176 277.936 197.805 278.581 198.211 279.424C198.627 280.256 198.835 281.259 198.835 282.432C198.835 283.584 198.627 284.576 198.211 285.408C197.805 286.24 197.176 286.88 196.323 287.328C195.469 287.776 194.392 288 193.091 288H189.763ZM191.107 286.88H193.059C194.136 286.88 194.995 286.704 195.635 286.352C196.285 285.989 196.749 285.477 197.027 284.816C197.304 284.144 197.443 283.349 197.443 282.432C197.443 281.493 197.304 280.688 197.027 280.016C196.749 279.344 196.285 278.827 195.635 278.464C194.995 278.101 194.136 277.92 193.059 277.92H191.107V286.88ZM204.265 288.192C203.519 288.192 202.852 288.016 202.265 287.664C201.679 287.312 201.215 286.821 200.873 286.192C200.543 285.563 200.377 284.827 200.377 283.984C200.377 283.131 200.543 282.395 200.873 281.776C201.204 281.147 201.663 280.656 202.249 280.304C202.847 279.952 203.529 279.776 204.297 279.776C205.087 279.776 205.759 279.952 206.313 280.304C206.868 280.656 207.289 281.115 207.577 281.68C207.876 282.245 208.025 282.869 208.025 283.552C208.025 283.659 208.025 283.771 208.025 283.888C208.025 284.005 208.02 284.139 208.009 284.288H201.385V283.248H206.697C206.665 282.512 206.42 281.941 205.961 281.536C205.513 281.12 204.948 280.912 204.265 280.912C203.817 280.912 203.396 281.019 203.001 281.232C202.607 281.435 202.287 281.733 202.041 282.128C201.807 282.523 201.689 283.019 201.689 283.616V284.064C201.689 284.725 201.812 285.28 202.057 285.728C202.303 286.165 202.617 286.496 203.001 286.72C203.396 286.944 203.817 287.056 204.265 287.056C204.831 287.056 205.295 286.933 205.657 286.688C206.031 286.432 206.303 286.085 206.473 285.648H207.801C207.663 286.139 207.433 286.576 207.113 286.96C206.793 287.333 206.393 287.632 205.913 287.856C205.444 288.08 204.895 288.192 204.265 288.192ZM212.847 288.192C212.196 288.192 211.62 288.085 211.119 287.872C210.618 287.648 210.218 287.333 209.919 286.928C209.631 286.523 209.45 286.048 209.375 285.504H210.751C210.815 285.781 210.932 286.043 211.103 286.288C211.274 286.523 211.503 286.709 211.791 286.848C212.09 286.987 212.447 287.056 212.863 287.056C213.247 287.056 213.562 287.003 213.807 286.896C214.052 286.779 214.234 286.624 214.351 286.432C214.468 286.24 214.527 286.032 214.527 285.808C214.527 285.488 214.447 285.243 214.287 285.072C214.138 284.901 213.914 284.768 213.615 284.672C213.316 284.565 212.959 284.475 212.543 284.4C212.191 284.336 211.844 284.251 211.503 284.144C211.172 284.037 210.874 283.899 210.607 283.728C210.34 283.557 210.127 283.344 209.967 283.088C209.807 282.821 209.727 282.507 209.727 282.144C209.727 281.685 209.844 281.28 210.079 280.928C210.324 280.565 210.66 280.283 211.087 280.08C211.524 279.877 212.042 279.776 212.639 279.776C213.492 279.776 214.186 279.984 214.719 280.4C215.263 280.816 215.578 281.419 215.663 282.208H214.335C214.292 281.803 214.122 281.488 213.823 281.264C213.524 281.029 213.124 280.912 212.623 280.912C212.122 280.912 211.738 281.013 211.471 281.216C211.215 281.419 211.087 281.685 211.087 282.016C211.087 282.229 211.156 282.416 211.295 282.576C211.444 282.736 211.663 282.875 211.951 282.992C212.239 283.099 212.586 283.195 212.991 283.28C213.514 283.376 213.994 283.504 214.431 283.664C214.868 283.824 215.22 284.059 215.487 284.368C215.764 284.677 215.903 285.12 215.903 285.696C215.914 286.197 215.791 286.635 215.535 287.008C215.29 287.381 214.938 287.675 214.479 287.888C214.02 288.091 213.476 288.192 212.847 288.192ZM217.982 288V279.968H219.326V288H217.982ZM218.654 278.24C218.388 278.24 218.164 278.155 217.982 277.984C217.812 277.803 217.726 277.579 217.726 277.312C217.726 277.045 217.812 276.832 217.982 276.672C218.164 276.501 218.388 276.416 218.654 276.416C218.91 276.416 219.129 276.501 219.31 276.672C219.492 276.832 219.582 277.045 219.582 277.312C219.582 277.579 219.492 277.803 219.31 277.984C219.129 278.155 218.91 278.24 218.654 278.24ZM224.851 291.712C224.125 291.712 223.485 291.616 222.931 291.424C222.376 291.243 221.944 290.96 221.635 290.576C221.325 290.192 221.171 289.717 221.171 289.152C221.171 288.907 221.219 288.645 221.315 288.368C221.421 288.101 221.597 287.835 221.843 287.568C222.099 287.301 222.456 287.061 222.914 286.848L223.827 287.392C223.272 287.627 222.909 287.893 222.739 288.192C222.568 288.491 222.483 288.768 222.483 289.024C222.483 289.376 222.584 289.669 222.787 289.904C222.989 290.139 223.267 290.315 223.619 290.432C223.981 290.549 224.392 290.608 224.851 290.608C225.309 290.608 225.704 290.539 226.035 290.4C226.365 290.272 226.621 290.091 226.803 289.856C226.984 289.632 227.075 289.36 227.075 289.04C227.075 288.677 226.936 288.368 226.659 288.112C226.381 287.867 225.859 287.723 225.091 287.68C224.451 287.637 223.917 287.579 223.491 287.504C223.075 287.429 222.728 287.344 222.451 287.248C222.173 287.141 221.939 287.024 221.747 286.896C221.565 286.768 221.4 286.635 221.251 286.496V286.128L222.803 284.576L223.971 284.992L222.371 286.448L222.579 285.888C222.696 285.973 222.808 286.053 222.914 286.128C223.021 286.192 223.165 286.251 223.347 286.304C223.528 286.357 223.779 286.411 224.099 286.464C224.419 286.507 224.851 286.549 225.395 286.592C226.12 286.645 226.701 286.773 227.139 286.976C227.587 287.179 227.907 287.451 228.099 287.792C228.301 288.133 228.403 288.533 228.403 288.992C228.403 289.451 228.275 289.883 228.019 290.288C227.773 290.704 227.389 291.045 226.867 291.312C226.344 291.579 225.672 291.712 224.851 291.712ZM224.835 285.472C224.163 285.472 223.592 285.349 223.123 285.104C222.653 284.848 222.296 284.507 222.051 284.08C221.805 283.643 221.683 283.157 221.683 282.624C221.683 282.091 221.805 281.611 222.051 281.184C222.296 280.757 222.653 280.416 223.123 280.16C223.592 279.904 224.163 279.776 224.835 279.776C225.517 279.776 226.093 279.904 226.563 280.16C227.032 280.416 227.389 280.757 227.635 281.184C227.88 281.611 228.003 282.091 228.003 282.624C228.003 283.157 227.88 283.643 227.635 284.08C227.389 284.507 227.032 284.848 226.563 285.104C226.093 285.349 225.517 285.472 224.835 285.472ZM224.835 284.368C225.411 284.368 225.864 284.224 226.195 283.936C226.536 283.637 226.707 283.2 226.707 282.624C226.707 282.069 226.536 281.643 226.195 281.344C225.864 281.045 225.411 280.896 224.835 280.896C224.269 280.896 223.816 281.045 223.475 281.344C223.133 281.643 222.963 282.069 222.963 282.624C222.963 283.2 223.133 283.637 223.475 283.936C223.816 284.224 224.269 284.368 224.835 284.368ZM226.147 281.104L225.747 279.968H229.043V280.976L226.147 281.104ZM230.573 288V279.968H231.789L231.869 281.376C232.125 280.875 232.487 280.485 232.957 280.208C233.437 279.92 233.981 279.776 234.589 279.776C235.218 279.776 235.762 279.899 236.221 280.144C236.679 280.389 237.037 280.768 237.293 281.28C237.549 281.792 237.677 282.437 237.677 283.216V288H236.333V283.36C236.333 282.549 236.157 281.941 235.805 281.536C235.453 281.131 234.946 280.928 234.285 280.928C233.837 280.928 233.431 281.04 233.069 281.264C232.717 281.477 232.434 281.792 232.221 282.208C232.018 282.624 231.917 283.131 231.917 283.728V288H230.573ZM243.297 288.192C242.55 288.192 241.883 288.016 241.297 287.664C240.71 287.312 240.246 286.821 239.905 286.192C239.574 285.563 239.409 284.827 239.409 283.984C239.409 283.131 239.574 282.395 239.905 281.776C240.235 281.147 240.694 280.656 241.281 280.304C241.878 279.952 242.561 279.776 243.329 279.776C244.118 279.776 244.79 279.952 245.345 280.304C245.899 280.656 246.321 281.115 246.609 281.68C246.907 282.245 247.057 282.869 247.057 283.552C247.057 283.659 247.057 283.771 247.057 283.888C247.057 284.005 247.051 284.139 247.041 284.288H240.417V283.248H245.729C245.697 282.512 245.451 281.941 244.993 281.536C244.545 281.12 243.979 280.912 243.297 280.912C242.849 280.912 242.427 281.019 242.033 281.232C241.638 281.435 241.318 281.733 241.073 282.128C240.838 282.523 240.721 283.019 240.721 283.616V284.064C240.721 284.725 240.843 285.28 241.089 285.728C241.334 286.165 241.649 286.496 242.033 286.72C242.427 286.944 242.849 287.056 243.297 287.056C243.862 287.056 244.326 286.933 244.689 286.688C245.062 286.432 245.334 286.085 245.505 285.648H246.833C246.694 286.139 246.465 286.576 246.145 286.96C245.825 287.333 245.425 287.632 244.945 287.856C244.475 288.08 243.926 288.192 243.297 288.192ZM248.838 288V279.968H250.054L250.166 281.504C250.348 281.141 250.577 280.832 250.854 280.576C251.142 280.32 251.484 280.123 251.878 279.984C252.273 279.845 252.721 279.776 253.222 279.776V281.184H252.758C252.417 281.184 252.092 281.232 251.782 281.328C251.473 281.413 251.196 281.557 250.95 281.76C250.716 281.952 250.529 282.224 250.39 282.576C250.252 282.928 250.182 283.36 250.182 283.872V288H248.838Z" fill="white"/>
</g>
</g>
</g>
<path d="M995 124C995 172.049 956.049 211 908 211C859.951 211 821 172.049 821 124C821 75.9512 859.951 37 908 37C956.049 37 995 75.9512 995 124ZM829.418 124C829.418 167.4 864.6 202.582 908 202.582C951.4 202.582 986.582 167.4 986.582 124C986.582 80.6004 951.4 45.418 908 45.418C864.6 45.418 829.418 80.6004 829.418 124Z" fill="#3A3A3A"/>
<g filter="url(#filter18_d_203_2534)">
<path d="M995 124C995 111.555 992.33 99.2541 987.17 87.9289C982.01 76.6036 974.48 66.5172 965.089 58.3506C955.698 50.184 944.664 44.1273 932.732 40.5894C920.8 37.0515 908.248 36.1147 895.923 37.8423C883.598 39.5699 871.788 43.9216 861.288 50.6038C850.789 57.2859 841.845 66.1428 835.061 76.5767C828.278 87.0106 823.811 98.7785 821.964 111.086C820.116 123.393 820.931 135.954 824.353 147.92L832.446 145.605C829.356 134.797 828.62 123.452 830.289 112.336C831.957 101.219 835.991 90.5896 842.119 81.1653C848.246 71.741 856.325 63.741 865.808 57.7055C875.291 51.6699 885.959 47.7392 897.092 46.1788C908.224 44.6184 919.562 45.4645 930.339 48.6601C941.116 51.8557 951.083 57.3264 959.565 64.7028C968.048 72.0792 974.849 81.1896 979.51 91.4191C984.17 101.649 986.582 112.759 986.582 124H995Z" fill="white"/>
</g>
<g filter="url(#filter19_d_203_2534)">
<path d="M893.24 131.24C892.28 131.24 891.447 131.067 890.74 130.72C890.033 130.36 889.473 129.88 889.06 129.28C888.647 128.68 888.393 128 888.3 127.24H889.94C890.087 128.013 890.453 128.633 891.04 129.1C891.627 129.567 892.367 129.8 893.26 129.8C893.913 129.8 894.48 129.647 894.96 129.34C895.44 129.02 895.807 128.593 896.06 128.06C896.327 127.527 896.46 126.933 896.46 126.28C896.46 125.6 896.327 125 896.06 124.48C895.793 123.96 895.427 123.553 894.96 123.26C894.493 122.967 893.947 122.82 893.32 122.82C892.547 122.82 891.887 122.993 891.34 123.34C890.807 123.673 890.407 124.113 890.14 124.66H888.54L889.72 117H897.08V118.46H891.02L890.22 122.74C890.553 122.353 891 122.033 891.56 121.78C892.12 121.527 892.767 121.4 893.5 121.4C894.193 121.4 894.813 121.527 895.36 121.78C895.92 122.02 896.4 122.36 896.8 122.8C897.213 123.24 897.527 123.76 897.74 124.36C897.967 124.947 898.08 125.58 898.08 126.26C898.08 126.94 897.973 127.58 897.76 128.18C897.547 128.78 897.227 129.313 896.8 129.78C896.387 130.233 895.88 130.593 895.28 130.86C894.68 131.113 894 131.24 893.24 131.24ZM907.067 131V128H899.967V126.7L906.767 117H908.727V126.52H910.807V128H908.727V131H907.067ZM901.827 126.52H907.147V118.86L901.827 126.52ZM914.097 131L922.237 117H923.917L915.777 131H914.097ZM922.857 131.24C922.257 131.24 921.717 131.107 921.237 130.84C920.757 130.56 920.371 130.167 920.077 129.66C919.797 129.153 919.657 128.56 919.657 127.88C919.657 127.187 919.797 126.593 920.077 126.1C920.371 125.593 920.757 125.207 921.237 124.94C921.717 124.66 922.257 124.52 922.857 124.52C923.471 124.52 924.011 124.66 924.477 124.94C924.957 125.207 925.337 125.593 925.617 126.1C925.897 126.593 926.037 127.187 926.037 127.88C926.037 128.56 925.897 129.153 925.617 129.66C925.337 130.167 924.957 130.56 924.477 130.84C923.997 131.107 923.457 131.24 922.857 131.24ZM922.837 129.94C923.157 129.94 923.451 129.867 923.717 129.72C923.984 129.56 924.197 129.327 924.357 129.02C924.531 128.713 924.617 128.333 924.617 127.88C924.617 127.413 924.537 127.027 924.377 126.72C924.217 126.413 924.004 126.187 923.737 126.04C923.471 125.88 923.177 125.8 922.857 125.8C922.551 125.8 922.257 125.88 921.977 126.04C921.711 126.187 921.491 126.413 921.317 126.72C921.157 127.027 921.077 127.413 921.077 127.88C921.077 128.333 921.157 128.713 921.317 129.02C921.491 129.327 921.711 129.56 921.977 129.72C922.244 129.867 922.531 129.94 922.837 129.94ZM915.297 123.5C914.697 123.5 914.157 123.367 913.677 123.1C913.197 122.82 912.811 122.427 912.517 121.92C912.237 121.413 912.097 120.82 912.097 120.14C912.097 119.447 912.237 118.853 912.517 118.36C912.811 117.853 913.197 117.467 913.677 117.2C914.171 116.92 914.717 116.78 915.317 116.78C915.917 116.78 916.457 116.92 916.937 117.2C917.417 117.467 917.797 117.853 918.077 118.36C918.357 118.853 918.497 119.447 918.497 120.14C918.497 120.82 918.357 121.413 918.077 121.92C917.797 122.427 917.411 122.82 916.917 123.1C916.437 123.367 915.897 123.5 915.297 123.5ZM915.297 122.2C915.617 122.2 915.911 122.127 916.177 121.98C916.444 121.82 916.657 121.587 916.817 121.28C916.977 120.973 917.057 120.593 917.057 120.14C917.057 119.673 916.977 119.287 916.817 118.98C916.657 118.66 916.444 118.427 916.177 118.28C915.911 118.12 915.624 118.04 915.317 118.04C915.011 118.04 914.717 118.12 914.437 118.28C914.157 118.427 913.931 118.66 913.757 118.98C913.597 119.287 913.517 119.673 913.517 120.14C913.517 120.593 913.597 120.973 913.757 121.28C913.931 121.587 914.151 121.82 914.417 121.98C914.697 122.127 914.991 122.2 915.297 122.2Z" fill="white"/>
</g>
<g filter="url(#filter20_d_203_2534)">
<g clip-path="url(#clip3_203_2534)">
<rect x="792" y="248" width="232" height="69" rx="19" fill="#242323"/>
<g filter="url(#filter21_f_203_2534)">
<circle cx="814.5" cy="302.5" r="40.5" fill="white"/>
</g>
<g filter="url(#filter22_f_203_2534)">
<circle cx="975.5" cy="274.5" r="68.5" fill="white"/>
</g>
<rect x="798" y="253" width="220" height="60" rx="15" fill="url(#paint3_linear_203_2534)"/>
<g filter="url(#filter23_d_203_2534)">
<path d="M830.591 288V276.8H837.407V277.904H831.935V281.84H836.591V282.928H831.935V288H830.591ZM839.057 288V279.968H840.273L840.385 281.504C840.566 281.141 840.796 280.832 841.073 280.576C841.361 280.32 841.702 280.123 842.097 279.984C842.492 279.845 842.94 279.776 843.441 279.776V281.184H842.977C842.636 281.184 842.31 281.232 842.001 281.328C841.692 281.413 841.414 281.557 841.169 281.76C840.934 281.952 840.748 282.224 840.609 282.576C840.47 282.928 840.401 283.36 840.401 283.872V288H839.057ZM848.267 288.192C847.52 288.192 846.848 288.021 846.251 287.68C845.654 287.328 845.179 286.837 844.827 286.208C844.486 285.579 844.315 284.837 844.315 283.984C844.315 283.131 844.491 282.389 844.843 281.76C845.195 281.131 845.67 280.645 846.267 280.304C846.875 279.952 847.552 279.776 848.299 279.776C849.056 279.776 849.734 279.952 850.331 280.304C850.928 280.645 851.398 281.131 851.739 281.76C852.08 282.389 852.251 283.131 852.251 283.984C852.251 284.837 852.075 285.579 851.723 286.208C851.382 286.837 850.907 287.328 850.299 287.68C849.702 288.021 849.024 288.192 848.267 288.192ZM848.267 287.04C848.736 287.04 849.168 286.928 849.563 286.704C849.958 286.469 850.272 286.128 850.507 285.68C850.752 285.221 850.875 284.656 850.875 283.984C850.875 283.301 850.758 282.736 850.523 282.288C850.288 281.84 849.974 281.504 849.579 281.28C849.184 281.045 848.758 280.928 848.299 280.928C847.851 280.928 847.424 281.045 847.019 281.28C846.624 281.504 846.304 281.84 846.059 282.288C845.814 282.736 845.691 283.301 845.691 283.984C845.691 284.656 845.814 285.221 846.059 285.68C846.304 286.128 846.619 286.469 847.003 286.704C847.398 286.928 847.819 287.04 848.267 287.04ZM854.135 288V279.968H855.351L855.431 281.376C855.687 280.875 856.05 280.485 856.519 280.208C856.999 279.92 857.543 279.776 858.151 279.776C858.781 279.776 859.325 279.899 859.783 280.144C860.242 280.389 860.599 280.768 860.855 281.28C861.111 281.792 861.239 282.437 861.239 283.216V288H859.895V283.36C859.895 282.549 859.719 281.941 859.367 281.536C859.015 281.131 858.509 280.928 857.847 280.928C857.399 280.928 856.994 281.04 856.631 281.264C856.279 281.477 855.997 281.792 855.783 282.208C855.581 282.624 855.479 283.131 855.479 283.728V288H854.135ZM866.475 288C865.995 288 865.579 287.925 865.227 287.776C864.875 287.627 864.603 287.376 864.411 287.024C864.23 286.661 864.139 286.176 864.139 285.568V281.104H862.747V279.968H864.139L864.315 278.032H865.483V279.968H867.835V281.104H865.483V285.568C865.483 286.069 865.584 286.411 865.787 286.592C865.99 286.763 866.347 286.848 866.859 286.848H867.723V288H866.475ZM869.621 283.856V282.72H875.957V283.856H869.621ZM878.309 288V276.8H885.237V277.904H879.653V281.808H884.757V282.896H879.653V286.896H885.237V288H878.309ZM887.26 288V279.968H888.476L888.556 281.376C888.812 280.875 889.175 280.485 889.644 280.208C890.124 279.92 890.668 279.776 891.276 279.776C891.906 279.776 892.45 279.899 892.908 280.144C893.367 280.389 893.724 280.768 893.98 281.28C894.236 281.792 894.364 282.437 894.364 283.216V288H893.02V283.36C893.02 282.549 892.844 281.941 892.492 281.536C892.14 281.131 891.634 280.928 890.972 280.928C890.524 280.928 890.119 281.04 889.756 281.264C889.404 281.477 889.122 281.792 888.908 282.208C888.706 282.624 888.604 283.131 888.604 283.728V288H887.26ZM900.016 288.192C899.237 288.192 898.549 288.011 897.952 287.648C897.365 287.275 896.907 286.773 896.576 286.144C896.256 285.504 896.096 284.779 896.096 283.968C896.096 283.157 896.256 282.437 896.576 281.808C896.907 281.179 897.365 280.683 897.952 280.32C898.549 279.957 899.243 279.776 900.032 279.776C900.683 279.776 901.259 279.909 901.76 280.176C902.261 280.443 902.645 280.816 902.912 281.296V276.48H904.256V288H903.04L902.912 286.688C902.741 286.944 902.523 287.189 902.256 287.424C902 287.648 901.685 287.835 901.312 287.984C900.939 288.123 900.507 288.192 900.016 288.192ZM900.16 287.024C900.693 287.024 901.163 286.901 901.568 286.656C901.984 286.4 902.304 286.043 902.528 285.584C902.752 285.125 902.864 284.592 902.864 283.984C902.864 283.376 902.752 282.843 902.528 282.384C902.304 281.925 901.984 281.573 901.568 281.328C901.163 281.072 900.693 280.944 900.16 280.944C899.648 280.944 899.184 281.072 898.768 281.328C898.363 281.573 898.043 281.925 897.808 282.384C897.584 282.843 897.472 283.376 897.472 283.984C897.472 284.592 897.584 285.125 897.808 285.584C898.043 286.043 898.363 286.4 898.768 286.656C899.184 286.901 899.648 287.024 900.16 287.024ZM910.809 288V276.8H914.137C915.439 276.8 916.516 277.029 917.369 277.488C918.223 277.936 918.852 278.581 919.257 279.424C919.673 280.256 919.881 281.259 919.881 282.432C919.881 283.584 919.673 284.576 919.257 285.408C918.852 286.24 918.223 286.88 917.369 287.328C916.516 287.776 915.439 288 914.137 288H910.809ZM912.153 286.88H914.105C915.183 286.88 916.041 286.704 916.681 286.352C917.332 285.989 917.796 285.477 918.073 284.816C918.351 284.144 918.489 283.349 918.489 282.432C918.489 281.493 918.351 280.688 918.073 280.016C917.796 279.344 917.332 278.827 916.681 278.464C916.041 278.101 915.183 277.92 914.105 277.92H912.153V286.88ZM925.312 288.192C924.566 288.192 923.899 288.016 923.312 287.664C922.726 287.312 922.262 286.821 921.92 286.192C921.59 285.563 921.424 284.827 921.424 283.984C921.424 283.131 921.59 282.395 921.92 281.776C922.251 281.147 922.71 280.656 923.296 280.304C923.894 279.952 924.576 279.776 925.344 279.776C926.134 279.776 926.806 279.952 927.36 280.304C927.915 280.656 928.336 281.115 928.624 281.68C928.923 282.245 929.072 282.869 929.072 283.552C929.072 283.659 929.072 283.771 929.072 283.888C929.072 284.005 929.067 284.139 929.056 284.288H922.432V283.248H927.744C927.712 282.512 927.467 281.941 927.008 281.536C926.56 281.12 925.995 280.912 925.312 280.912C924.864 280.912 924.443 281.019 924.048 281.232C923.654 281.435 923.334 281.733 923.088 282.128C922.854 282.523 922.736 283.019 922.736 283.616V284.064C922.736 284.725 922.859 285.28 923.104 285.728C923.35 286.165 923.664 286.496 924.048 286.72C924.443 286.944 924.864 287.056 925.312 287.056C925.878 287.056 926.342 286.933 926.704 286.688C927.078 286.432 927.35 286.085 927.52 285.648H928.848C928.71 286.139 928.48 286.576 928.16 286.96C927.84 287.333 927.44 287.632 926.96 287.856C926.491 288.08 925.942 288.192 925.312 288.192ZM932.862 288L929.822 279.968H931.23L933.646 286.704L936.094 279.968H937.47L934.414 288H932.862ZM942.109 288.192C941.362 288.192 940.696 288.016 940.109 287.664C939.522 287.312 939.058 286.821 938.717 286.192C938.386 285.563 938.221 284.827 938.221 283.984C938.221 283.131 938.386 282.395 938.717 281.776C939.048 281.147 939.506 280.656 940.093 280.304C940.69 279.952 941.373 279.776 942.141 279.776C942.93 279.776 943.602 279.952 944.157 280.304C944.712 280.656 945.133 281.115 945.421 281.68C945.72 282.245 945.869 282.869 945.869 283.552C945.869 283.659 945.869 283.771 945.869 283.888C945.869 284.005 945.864 284.139 945.853 284.288H939.229V283.248H944.541C944.509 282.512 944.264 281.941 943.805 281.536C943.357 281.12 942.792 280.912 942.109 280.912C941.661 280.912 941.24 281.019 940.845 281.232C940.45 281.435 940.13 281.733 939.885 282.128C939.65 282.523 939.533 283.019 939.533 283.616V284.064C939.533 284.725 939.656 285.28 939.901 285.728C940.146 286.165 940.461 286.496 940.845 286.72C941.24 286.944 941.661 287.056 942.109 287.056C942.674 287.056 943.138 286.933 943.501 286.688C943.874 286.432 944.146 286.085 944.317 285.648H945.645C945.506 286.139 945.277 286.576 944.957 286.96C944.637 287.333 944.237 287.632 943.757 287.856C943.288 288.08 942.738 288.192 942.109 288.192ZM947.651 288V276.48H948.995V288H947.651ZM954.829 288.192C954.083 288.192 953.411 288.021 952.813 287.68C952.216 287.328 951.741 286.837 951.389 286.208C951.048 285.579 950.877 284.837 950.877 283.984C950.877 283.131 951.053 282.389 951.405 281.76C951.757 281.131 952.232 280.645 952.829 280.304C953.437 279.952 954.115 279.776 954.861 279.776C955.619 279.776 956.296 279.952 956.893 280.304C957.491 280.645 957.96 281.131 958.301 281.76C958.643 282.389 958.813 283.131 958.813 283.984C958.813 284.837 958.637 285.579 958.285 286.208C957.944 286.837 957.469 287.328 956.861 287.68C956.264 288.021 955.587 288.192 954.829 288.192ZM954.829 287.04C955.299 287.04 955.731 286.928 956.125 286.704C956.52 286.469 956.835 286.128 957.069 285.68C957.315 285.221 957.437 284.656 957.437 283.984C957.437 283.301 957.32 282.736 957.085 282.288C956.851 281.84 956.536 281.504 956.141 281.28C955.747 281.045 955.32 280.928 954.861 280.928C954.413 280.928 953.987 281.045 953.581 281.28C953.187 281.504 952.867 281.84 952.621 282.288C952.376 282.736 952.253 283.301 952.253 283.984C952.253 284.656 952.376 285.221 952.621 285.68C952.867 286.128 953.181 286.469 953.565 286.704C953.96 286.928 954.381 287.04 954.829 287.04ZM960.698 291.52V279.968H961.914L962.042 281.28C962.212 281.024 962.431 280.784 962.698 280.56C962.964 280.325 963.284 280.139 963.658 280C964.031 279.851 964.463 279.776 964.954 279.776C965.732 279.776 966.41 279.963 966.986 280.336C967.572 280.699 968.026 281.2 968.346 281.84C968.676 282.469 968.842 283.189 968.842 284C968.842 284.811 968.676 285.531 968.346 286.16C968.026 286.789 967.572 287.285 966.986 287.648C966.399 288.011 965.716 288.192 964.938 288.192C964.287 288.192 963.711 288.059 963.21 287.792C962.708 287.525 962.319 287.152 962.042 286.672V291.52H960.698ZM964.778 287.024C965.311 287.024 965.78 286.901 966.186 286.656C966.591 286.4 966.906 286.043 967.13 285.584C967.364 285.125 967.482 284.592 967.482 283.984C967.482 283.376 967.364 282.843 967.13 282.384C966.906 281.925 966.591 281.573 966.186 281.328C965.78 281.072 965.311 280.944 964.778 280.944C964.244 280.944 963.775 281.072 963.37 281.328C962.964 281.573 962.65 281.925 962.426 282.384C962.202 282.843 962.09 283.376 962.09 283.984C962.09 284.592 962.202 285.125 962.426 285.584C962.65 286.043 962.964 286.4 963.37 286.656C963.775 286.901 964.244 287.024 964.778 287.024ZM974.281 288.192C973.534 288.192 972.868 288.016 972.281 287.664C971.694 287.312 971.23 286.821 970.889 286.192C970.558 285.563 970.393 284.827 970.393 283.984C970.393 283.131 970.558 282.395 970.889 281.776C971.22 281.147 971.678 280.656 972.265 280.304C972.862 279.952 973.545 279.776 974.313 279.776C975.102 279.776 975.774 279.952 976.329 280.304C976.884 280.656 977.305 281.115 977.593 281.68C977.892 282.245 978.041 282.869 978.041 283.552C978.041 283.659 978.041 283.771 978.041 283.888C978.041 284.005 978.036 284.139 978.025 284.288H971.401V283.248H976.713C976.681 282.512 976.436 281.941 975.977 281.536C975.529 281.12 974.964 280.912 974.281 280.912C973.833 280.912 973.412 281.019 973.017 281.232C972.622 281.435 972.302 281.733 972.057 282.128C971.822 282.523 971.705 283.019 971.705 283.616V284.064C971.705 284.725 971.828 285.28 972.073 285.728C972.318 286.165 972.633 286.496 973.017 286.72C973.412 286.944 973.833 287.056 974.281 287.056C974.846 287.056 975.31 286.933 975.673 286.688C976.046 286.432 976.318 286.085 976.489 285.648H977.817C977.678 286.139 977.449 286.576 977.129 286.96C976.809 287.333 976.409 287.632 975.929 287.856C975.46 288.08 974.91 288.192 974.281 288.192ZM979.823 288V279.968H981.039L981.151 281.504C981.332 281.141 981.561 280.832 981.839 280.576C982.127 280.32 982.468 280.123 982.863 279.984C983.257 279.845 983.705 279.776 984.207 279.776V281.184H983.743C983.401 281.184 983.076 281.232 982.767 281.328C982.457 281.413 982.18 281.557 981.935 281.76C981.7 281.952 981.513 282.224 981.375 282.576C981.236 282.928 981.167 283.36 981.167 283.872V288H979.823Z" fill="white"/>
</g>
</g>
</g>
<defs>
<filter id="filter0_d_203_2534" x="316.6" y="26.6" width="194.8" height="194.8" filterUnits="userSpaceOnUse" color-interpolation-filters="sRGB">
<feFlood flood-opacity="0" result="BackgroundImageFix"/>
<feColorMatrix in="SourceAlpha" type="matrix" values="0 0 0 0 0 0 0 0 0 0 0 0 0 0 0 0 0 0 127 0" result="hardAlpha"/>
<feOffset/>
<feGaussianBlur stdDeviation="5.2"/>
<feComposite in2="hardAlpha" operator="out"/>
<feColorMatrix type="matrix" values="0 0 0 0 1 0 0 0 0 1 0 0 0 0 1 0 0 0 0.35 0"/>
<feBlend mode="normal" in2="BackgroundImageFix" result="effect1_dropShadow_203_2534"/>
<feBlend mode="normal" in="SourceGraphic" in2="effect1_dropShadow_203_2534" result="shape"/>
</filter>
<filter id="filter1_d_203_2534" x="388.742" y="111.26" width="49.1484" height="25.4805" filterUnits="userSpaceOnUse" color-interpolation-filters="sRGB">
<feFlood flood-opacity="0" result="BackgroundImageFix"/>
<feColorMatrix in="SourceAlpha" type="matrix" values="0 0 0 0 0 0 0 0 0 0 0 0 0 0 0 0 0 0 127 0" result="hardAlpha"/>
<feOffset/>
<feGaussianBlur stdDeviation="2.75"/>
<feComposite in2="hardAlpha" operator="out"/>
<feColorMatrix type="matrix" values="0 0 0 0 1 0 0 0 0 1 0 0 0 0 1 0 0 0 1 0"/>
<feBlend mode="normal" in2="BackgroundImageFix" result="effect1_dropShadow_203_2534"/>
<feBlend mode="normal" in="SourceGraphic" in2="effect1_dropShadow_203_2534" result="shape"/>
</filter>
<filter id="filter2_d_203_2534" x="276.6" y="226.6" width="274.8" height="111.8" filterUnits="userSpaceOnUse" color-interpolation-filters="sRGB">
<feFlood flood-opacity="0" result="BackgroundImageFix"/>
<feColorMatrix in="SourceAlpha" type="matrix" values="0 0 0 0 0 0 0 0 0 0 0 0 0 0 0 0 0 0 127 0" result="hardAlpha"/>
<feOffset/>
<feGaussianBlur stdDeviation="10.7"/>
<feComposite in2="hardAlpha" operator="out"/>
<feColorMatrix type="matrix" values="0 0 0 0 1 0 0 0 0 1 0 0 0 0 1 0 0 0 0.59 0"/>
<feBlend mode="normal" in2="BackgroundImageFix" result="effect1_dropShadow_203_2534"/>
<feBlend mode="normal" in="SourceGraphic" in2="effect1_dropShadow_203_2534" result="shape"/>
</filter>
<filter id="filter3_f_203_2534" x="258.6" y="240.6" width="123.8" height="123.8" filterUnits="userSpaceOnUse" color-interpolation-filters="sRGB">
<feFlood flood-opacity="0" result="BackgroundImageFix"/>
<feBlend mode="normal" in="SourceGraphic" in2="BackgroundImageFix" result="shape"/>
<feGaussianBlur stdDeviation="10.7" result="effect1_foregroundBlur_203_2534"/>
</filter>
<filter id="filter4_f_203_2534" x="391.6" y="184.6" width="179.8" height="179.8" filterUnits="userSpaceOnUse" color-interpolation-filters="sRGB">
<feFlood flood-opacity="0" result="BackgroundImageFix"/>
<feBlend mode="normal" in="SourceGraphic" in2="BackgroundImageFix" result="shape"/>
<feGaussianBlur stdDeviation="10.7" result="effect1_foregroundBlur_203_2534"/>
</filter>
<filter id="filter5_d_203_2534" x="354.086" y="267.416" width="120.18" height="33.2959" filterUnits="userSpaceOnUse" color-interpolation-filters="sRGB">
<feFlood flood-opacity="0" result="BackgroundImageFix"/>
<feColorMatrix in="SourceAlpha" type="matrix" values="0 0 0 0 0 0 0 0 0 0 0 0 0 0 0 0 0 0 127 0" result="hardAlpha"/>
<feOffset/>
<feGaussianBlur stdDeviation="4.5"/>
<feComposite in2="hardAlpha" operator="out"/>
<feColorMatrix type="matrix" values="0 0 0 0 1 0 0 0 0 1 0 0 0 0 1 0 0 0 1 0"/>
<feBlend mode="normal" in2="BackgroundImageFix" result="effect1_dropShadow_203_2534"/>
<feBlend mode="normal" in="SourceGraphic" in2="effect1_dropShadow_203_2534" result="shape"/>
</filter>
<filter id="filter6_d_203_2534" x="563.6" y="26.6" width="194.8" height="194.8" filterUnits="userSpaceOnUse" color-interpolation-filters="sRGB">
<feFlood flood-opacity="0" result="BackgroundImageFix"/>
<feColorMatrix in="SourceAlpha" type="matrix" values="0 0 0 0 0 0 0 0 0 0 0 0 0 0 0 0 0 0 127 0" result="hardAlpha"/>
<feOffset/>
<feGaussianBlur stdDeviation="5.2"/>
<feComposite in2="hardAlpha" operator="out"/>
<feColorMatrix type="matrix" values="0 0 0 0 1 0 0 0 0 1 0 0 0 0 1 0 0 0 0.35 0"/>
<feBlend mode="normal" in2="BackgroundImageFix" result="effect1_dropShadow_203_2534"/>
<feBlend mode="normal" in="SourceGraphic" in2="effect1_dropShadow_203_2534" result="shape"/>
</filter>
<filter id="filter7_d_203_2534" x="635.758" y="111.26" width="48.9141" height="25.4805" filterUnits="userSpaceOnUse" color-interpolation-filters="sRGB">
<feFlood flood-opacity="0" result="BackgroundImageFix"/>
<feColorMatrix in="SourceAlpha" type="matrix" values="0 0 0 0 0 0 0 0 0 0 0 0 0 0 0 0 0 0 127 0" result="hardAlpha"/>
<feOffset/>
<feGaussianBlur stdDeviation="2.75"/>
<feComposite in2="hardAlpha" operator="out"/>
<feColorMatrix type="matrix" values="0 0 0 0 1 0 0 0 0 1 0 0 0 0 1 0 0 0 1 0"/>
<feBlend mode="normal" in2="BackgroundImageFix" result="effect1_dropShadow_203_2534"/>
<feBlend mode="normal" in="SourceGraphic" in2="effect1_dropShadow_203_2534" result="shape"/>
</filter>
<filter id="filter8_d_203_2534" x="523.6" y="226.6" width="274.8" height="111.8" filterUnits="userSpaceOnUse" color-interpolation-filters="sRGB">
<feFlood flood-opacity="0" result="BackgroundImageFix"/>
<feColorMatrix in="SourceAlpha" type="matrix" values="0 0 0 0 0 0 0 0 0 0 0 0 0 0 0 0 0 0 127 0" result="hardAlpha"/>
<feOffset/>
<feGaussianBlur stdDeviation="10.7"/>
<feComposite in2="hardAlpha" operator="out"/>
<feColorMatrix type="matrix" values="0 0 0 0 1 0 0 0 0 1 0 0 0 0 1 0 0 0 0.59 0"/>
<feBlend mode="normal" in2="BackgroundImageFix" result="effect1_dropShadow_203_2534"/>
<feBlend mode="normal" in="SourceGraphic" in2="effect1_dropShadow_203_2534" result="shape"/>
</filter>
<filter id="filter9_f_203_2534" x="505.6" y="240.6" width="123.8" height="123.8" filterUnits="userSpaceOnUse" color-interpolation-filters="sRGB">
<feFlood flood-opacity="0" result="BackgroundImageFix"/>
<feBlend mode="normal" in="SourceGraphic" in2="BackgroundImageFix" result="shape"/>
<feGaussianBlur stdDeviation="10.7" result="effect1_foregroundBlur_203_2534"/>
</filter>
<filter id="filter10_f_203_2534" x="638.6" y="184.6" width="179.8" height="179.8" filterUnits="userSpaceOnUse" color-interpolation-filters="sRGB">
<feFlood flood-opacity="0" result="BackgroundImageFix"/>
<feBlend mode="normal" in="SourceGraphic" in2="BackgroundImageFix" result="shape"/>
<feGaussianBlur stdDeviation="10.7" result="effect1_foregroundBlur_203_2534"/>
</filter>
<filter id="filter11_d_203_2534" x="587.75" y="267.416" width="145.062" height="33.2959" filterUnits="userSpaceOnUse" color-interpolation-filters="sRGB">
<feFlood flood-opacity="0" result="BackgroundImageFix"/>
<feColorMatrix in="SourceAlpha" type="matrix" values="0 0 0 0 0 0 0 0 0 0 0 0 0 0 0 0 0 0 127 0" result="hardAlpha"/>
<feOffset/>
<feGaussianBlur stdDeviation="4.5"/>
<feComposite in2="hardAlpha" operator="out"/>
<feColorMatrix type="matrix" values="0 0 0 0 1 0 0 0 0 1 0 0 0 0 1 0 0 0 1 0"/>
<feBlend mode="normal" in2="BackgroundImageFix" result="effect1_dropShadow_203_2534"/>
<feBlend mode="normal" in="SourceGraphic" in2="effect1_dropShadow_203_2534" result="shape"/>
</filter>
<filter id="filter12_d_203_2534" x="69.6" y="26.6" width="194.8" height="194.8" filterUnits="userSpaceOnUse" color-interpolation-filters="sRGB">
<feFlood flood-opacity="0" result="BackgroundImageFix"/>
<feColorMatrix in="SourceAlpha" type="matrix" values="0 0 0 0 0 0 0 0 0 0 0 0 0 0 0 0 0 0 127 0" result="hardAlpha"/>
<feOffset/>
<feGaussianBlur stdDeviation="5.2"/>
<feComposite in2="hardAlpha" operator="out"/>
<feColorMatrix type="matrix" values="0 0 0 0 1 0 0 0 0 1 0 0 0 0 1 0 0 0 0.35 0"/>
<feBlend mode="normal" in2="BackgroundImageFix" result="effect1_dropShadow_203_2534"/>
<feBlend mode="normal" in="SourceGraphic" in2="effect1_dropShadow_203_2534" result="shape"/>
</filter>
<filter id="filter13_d_203_2534" x="141.742" y="111.26" width="49.3438" height="25.4805" filterUnits="userSpaceOnUse" color-interpolation-filters="sRGB">
<feFlood flood-opacity="0" result="BackgroundImageFix"/>
<feColorMatrix in="SourceAlpha" type="matrix" values="0 0 0 0 0 0 0 0 0 0 0 0 0 0 0 0 0 0 127 0" result="hardAlpha"/>
<feOffset/>
<feGaussianBlur stdDeviation="2.75"/>
<feComposite in2="hardAlpha" operator="out"/>
<feColorMatrix type="matrix" values="0 0 0 0 1 0 0 0 0 1 0 0 0 0 1 0 0 0 1 0"/>
<feBlend mode="normal" in2="BackgroundImageFix" result="effect1_dropShadow_203_2534"/>
<feBlend mode="normal" in="SourceGraphic" in2="effect1_dropShadow_203_2534" result="shape"/>
</filter>
<filter id="filter14_d_203_2534" x="29.6" y="226.6" width="274.8" height="111.8" filterUnits="userSpaceOnUse" color-interpolation-filters="sRGB">
<feFlood flood-opacity="0" result="BackgroundImageFix"/>
<feColorMatrix in="SourceAlpha" type="matrix" values="0 0 0 0 0 0 0 0 0 0 0 0 0 0 0 0 0 0 127 0" result="hardAlpha"/>
<feOffset/>
<feGaussianBlur stdDeviation="10.7"/>
<feComposite in2="hardAlpha" operator="out"/>
<feColorMatrix type="matrix" values="0 0 0 0 1 0 0 0 0 1 0 0 0 0 1 0 0 0 0.59 0"/>
<feBlend mode="normal" in2="BackgroundImageFix" result="effect1_dropShadow_203_2534"/>
<feBlend mode="normal" in="SourceGraphic" in2="effect1_dropShadow_203_2534" result="shape"/>
</filter>
<filter id="filter15_f_203_2534" x="11.6" y="240.6" width="123.8" height="123.8" filterUnits="userSpaceOnUse" color-interpolation-filters="sRGB">
<feFlood flood-opacity="0" result="BackgroundImageFix"/>
<feBlend mode="normal" in="SourceGraphic" in2="BackgroundImageFix" result="shape"/>
<feGaussianBlur stdDeviation="10.7" result="effect1_foregroundBlur_203_2534"/>
</filter>
<filter id="filter16_f_203_2534" x="144.6" y="184.6" width="179.8" height="179.8" filterUnits="userSpaceOnUse" color-interpolation-filters="sRGB">
<feFlood flood-opacity="0" result="BackgroundImageFix"/>
<feBlend mode="normal" in="SourceGraphic" in2="BackgroundImageFix" result="shape"/>
<feGaussianBlur stdDeviation="10.7" result="effect1_foregroundBlur_203_2534"/>
</filter>
<filter id="filter17_d_203_2534" x="71.5781" y="267.416" width="190.641" height="33.2959" filterUnits="userSpaceOnUse" color-interpolation-filters="sRGB">
<feFlood flood-opacity="0" result="BackgroundImageFix"/>
<feColorMatrix in="SourceAlpha" type="matrix" values="0 0 0 0 0 0 0 0 0 0 0 0 0 0 0 0 0 0 127 0" result="hardAlpha"/>
<feOffset/>
<feGaussianBlur stdDeviation="4.5"/>
<feComposite in2="hardAlpha" operator="out"/>
<feColorMatrix type="matrix" values="0 0 0 0 1 0 0 0 0 1 0 0 0 0 1 0 0 0 1 0"/>
<feBlend mode="normal" in2="BackgroundImageFix" result="effect1_dropShadow_203_2534"/>
<feBlend mode="normal" in="SourceGraphic" in2="effect1_dropShadow_203_2534" result="shape"/>
</filter>
<filter id="filter18_d_203_2534" x="810.6" y="26.6" width="194.8" height="131.72" filterUnits="userSpaceOnUse" color-interpolation-filters="sRGB">
<feFlood flood-opacity="0" result="BackgroundImageFix"/>
<feColorMatrix in="SourceAlpha" type="matrix" values="0 0 0 0 0 0 0 0 0 0 0 0 0 0 0 0 0 0 127 0" result="hardAlpha"/>
<feOffset/>
<feGaussianBlur stdDeviation="5.2"/>
<feComposite in2="hardAlpha" operator="out"/>
<feColorMatrix type="matrix" values="0 0 0 0 1 0 0 0 0 1 0 0 0 0 1 0 0 0 0.35 0"/>
<feBlend mode="normal" in2="BackgroundImageFix" result="effect1_dropShadow_203_2534"/>
<feBlend mode="normal" in="SourceGraphic" in2="effect1_dropShadow_203_2534" result="shape"/>
</filter>
<filter id="filter19_d_203_2534" x="882.797" y="111.28" width="48.7422" height="25.46" filterUnits="userSpaceOnUse" color-interpolation-filters="sRGB">
<feFlood flood-opacity="0" result="BackgroundImageFix"/>
<feColorMatrix in="SourceAlpha" type="matrix" values="0 0 0 0 0 0 0 0 0 0 0 0 0 0 0 0 0 0 127 0" result="hardAlpha"/>
<feOffset/>
<feGaussianBlur stdDeviation="2.75"/>
<feComposite in2="hardAlpha" operator="out"/>
<feColorMatrix type="matrix" values="0 0 0 0 1 0 0 0 0 1 0 0 0 0 1 0 0 0 1 0"/>
<feBlend mode="normal" in2="BackgroundImageFix" result="effect1_dropShadow_203_2534"/>
<feBlend mode="normal" in="SourceGraphic" in2="effect1_dropShadow_203_2534" result="shape"/>
</filter>
<filter id="filter20_d_203_2534" x="770.6" y="226.6" width="274.8" height="111.8" filterUnits="userSpaceOnUse" color-interpolation-filters="sRGB">
<feFlood flood-opacity="0" result="BackgroundImageFix"/>
<feColorMatrix in="SourceAlpha" type="matrix" values="0 0 0 0 0 0 0 0 0 0 0 0 0 0 0 0 0 0 127 0" result="hardAlpha"/>
<feOffset/>
<feGaussianBlur stdDeviation="10.7"/>
<feComposite in2="hardAlpha" operator="out"/>
<feColorMatrix type="matrix" values="0 0 0 0 1 0 0 0 0 1 0 0 0 0 1 0 0 0 0.59 0"/>
<feBlend mode="normal" in2="BackgroundImageFix" result="effect1_dropShadow_203_2534"/>
<feBlend mode="normal" in="SourceGraphic" in2="effect1_dropShadow_203_2534" result="shape"/>
</filter>
<filter id="filter21_f_203_2534" x="752.6" y="240.6" width="123.8" height="123.8" filterUnits="userSpaceOnUse" color-interpolation-filters="sRGB">
<feFlood flood-opacity="0" result="BackgroundImageFix"/>
<feBlend mode="normal" in="SourceGraphic" in2="BackgroundImageFix" result="shape"/>
<feGaussianBlur stdDeviation="10.7" result="effect1_foregroundBlur_203_2534"/>
</filter>
<filter id="filter22_f_203_2534" x="885.6" y="184.6" width="179.8" height="179.8" filterUnits="userSpaceOnUse" color-interpolation-filters="sRGB">
<feFlood flood-opacity="0" result="BackgroundImageFix"/>
<feBlend mode="normal" in="SourceGraphic" in2="BackgroundImageFix" result="shape"/>
<feGaussianBlur stdDeviation="10.7" result="effect1_foregroundBlur_203_2534"/>
</filter>
<filter id="filter23_d_203_2534" x="821.594" y="267.48" width="171.609" height="33.0391" filterUnits="userSpaceOnUse" color-interpolation-filters="sRGB">
<feFlood flood-opacity="0" result="BackgroundImageFix"/>
<feColorMatrix in="SourceAlpha" type="matrix" values="0 0 0 0 0 0 0 0 0 0 0 0 0 0 0 0 0 0 127 0" result="hardAlpha"/>
<feOffset/>
<feGaussianBlur stdDeviation="4.5"/>
<feComposite in2="hardAlpha" operator="out"/>
<feColorMatrix type="matrix" values="0 0 0 0 1 0 0 0 0 1 0 0 0 0 1 0 0 0 1 0"/>
<feBlend mode="normal" in2="BackgroundImageFix" result="effect1_dropShadow_203_2534"/>
<feBlend mode="normal" in="SourceGraphic" in2="effect1_dropShadow_203_2534" result="shape"/>
</filter>
<linearGradient id="paint0_linear_203_2534" x1="356.76" y1="313" x2="591.082" y2="-188.141" gradientUnits="userSpaceOnUse">
<stop/>
<stop offset="0.882605" stop-color="#666666"/>
</linearGradient>
<linearGradient id="paint1_linear_203_2534" x1="603.76" y1="313" x2="838.082" y2="-188.141" gradientUnits="userSpaceOnUse">
<stop/>
<stop offset="0.882605" stop-color="#666666"/>
</linearGradient>
<linearGradient id="paint2_linear_203_2534" x1="109.76" y1="313" x2="344.082" y2="-188.141" gradientUnits="userSpaceOnUse">
<stop/>
<stop offset="0.882605" stop-color="#666666"/>
</linearGradient>
<linearGradient id="paint3_linear_203_2534" x1="850.76" y1="313" x2="1085.08" y2="-188.141" gradientUnits="userSpaceOnUse">
<stop/>
<stop offset="0.882605" stop-color="#666666"/>
</linearGradient>
<clipPath id="clip0_203_2534">
<rect x="298" y="248" width="232" height="69" rx="19" fill="white"/>
</clipPath>
<clipPath id="clip1_203_2534">
<rect x="545" y="248" width="232" height="69" rx="19" fill="white"/>
</clipPath>
<clipPath id="clip2_203_2534">
<rect x="51" y="248" width="232" height="69" rx="19" fill="white"/>
</clipPath>
<clipPath id="clip3_203_2534">
<rect x="792" y="248" width="232" height="69" rx="19" fill="white"/>
</clipPath>
</defs>
</svg>
