<?xml version="1.0" encoding="UTF-8" standalone="no"?>
<!-- Created with Inkscape (http://www.inkscape.org/) -->

<svg
   width="10.000043in"
   height="2.6136637in"
   viewBox="0 0 254.00108 66.387057"
   version="1.1"
   id="svg1"
   xml:space="preserve"
   inkscape:version="1.3.2 (091e20e, 2023-11-25, custom)"
   sodipodi:docname="Logo.svg"
   inkscape:export-filename="NO BG M4.png"
   inkscape:export-xdpi="300"
   inkscape:export-ydpi="300"
   xmlns:inkscape="http://www.inkscape.org/namespaces/inkscape"
   xmlns:sodipodi="http://sodipodi.sourceforge.net/DTD/sodipodi-0.dtd"
   xmlns="http://www.w3.org/2000/svg"
   xmlns:svg="http://www.w3.org/2000/svg"><sodipodi:namedview
     id="namedview1"
     pagecolor="#ffffff"
     bordercolor="#000000"
     borderopacity="0.25"
     inkscape:showpageshadow="2"
     inkscape:pageopacity="0.0"
     inkscape:pagecheckerboard="0"
     inkscape:deskcolor="#d1d1d1"
     inkscape:document-units="mm"
     inkscape:zoom="0.125"
     inkscape:cx="4040"
     inkscape:cy="340"
     inkscape:window-width="1366"
     inkscape:window-height="705"
     inkscape:window-x="-8"
     inkscape:window-y="-8"
     inkscape:window-maximized="1"
     inkscape:current-layer="g1"
     showguides="true" /><defs
     id="defs1"><inkscape:path-effect
       effect="fillet_chamfer"
       id="path-effect6"
       is_visible="true"
       lpeversion="1"
       nodesatellites_param="F,0,0,1,0,4.7677403,0,1 @ F,0,0,1,0,10.520727,0,1 @ F,0,0,1,0,10.520727,0,1 @ F,0,0,1,0,10.520727,0,1 @ F,0,0,1,0,10.520727,0,1 @ F,0,0,1,0,10.520727,0,1 @ F,0,0,1,0,5.1943526,0,1 | F,0,0,1,0,10.520727,0,1 @ F,0,0,1,0,10.520727,0,1 @ F,0,0,1,0,10.520727,0,1 @ F,0,0,1,0,10.520727,0,1 @ F,0,0,1,0,5.5444561,0,1 | F,0,0,1,0,10.520727,0,1 @ F,0,0,1,0,10.520727,0,1 @ F,0,0,1,0,10.520727,0,1 @ F,0,0,1,0,10.520727,0,1 @ F,0,0,1,0,10.520727,0,1 @ F,0,0,1,0,10.520727,0,1 @ F,0,0,1,0,3.217933,0,1 @ F,0,0,1,0,1.0469001,0,1 @ F,0,0,1,0,10.520727,0,1"
       radius="0"
       unit="px"
       method="auto"
       mode="F"
       chamfer_steps="1"
       flexible="false"
       use_knot_distance="true"
       apply_no_radius="true"
       apply_with_radius="true"
       only_selected="false"
       hide_knots="false" /></defs><g
     inkscape:label="Layer 1"
     inkscape:groupmode="layer"
     id="layer1"
     transform="translate(-9.8468803,-263.66897)"><g
       id="g1"
       style="fill:#e78b3a;fill-opacity:1"
       inkscape:export-filename="..\..\Emmanuel Creative &amp; Co. Website\IMG\Logo.svg"
       inkscape:export-xdpi="300"
       inkscape:export-ydpi="300"
       transform="translate(-16.933333,44.45)"><g
         id="g2"
         inkscape:export-filename="..\..\Emmanuel Creative &amp; Co. Website\IMG\Logo.svg"
         inkscape:export-xdpi="300"
         inkscape:export-ydpi="300"
         transform="translate(-1.0583333,139.7)"
         style="fill:#ffffff"><g
           id="g3"
           style="fill:#ffffff"><path
             id="path4"
             style="fill:#ffffff;fill-opacity:1;stroke:none;stroke-width:4.59744"
             d="M 170.02521,36.446361 33.62681,36.4761 A 10.522717,10.522717 134.99292 0 0 23.106388,46.999121 l 0.0025,86.086369 a 6.914444,6.914444 33.312104 0 0 9.657636,6.3468 l 17.725454,-7.66098 A 16.0084,16.0084 123.31293 0 0 60.1493,117.07665 V 93.880497 A 16.008566,16.008566 123.31266 0 1 69.806591,79.185753 L 136.38186,50.410988 a 33.372674,33.372674 174.12277 0 1 19.96239,-2.054896 l 13.29518,2.733997 a 4.2529998,4.2529998 140.92993 0 0 5.10962,-4.148043 l 0.024,-5.729026 a 4.7468052,4.7468052 45.113577 0 0 -4.7478,-4.766659 z M 139.08425,55.345537 75.361581,82.656892 A 15.924249,15.924249 123.34849 0 0 65.710545,97.32213 l 0.02876,15.97131 a 6.9277406,6.9277406 33.261113 0 0 9.676246,6.34671 L 153.77769,85.771088 a 28.793867,28.793867 136.55408 0 0 14.34879,-13.590774 l 4.74543,-9.525042 a 4.4289991,4.4289991 65.10116 0 0 -2.91383,-6.277648 l -10.9833,-2.681414 a 31.516782,31.516782 175.25987 0 0 -19.89053,1.649327 z m 30.70567,24.543589 A 26.647513,26.647513 140.59526 0 1 156.44357,90.853795 L 32.754187,144.67291 a 16.051451,16.051451 123.24307 0 0 -9.647202,14.71832 l -2.53e-4,20.03717 a 10.518161,10.518161 44.993733 0 0 10.520595,10.5183 l 130.674863,-0.0302 a 10.521683,10.521683 134.98935 0 0 10.51925,-10.52316 l -0.006,-43.00528 a 6.8662259,6.8662259 33.121941 0 0 -9.63137,-6.28387 L 63.094535,175.0205 a 2.1000015,2.1000015 33.123736 0 1 -2.945706,-1.92202 l -1.84e-4,-2.37611 a 1.5955726,1.5955726 123.26555 0 1 0.960247,-1.46375 L 165.0438,124.1431 a 16.086325,16.086325 123.35019 0 0 9.68101,-14.70982 l 0.0813,-28.254894 a 2.6718036,2.6718036 14.414216 0 0 -5.01617,-1.28926 z"
             transform="matrix(0.43757721,0,0,0.43248799,17.727718,63.756361)"
             inkscape:original-d="M 174.79295,36.445321 23.106083,36.478394 23.109184,143.60622 60.1493,127.59738 V 83.35977 l 85.88985,-37.122799 28.68817,5.899382 z m -26.03872,14.755688 -83.062633,35.600411 0.06666,37.01273 97.676733,-42.217063 11.90935,-23.904484 z m 26.08213,19.456694 -8.74572,15.998506 -142.983523,62.214291 -5.17e-4,41.07863 151.71632,-0.0351 -0.009,-64.04674 -114.66484,50.44912 -5.17e-4,-6.64094 114.545977,-49.72151 z"
             inkscape:path-effect="#path-effect6" /><path
             d="m 105.77597,88.110901 v 20.699509 h 12.80387 v -2.0407 h -10.31978 v -7.392313 h 9.43301 V 97.36615 h -9.43301 v -7.215064 h 10.31978 v -2.040185 z m 125.88224,0 v 20.699509 h 2.48409 V 88.110901 Z m -103.8226,5.677173 c -0.96592,0 -1.86286,0.23693 -2.69079,0.710034 -0.80822,0.453391 -1.45901,1.143145 -1.95182,2.069641 h -0.11834 l -0.23668,-2.424658 H 120.65 v 14.667319 h 2.48409 v -7.60005 c 0,-1.14334 0.19692,-2.099248 0.59117,-2.868042 0.39426,-0.788507 0.89683,-1.390058 1.50792,-1.804025 0.63081,-0.413966 1.29133,-0.620633 1.98128,-0.620633 1.14333,0 2.02078,0.384106 2.63188,1.152901 0.61109,0.768794 0.91674,1.912405 0.91674,3.430279 v 8.30957 h 2.48408 v -8.30957 c 0,-1.064482 0.1677,-1.932192 0.50282,-2.602423 0.35482,-0.689944 0.82765,-1.192515 1.41903,-1.507918 0.59138,-0.315403 1.27191,-0.472839 2.0407,-0.472839 1.2419,0 2.16858,0.384106 2.77968,1.152901 0.61109,0.768794 0.91622,1.912405 0.91622,3.430279 v 8.30957 h 2.45463 v -8.5757 c 0,-1.458739 -0.23641,-2.661325 -0.70952,-3.607533 -0.4731,-0.965921 -1.12388,-1.675678 -1.95181,-2.129069 -0.82794,-0.473104 -1.78437,-0.710034 -2.86856,-0.710034 -1.20248,0 -2.21788,0.256415 -3.04581,0.768945 -0.82793,0.492817 -1.50795,1.232319 -2.04019,2.217953 h -0.11834 c -0.27597,-0.670231 -0.6406,-1.222551 -1.09399,-1.65623 -0.45339,-0.433679 -0.99545,-0.758812 -1.62625,-0.975651 -0.6111,-0.236552 -1.30137,-0.355017 -2.07016,-0.355017 z m 24.92819,0 c -0.96593,0 -1.86285,0.236924 -2.69079,0.710034 -0.80823,0.453397 -1.459,1.143134 -1.95182,2.069641 h -0.11834 l -0.23668,-2.424658 h -2.18798 v 14.667319 h 2.48357 v -7.60005 c 0,-1.14335 0.19744,-2.099239 0.5917,-2.868042 0.39426,-0.788517 0.89682,-1.390053 1.50792,-1.804025 0.63081,-0.413971 1.29132,-0.620633 1.98127,-0.620633 1.14335,0 2.02078,0.384097 2.63188,1.152901 0.6111,0.768803 0.91674,1.912387 0.91674,3.430279 v 8.30957 h 2.48409 v -8.30957 c 0,-1.064495 0.16717,-1.932184 0.50229,-2.602423 0.35484,-0.689952 0.82817,-1.192512 1.41955,-1.507918 0.59139,-0.315407 1.27139,-0.472839 2.04019,-0.472839 1.24191,0 2.16857,0.384097 2.77968,1.152901 0.6111,0.768803 0.91674,1.912387 0.91674,3.430279 v 8.30957 h 2.45463 v -8.5757 c 0,-1.458757 -0.23693,-2.661313 -0.71004,-3.607533 -0.47311,-0.965933 -1.12336,-1.675672 -1.9513,-2.129069 -0.82794,-0.47311 -1.78435,-0.710034 -2.86856,-0.710034 -1.20249,0 -2.21787,0.256409 -3.04581,0.768945 -0.82794,0.492823 -1.50794,1.232307 -2.04018,2.217953 h -0.11834 c -0.27598,-0.67024 -0.6406,-1.222546 -1.09399,-1.65623 -0.4534,-0.433684 -0.99596,-0.758809 -1.62678,-0.975651 -0.6111,-0.236555 -1.30083,-0.355017 -2.06964,-0.355017 z m 24.09982,0 c -1.12362,0 -2.14876,0.197441 -3.07526,0.591695 -0.90679,0.374541 -1.65603,0.926342 -2.24741,1.655713 -0.57167,0.72937 -0.91629,1.626822 -1.03456,2.691308 h 2.543 c 0.1577,-1.025061 0.59103,-1.784045 1.30069,-2.276863 0.70966,-0.492818 1.54762,-0.73949 2.51354,-0.73949 0.7688,0 1.42932,0.157953 1.98128,0.473356 0.55195,0.295691 0.97606,0.758772 1.27175,1.389579 0.29569,0.630807 0.44339,1.42928 0.44339,2.395203 h -3.96255 c -1.30104,0 -2.43439,0.187185 -3.40031,0.561725 -0.94621,0.35483 -1.68571,0.8774 -2.21795,1.56734 -0.51253,0.68995 -0.76895,1.53765 -0.76895,2.543 0,0.80822 0.1877,1.55746 0.56224,2.24741 0.39426,0.68994 0.98554,1.24226 1.77405,1.65623 0.78851,0.41397 1.76442,0.62063 2.92747,0.62063 0.55196,0 1.07453,-0.0687 1.56735,-0.2067 0.51253,-0.11828 0.98535,-0.29572 1.41903,-0.53227 0.43368,-0.23655 0.82805,-0.53246 1.18288,-0.88728 0.37454,-0.35483 0.70019,-0.76868 0.97617,-1.24179 h 0.11833 l 0.23617,2.51354 h 2.07015 v -9.019085 c 0,-1.202476 -0.22667,-2.24762 -0.68006,-3.134693 -0.43368,-0.906784 -1.11369,-1.606795 -2.04018,-2.099613 -0.90679,-0.512531 -2.06065,-0.768945 -3.46026,-0.768945 z m 15.93908,0 c -1.16305,0 -2.15896,0.246671 -2.9869,0.739489 -0.82793,0.473107 -1.49819,1.114141 -2.01073,1.922364 h -0.11834 l -0.23667,-2.306836 h -2.18798 v 14.667319 h 2.48357 v -7.60005 c 0,-1.14334 0.18769,-2.099245 0.56224,-2.868042 0.39425,-0.78851 0.91682,-1.390057 1.56734,-1.804025 0.67024,-0.413967 1.42922,-0.620633 2.27687,-0.620633 1.22219,0 2.15861,0.384103 2.80913,1.152901 0.65052,0.768797 0.97565,1.912399 0.97565,3.430279 v 8.30957 h 2.48408 v -8.5757 c 0,-1.458745 -0.23641,-2.661321 -0.70951,-3.607533 -0.4534,-0.965925 -1.10417,-1.675676 -1.95182,-2.129069 -0.84765,-0.473106 -1.8333,-0.710034 -2.95693,-0.710034 z m 30.04365,0 c -1.43904,0 -2.71084,0.325643 -3.81476,0.976168 -1.08421,0.630811 -1.9319,1.517989 -2.543,2.661336 -0.61109,1.143346 -0.91674,2.493598 -0.91674,4.050912 0,1.53761 0.30565,2.88838 0.91674,4.05144 0.63082,1.14334 1.48825,2.04026 2.57246,2.69079 1.08421,0.63081 2.32677,0.94619 3.72638,0.94619 1.16306,0 2.17793,-0.20666 3.0453,-0.62063 0.88708,-0.41397 1.62656,-0.97602 2.21795,-1.68569 0.59139,-0.70966 1.01549,-1.51786 1.27176,-2.42465 h -2.45463 c -0.31541,0.82794 -0.81797,1.47819 -1.50792,1.9513 -0.68995,0.47311 -1.54739,0.71003 -2.57246,0.71003 -0.80822,0 -1.5872,-0.19744 -2.33629,-0.59169 -0.72937,-0.41397 -1.32065,-1.02526 -1.77405,-1.83348 -0.39993,-0.71292 -0.61326,-1.59637 -0.66042,-2.63137 h 11.69024 c 0.0197,-0.27598 0.0294,-0.52265 0.0294,-0.73949 v -0.6506 c 0,-1.222201 -0.27589,-2.345787 -0.82785,-3.370857 -0.55196,-1.044782 -1.34068,-1.88273 -2.36575,-2.513541 -1.02507,-0.650525 -2.25737,-0.976168 -3.69641,-0.976168 z m -22.35523,0.355017 v 8.575699 c 0,1.45875 0.23641,2.67107 0.70952,3.63699 0.47311,0.94622 1.12388,1.65596 1.95182,2.12907 0.84765,0.4534 1.83329,0.68006 2.95692,0.68006 1.16306,0 2.15845,-0.24615 2.98638,-0.73897 0.84765,-0.49282 1.51791,-1.13385 2.01073,-1.92236 h 0.11834 l 0.23668,2.30683 h 2.1885 V 94.143091 h -2.48409 v 7.599539 c 0,1.12363 -0.19744,2.08004 -0.59169,2.86856 -0.37455,0.78851 -0.8966,1.39005 -1.56683,1.80402 -0.65053,0.41397 -1.39976,0.62063 -2.24741,0.62063 -1.22219,0 -2.15861,-0.3841 -2.80913,-1.1529 -0.65052,-0.7688 -0.97617,-1.91239 -0.97617,-3.43028 v -8.309569 z m 22.29631,1.567346 c 1.26163,0 2.30624,0.384616 3.13418,1.153418 0.84765,0.768802 1.30099,1.852901 1.36012,3.252515 h -9.21442 c 0.0737,-0.828317 0.24021,-1.571952 0.57981,-2.158525 0.45339,-0.749089 1.04519,-1.311141 1.77457,-1.685685 0.72937,-0.374545 1.51809,-0.561723 2.36574,-0.561723 z m -45.98272,6.180503 h 3.75533 c 0,0.65052 -0.10821,1.29104 -0.32505,1.92184 -0.19712,0.6111 -0.49303,1.1629 -0.88728,1.65572 -0.39426,0.49282 -0.87734,0.88718 -1.44901,1.18287 -0.57167,0.27598 -1.23219,0.41393 -1.98127,0.41393 -0.65052,0 -1.21207,-0.0985 -1.68517,-0.29559 -0.45339,-0.21684 -0.80827,-0.51223 -1.06454,-0.88677 -0.23655,-0.39425 -0.35501,-0.84811 -0.35501,-1.36064 0,-0.51253 0.1282,-0.96587 0.38447,-1.36012 0.25627,-0.39426 0.67986,-0.6999 1.27124,-0.91674 0.59138,-0.23655 1.37037,-0.3545 2.33629,-0.3545 z m -61.44793,17.18913 c -2.03045,0 -3.78527,0.45332 -5.26376,1.36012 -1.47848,0.8871 -2.62152,2.13937 -3.42976,3.75585 -0.78853,1.59676 -1.18288,3.45978 -1.18288,5.5888 0,2.12902 0.39435,4.00179 1.18288,5.61826 0.80824,1.59677 1.95128,2.84853 3.42976,3.75533 1.47849,0.88709 3.23331,1.33067 5.26376,1.33067 2.38529,0 4.31755,-0.56152 5.79603,-1.68517 1.47849,-1.12365 2.42461,-2.68155 2.83859,-4.67258 h -2.66134 c -0.31541,1.24193 -0.9759,2.24754 -1.98127,3.01635 -0.98566,0.7491 -2.31639,1.12396 -3.99201,1.12396 -1.47848,0 -2.76973,-0.33537 -3.87366,-1.00562 -1.10394,-0.68996 -1.96186,-1.66583 -2.57297,-2.92747 -0.5914,-1.28135 -0.88677,-2.79926 -0.88677,-4.55373 0,-1.75447 0.29537,-3.26263 0.88677,-4.52427 0.61111,-1.28135 1.46903,-2.25774 2.57297,-2.92799 1.10393,-0.68996 2.39518,-1.03456 3.87366,-1.03456 1.67562,0 2.99661,0.38409 3.96255,1.1529 0.96595,0.76882 1.60644,1.79443 1.92185,3.07578 h 2.75022 c -0.41398,-2.05016 -1.3601,-3.6373 -2.83859,-4.76094 -1.47848,-1.12365 -3.41074,-1.68569 -5.79603,-1.68569 z m 60.79733,0 c -0.49284,0 -0.90666,0.16769 -1.24179,0.50281 -0.33513,0.33513 -0.50281,0.73921 -0.50281,1.21233 0,0.49283 0.16768,0.90666 0.50281,1.24179 0.33513,0.33512 0.74895,0.50281 1.24179,0.50281 0.47311,0 0.8772,-0.16769 1.21232,-0.50281 0.33513,-0.33513 0.50282,-0.73921 0.50282,-1.21233 0,-0.49284 -0.16769,-0.90666 -0.50282,-1.24179 -0.33512,-0.33512 -0.73921,-0.50281 -1.21232,-0.50281 z m 47.28341,0 c -1.0842,0 -2.02061,0.19692 -2.80913,0.59118 -0.78851,0.37454 -1.39979,0.90685 -1.83348,1.5968 -0.41397,0.68995 -0.62063,1.47867 -0.62063,2.36575 0,0.88707 0.19692,1.70554 0.59118,2.45463 0.29447,0.54477 0.78024,1.15562 1.36064,1.79937 -0.84813,0.37278 -1.61003,0.82575 -2.24741,1.39423 -0.72939,0.63083 -1.29142,1.37028 -1.68568,2.21795 -0.37456,0.82796 -0.56173,1.74433 -0.56173,2.74971 0,1.24194 0.30511,2.3265 0.91623,3.25303 0.61111,0.92653 1.45928,1.65572 2.54351,2.18798 1.10395,0.51255 2.36542,0.76894 3.78478,0.76894 1.67564,0 3.1248,-0.35485 4.34702,-1.06453 0.89049,-0.52299 1.64905,-1.18341 2.28617,-1.96991 l 2.68149,2.7094 h 2.89801 l -4.41678,-4.57543 c 0.2786,-0.57051 0.52271,-1.16535 0.69091,-1.8123 0.25628,-1.00538 0.38447,-2.07968 0.38447,-3.22305 v -1.09399 h -2.12906 v 1.09399 c 0,0.90681 -0.0887,1.75446 -0.26614,2.54299 -0.069,0.29912 -0.16301,0.57908 -0.2589,0.85732 l -6.39444,-6.62337 c -0.72937,-0.74909 -1.28168,-1.39986 -1.65623,-1.95182 -0.37454,-0.57167 -0.56172,-1.18296 -0.56172,-1.83348 0,-0.74909 0.26615,-1.34037 0.7984,-1.77405 0.53225,-0.43369 1.23225,-0.65061 2.09961,-0.65061 0.74909,0 1.40961,0.22667 1.98128,0.68006 0.57167,0.4534 0.84757,1.12365 0.82785,2.01073 h 2.45463 c 0.0394,-0.9265 -0.15801,-1.73471 -0.59169,-2.42466 -0.43368,-0.70966 -1.04497,-1.26145 -1.83348,-1.65571 -0.78851,-0.41397 -1.71518,-0.62115 -2.77968,-0.62115 z m 28.2696,0 c -2.03049,0 -3.78474,0.4533 -5.26325,1.36012 -1.47851,0.88711 -2.62203,2.13934 -3.43028,3.75585 -0.78854,1.59679 -1.18287,3.45974 -1.18287,5.5888 0,2.12906 0.39433,4.00176 1.18287,5.61826 0.80825,1.5968 1.95177,2.84851 3.43028,3.75533 1.47851,0.88711 3.23276,1.33067 5.26325,1.33067 2.38533,0 4.31751,-0.5615 5.79603,-1.68517 1.47851,-1.12367 2.4246,-2.68152 2.83858,-4.67258 h -2.66133 c -0.31542,1.24195 -0.97537,2.24752 -1.98076,3.01635 -0.98568,0.74911 -2.31688,1.12396 -3.99252,1.12396 -1.47852,0 -2.76971,-0.33536 -3.87367,-1.00562 -1.10396,-0.68997 -1.96133,-1.66581 -2.57245,-2.92747 -0.59141,-1.28138 -0.88729,-2.79923 -0.88729,-4.55373 0,-1.7545 0.29588,-3.2626 0.88729,-4.52427 0.61112,-1.28138 1.46849,-2.25773 2.57245,-2.92799 1.10396,-0.68997 2.39515,-1.03456 3.87367,-1.03456 1.67564,0 2.99658,0.38408 3.96255,1.1529 0.96596,0.76883 1.60694,1.79441 1.92236,3.07578 h 2.7497 c -0.41398,-2.0502 -1.36007,-3.63728 -2.83858,-4.76094 -1.47852,-1.12367 -3.4107,-1.68569 -5.79603,-1.68569 z m -85.13383,2.86856 -0.29558,3.51865 h -2.543 v 1.77405 h 2.543 v 8.39845 c 0,1.12365 0.16717,2.02055 0.50229,2.69079 0.35484,0.65054 0.8579,1.11412 1.50844,1.3901 0.65053,0.27598 1.41923,0.41393 2.30631,0.41393 h 2.24741 v -1.92236 h -1.53737 c -0.94623,0 -1.60673,-0.16769 -1.98128,-0.50282 -0.37454,-0.35483 -0.56224,-1.04456 -0.56224,-2.06964 v -8.39845 h 4.31757 v -1.77405 h -4.31757 v -3.51865 z m -32.40939,3.16363 c -0.92652,0 -1.70547,0.079 -2.33629,0.23668 -0.61111,0.13799 -1.15314,0.46362 -1.62626,0.97617 -0.47311,0.49283 -0.95617,1.27126 -1.449,2.33577 h -0.11834 l -0.23668,-3.1936 h -2.18798 v 14.66732 h 2.48357 v -7.60005 c 0,-0.80824 0.099,-1.50771 0.29611,-2.0991 0.21684,-0.61111 0.52247,-1.11417 0.91674,-1.50844 0.39426,-0.39426 0.8968,-0.69015 1.50791,-0.88728 0.61111,-0.21685 1.31109,-0.32504 2.09962,-0.32504 h 0.6506 z m 7.59954,0 c -1.43905,0 -2.71083,0.32564 -3.81475,0.97617 -1.08422,0.63081 -1.9319,1.51798 -2.543,2.66133 -0.6111,1.14336 -0.91674,2.49359 -0.91674,4.05092 0,1.53761 0.30564,2.88837 0.91674,4.05143 0.63081,1.14336 1.48824,2.04026 2.57245,2.69079 1.08422,0.63082 2.32625,0.9462 3.72587,0.9462 1.16307,0 2.17844,-0.20666 3.04581,-0.62063 0.88709,-0.41398 1.62656,-0.97602 2.21795,-1.68569 0.59139,-0.70967 1.01549,-1.51786 1.27176,-2.42466 h -2.45463 c -0.31541,0.82795 -0.81796,1.47819 -1.50792,1.9513 -0.68995,0.47312 -1.54789,0.71004 -2.57297,0.71004 -0.80823,0 -1.58668,-0.19744 -2.33577,-0.5917 -0.72938,-0.41397 -1.32066,-1.02524 -1.77405,-1.83348 -0.3999,-0.71285 -0.61324,-1.59647 -0.66043,-2.63136 H 148.624 c 0.0197,-0.27598 0.0295,-0.52265 0.0295,-0.73949 v -0.65061 c 0,-1.2222 -0.27589,-2.34578 -0.82786,-3.37085 -0.55196,-1.04479 -1.34067,-1.88273 -2.36575,-2.51354 -1.02507,-0.65053 -2.25736,-0.97617 -3.69641,-0.97617 z m 15.02182,0 c -1.12364,0 -2.14875,0.19743 -3.07526,0.5917 -0.9068,0.37454 -1.65602,0.92633 -2.24741,1.65571 -0.57168,0.72938 -0.9168,1.6268 -1.03508,2.69131 h 2.543 c 0.1577,-1.02508 0.59154,-1.78456 1.30121,-2.27738 0.70967,-0.49283 1.5476,-0.73898 2.51354,-0.73898 0.76881,0 1.42931,0.15743 1.98128,0.47284 0.55196,0.2957 0.97606,0.75928 1.27175,1.3901 0.2957,0.63082 0.44339,1.42926 0.44339,2.3952 h -3.96255 c -1.30106,0 -2.43489,0.18718 -3.40083,0.56172 -0.94622,0.35484 -1.68518,0.87739 -2.21743,1.56735 -0.51254,0.68996 -0.76895,1.53763 -0.76895,2.543 0,0.80823 0.18718,1.55745 0.56172,2.24741 0.39426,0.68995 0.98605,1.24225 1.77457,1.65623 0.78852,0.41397 1.7644,0.62063 2.92747,0.62063 0.55197,0 1.07401,-0.0687 1.56683,-0.20671 0.51254,-0.11827 0.98587,-0.29571 1.41955,-0.53226 0.43369,-0.23656 0.82804,-0.53245 1.18288,-0.88729 0.37454,-0.35483 0.69967,-0.76867 0.97565,-1.24178 h 0.11834 l 0.23668,2.51354 h 2.07015 v -9.01909 c 0,-1.20249 -0.22666,-2.2476 -0.68006,-3.13469 -0.43369,-0.9068 -1.11419,-1.60679 -2.0407,-2.09961 -0.9068,-0.51254 -2.06011,-0.76895 -3.45974,-0.76895 z m 44.26758,0 c -1.43906,0 -2.71081,0.32563 -3.81475,0.97617 -1.08423,0.63082 -1.93189,1.51796 -2.543,2.66133 -0.61111,1.14337 -0.91674,2.49357 -0.91674,4.05092 0,1.53763 0.30563,2.88835 0.91674,4.05143 0.63083,1.14337 1.48823,2.04026 2.57246,2.69079 1.08422,0.63083 2.32622,0.9462 3.72587,0.9462 1.16308,0 2.17842,-0.20666 3.0458,-0.62063 0.8871,-0.41398 1.62656,-0.97601 2.21796,-1.68569 0.5914,-0.70968 1.01497,-1.51785 1.27124,-2.42466 h -2.45412 c -0.31541,0.82796 -0.81795,1.47819 -1.50791,1.9513 -0.68997,0.47312 -1.54788,0.71004 -2.57297,0.71004 -0.80825,0 -1.58667,-0.19743 -2.33578,-0.5917 -0.72939,-0.41398 -1.32116,-1.02523 -1.77457,-1.83348 -0.3999,-0.71286 -0.61271,-1.59647 -0.65991,-2.63136 h 11.68973 c 0.0197,-0.27599 0.03,-0.52264 0.03,-0.73949 v -0.65061 c 0,-1.22222 -0.2764,-2.34576 -0.82837,-3.37085 -0.55197,-1.0448 -1.34014,-1.88272 -2.36523,-2.51354 -1.02509,-0.65054 -2.25735,-0.97617 -3.69642,-0.97617 z m 68.42632,0 c -1.37995,0 -2.63166,0.31588 -3.75533,0.94671 -1.10396,0.63084 -1.98133,1.52769 -2.63188,2.69079 -0.65055,1.14339 -0.97565,2.49355 -0.97565,4.05092 0,1.55737 0.31536,2.91779 0.9462,4.08089 0.65054,1.14338 1.52792,2.0305 2.63188,2.66133 1.10395,0.63084 2.34592,0.9462 3.72587,0.9462 1.37995,0 2.62191,-0.31536 3.72587,-0.9462 1.12367,-0.63083 2.01079,-1.51795 2.66133,-2.66133 0.65055,-1.1631 0.97566,-2.52352 0.97566,-4.08089 0,-1.55737 -0.32511,-2.90753 -0.97566,-4.05092 -0.63083,-1.1631 -1.49846,-2.05995 -2.60242,-2.69079 -1.10396,-0.63083 -2.34592,-0.94671 -3.72587,-0.94671 z m -94.56684,0.35502 v 14.66732 h 2.48357 v -14.66732 z m 4.28759,0 5.26377,14.66732 h 3.16414 l 5.26325,-14.66732 h -2.543 l -4.22868,12.68604 h -0.11834 l -4.19871,-12.68604 z m -37.4959,1.56734 c 1.26163,0 2.30675,0.38461 3.13469,1.15342 0.84766,0.76881 1.30099,1.85289 1.36013,3.25252 h -9.21443 c 0.0737,-0.82833 0.24022,-1.57195 0.57981,-2.15853 0.4534,-0.74909 1.04519,-1.31114 1.77457,-1.68568 0.72938,-0.37455 1.51757,-0.56173 2.36523,-0.56173 z m 59.28941,0 c 1.26165,0 2.30673,0.3846 3.13469,1.15342 0.84767,0.76882 1.30098,1.85287 1.36012,3.25252 h -9.21442 c 0.0737,-0.82834 0.24021,-1.57194 0.57981,-2.15853 0.4534,-0.7491 1.04466,-1.31113 1.77405,-1.68568 0.72939,-0.37456 1.51808,-0.56173 2.36575,-0.56173 z m 68.48574,0 c 0.82797,0 1.60689,0.20717 2.33629,0.62115 0.7294,0.41399 1.3109,1.05445 1.7446,1.92185 0.45341,0.84768 0.68006,1.92197 0.68006,3.22306 0,1.30109 -0.22665,2.37589 -0.68006,3.22358 -0.45342,0.84768 -1.04465,1.48814 -1.77406,1.92184 -0.7294,0.41399 -1.51806,0.62115 -2.36574,0.62115 -0.82797,0 -1.60689,-0.20716 -2.33629,-0.62115 -0.70969,-0.4337 -1.29119,-1.07416 -1.7446,-1.92184 -0.45341,-0.84769 -0.68006,-1.92249 -0.68006,-3.22358 0,-1.30109 0.22665,-2.37538 0.68006,-3.22306 0.45341,-0.8674 1.04465,-1.50786 1.77405,-1.92185 0.74912,-0.41398 1.53778,-0.62115 2.36575,-0.62115 z m -47.98467,2.2934 6.54224,6.60994 c -0.51084,0.65206 -1.14445,1.17583 -1.9079,1.56476 -1.02509,0.53226 -2.12914,0.7984 -3.31194,0.7984 -0.92653,0 -1.75469,-0.16769 -2.48409,-0.50281 -0.72939,-0.33513 -1.30116,-0.80844 -1.71514,-1.41955 -0.41398,-0.63083 -0.62115,-1.38977 -0.62115,-2.27687 0,-1.16309 0.31589,-2.15842 0.94671,-2.98638 0.60938,-0.7998 1.46362,-1.39238 2.55127,-1.78749 z m -64.76814,3.88659 h 3.75533 c 0,0.65053 -0.1082,1.29154 -0.32505,1.92236 -0.19713,0.6111 -0.49302,1.16289 -0.88728,1.65571 -0.39426,0.49283 -0.87733,0.88718 -1.44901,1.18288 -0.57168,0.27598 -1.23218,0.41393 -1.98127,0.41393 -0.65053,0 -1.21258,-0.0985 -1.68569,-0.29559 -0.4534,-0.21685 -0.80826,-0.51222 -1.06453,-0.88677 -0.23656,-0.39426 -0.3545,-0.8481 -0.3545,-1.36064 0,-0.51254 0.12768,-0.96586 0.38395,-1.36013 0.25627,-0.39426 0.68037,-0.69989 1.27176,-0.91674 0.59139,-0.23655 1.37035,-0.35501 2.33629,-0.35501 z m 123.48704,3.7853 c -0.45342,0 -0.84775,0.15794 -1.18288,0.47335 -0.31541,0.31542 -0.47284,0.69949 -0.47284,1.1529 0,0.45342 0.15743,0.84775 0.47284,1.18288 0.33513,0.31541 0.72946,0.47335 1.18288,0.47335 0.45341,0 0.838,-0.15794 1.15341,-0.47335 0.31542,-0.33513 0.47284,-0.72946 0.47284,-1.18288 0,-0.45341 -0.15742,-0.83748 -0.47284,-1.1529 -0.31541,-0.31541 -0.7,-0.47335 -1.15341,-0.47335 z"
             style="font-size:29.5707px;line-height:100%;font-family:'Albertus Extra Bold';-inkscape-font-specification:'Albertus Extra Bold, ';letter-spacing:0px;opacity:1;fill:#ffffff;stroke-width:2"
             id="path2" /></g></g></g></g></svg>
