<svg width="19" height="17" viewBox="0 0 19 17" fill="none" xmlns="http://www.w3.org/2000/svg">
<path d="M17.5 14.5C17.7567 14.5002 18.0037 14.5992 18.1895 14.7764C18.3753 14.9536 18.4857 15.1957 18.498 15.4521C18.5103 15.7086 18.4238 15.9601 18.2559 16.1543C18.0894 16.3468 17.8555 16.4669 17.6025 16.4932L17.4932 16.5H1.5L1.4043 16.4951C1.18254 16.4736 0.973119 16.3786 0.810547 16.2236C0.624749 16.0464 0.514292 15.8043 0.501953 15.5479C0.489667 15.2914 0.576205 15.0399 0.744141 14.8457C0.910419 14.6534 1.14387 14.5323 1.39648 14.5059L1.50684 14.5H17.5ZM1.5 7.5H17.5C17.7652 7.5 18.0195 7.60543 18.207 7.79297C18.3946 7.98051 18.5 8.23478 18.5 8.5C18.5 8.76522 18.3946 9.01949 18.207 9.20703C18.0195 9.39457 17.7652 9.5 17.5 9.5H1.5L1.40137 9.49512C1.17237 9.47243 0.957112 9.37117 0.792969 9.20703C0.605432 9.01949 0.5 8.76522 0.5 8.5C0.5 8.23478 0.605432 7.98051 0.792969 7.79297C0.957112 7.62883 1.17237 7.52757 1.40137 7.50488L1.5 7.5ZM1.5 0.5H17.5C17.7652 0.5 18.0195 0.605432 18.207 0.792969C18.3946 0.980506 18.5 1.23478 18.5 1.5C18.5 1.76522 18.3946 2.01949 18.207 2.20703C18.0195 2.39457 17.7652 2.5 17.5 2.5H1.5C1.23478 2.5 0.980505 2.39457 0.792969 2.20703C0.605432 2.01949 0.5 1.76522 0.5 1.5C0.5 1.23478 0.605432 0.980505 0.792969 0.792969C0.957112 0.628826 1.17237 0.527573 1.40137 0.504883L1.5 0.5Z" fill="white" stroke="white"/>
</svg>
