<svg width="50" height="50" viewBox="0 0 50 50" fill="none" xmlns="http://www.w3.org/2000/svg">
<path d="M30 42.5C30 45.25 25 47.5 25 47.5C25 47.5 20 45.25 20 42.5M25 17.5C24.0134 17.4747 23.0742 17.0715 22.3764 16.3736C21.6785 15.6758 21.2753 14.7366 21.25 13.75C21.25 12.7554 21.6451 11.8016 22.3483 11.0983C23.0516 10.3951 24.0054 10 25 10C25.9946 10 26.9484 10.3951 27.6517 11.0983C28.3549 11.8016 28.75 12.7554 28.75 13.75C28.7247 14.7366 28.3215 15.6758 27.6236 16.3736C26.9258 17.0715 25.9866 17.4747 25 17.5ZM33.25 29.25C35.25 19.75 31.75 2.5 25 2.5C18.25 2.5 14.5 19.25 16.5 28.75L12.5 37.5H19.25L20 40H30C30.5 39.25 30.25 38.75 30.75 37.5H37.5L33.25 29.25Z" fill="white"/>
</svg>
