<svg width="756" height="59" viewBox="0 0 756 59" fill="none" xmlns="http://www.w3.org/2000/svg">
<rect width="227" height="59" fill="#1C1C1C"/>
<rect x="261" width="227" height="59" fill="#1C1C1C"/>
<rect x="529" width="227" height="59" fill="#1C1C1C"/>
<path d="M40.48 37V23H45.4C46.3867 23 47.2 23.16 47.84 23.48C48.4933 23.7867 48.98 24.2133 49.3 24.76C49.62 25.2933 49.78 25.8933 49.78 26.56C49.78 27.28 49.62 27.88 49.3 28.36C48.9933 28.84 48.5867 29.2067 48.08 29.46C47.5867 29.7133 47.06 29.8667 46.5 29.92L46.78 29.72C47.38 29.7333 47.9333 29.8933 48.44 30.2C48.9467 30.5067 49.3467 30.92 49.64 31.44C49.9467 31.96 50.1 32.54 50.1 33.18C50.1 33.8867 49.9267 34.5333 49.58 35.12C49.2333 35.6933 48.72 36.1533 48.04 36.5C47.3733 36.8333 46.5467 37 45.56 37H40.48ZM42.16 35.6H45.38C46.3267 35.6 47.06 35.38 47.58 34.94C48.1133 34.4867 48.38 33.86 48.38 33.06C48.38 32.2733 48.1067 31.6467 47.56 31.18C47.0267 30.7 46.2867 30.46 45.34 30.46H42.16V35.6ZM42.16 29.12H45.28C46.1867 29.12 46.8733 28.9067 47.34 28.48C47.82 28.0533 48.06 27.4733 48.06 26.74C48.06 26.0333 47.82 25.4667 47.34 25.04C46.8733 24.6133 46.1667 24.4 45.22 24.4H42.16V29.12ZM52.4113 37V27.02H53.9313L54.0713 28.94C54.2846 28.4867 54.5646 28.1 54.9113 27.78C55.2713 27.46 55.6913 27.2133 56.1712 27.04C56.6646 26.8667 57.2246 26.78 57.8513 26.78V28.54H57.3313C56.8913 28.54 56.4713 28.6 56.0713 28.72C55.6846 28.8267 55.3379 29.0067 55.0313 29.26C54.7379 29.5133 54.5046 29.86 54.3313 30.3C54.1713 30.7267 54.0913 31.2667 54.0913 31.92V37H52.4113ZM63.0355 37.24C62.2088 37.24 61.5221 37.1 60.9755 36.82C60.4421 36.54 60.0421 36.1667 59.7755 35.7C59.5088 35.22 59.3755 34.7067 59.3755 34.16C59.3755 33.48 59.5488 32.9067 59.8955 32.44C60.2555 31.9733 60.7555 31.6133 61.3955 31.36C62.0355 31.1067 62.7955 30.98 63.6755 30.98H66.3555C66.3555 30.3667 66.2555 29.8533 66.0555 29.44C65.8688 29.0267 65.5888 28.72 65.2155 28.52C64.8421 28.3067 64.3888 28.2 63.8555 28.2C63.2155 28.2 62.6555 28.3667 62.1755 28.7C61.6955 29.02 61.4021 29.4867 61.2955 30.1H59.5755C59.6555 29.38 59.9021 28.78 60.3155 28.3C60.7288 27.8067 61.2488 27.4333 61.8755 27.18C62.5021 26.9133 63.1621 26.78 63.8555 26.78C64.7755 26.78 65.5421 26.9533 66.1555 27.3C66.7821 27.6333 67.2488 28.1067 67.5555 28.72C67.8755 29.32 68.0355 30.0267 68.0355 30.84V37H66.5355L66.4355 35.22C66.3021 35.5 66.1288 35.7667 65.9155 36.02C65.7155 36.26 65.4755 36.4733 65.1955 36.66C64.9288 36.8333 64.6155 36.9733 64.2555 37.08C63.8955 37.1867 63.4888 37.24 63.0355 37.24ZM63.2955 35.82C63.7755 35.82 64.2021 35.7267 64.5755 35.54C64.9621 35.34 65.2888 35.0733 65.5555 34.74C65.8221 34.4067 66.0221 34.0333 66.1555 33.62C66.2888 33.2067 66.3555 32.7733 66.3555 32.32V32.28H63.8155C63.1621 32.28 62.6355 32.36 62.2355 32.52C61.8488 32.68 61.5688 32.8933 61.3955 33.16C61.2221 33.4267 61.1355 33.7333 61.1355 34.08C61.1355 34.4267 61.2155 34.7333 61.3755 35C61.5355 35.2667 61.7755 35.4733 62.0955 35.62C62.4288 35.7533 62.8288 35.82 63.2955 35.82ZM70.5948 37V27.02H72.1148L72.2148 28.78C72.5348 28.1667 72.9948 27.68 73.5948 27.32C74.1948 26.96 74.8748 26.78 75.6348 26.78C76.4215 26.78 77.1015 26.94 77.6748 27.26C78.2482 27.5667 78.6948 28.04 79.0148 28.68C79.3348 29.32 79.4948 30.1267 79.4948 31.1V37H77.8148V31.28C77.8148 30.2667 77.5882 29.5067 77.1348 29C76.6948 28.48 76.0682 28.22 75.2548 28.22C74.6815 28.22 74.1682 28.36 73.7148 28.64C73.2748 28.9067 72.9215 29.3067 72.6548 29.84C72.4015 30.36 72.2748 31 72.2748 31.76V37H70.5948ZM86.5397 37.24C85.5664 37.24 84.7064 37.0133 83.9597 36.56C83.2264 36.1067 82.653 35.4867 82.2397 34.7C81.8397 33.9 81.6397 32.9933 81.6397 31.98C81.6397 30.98 81.8397 30.0867 82.2397 29.3C82.653 28.5133 83.233 27.9 83.9797 27.46C84.7264 27.0067 85.5864 26.78 86.5597 26.78C87.373 26.78 88.093 26.9467 88.7197 27.28C89.3597 27.6133 89.8464 28.08 90.1797 28.68V22.6H91.8597V37H90.3397L90.1797 35.36C89.9664 35.68 89.693 35.9867 89.3597 36.28C89.0264 36.56 88.6264 36.7933 88.1597 36.98C87.693 37.1533 87.153 37.24 86.5397 37.24ZM86.7397 35.78C87.4064 35.78 87.993 35.6267 88.4997 35.32C89.0064 35 89.3997 34.56 89.6797 34C89.973 33.4267 90.1197 32.76 90.1197 32C90.1197 31.2533 89.973 30.6 89.6797 30.04C89.3997 29.4667 89.0064 29.0267 88.4997 28.72C87.993 28.4 87.4064 28.24 86.7397 28.24C86.0864 28.24 85.4997 28.4 84.9797 28.72C84.473 29.0267 84.073 29.4667 83.7797 30.04C83.4997 30.6 83.3597 31.2533 83.3597 32C83.3597 32.76 83.4997 33.4267 83.7797 34C84.073 34.56 84.473 35 84.9797 35.32C85.4997 35.6267 86.0864 35.78 86.7397 35.78ZM94.7983 37V27.02H96.4783V37H94.7983ZM95.6383 24.84C95.3049 24.84 95.0249 24.7333 94.7983 24.52C94.5849 24.2933 94.4783 24.0133 94.4783 23.68C94.4783 23.3467 94.5849 23.08 94.7983 22.88C95.0249 22.6667 95.3049 22.56 95.6383 22.56C95.9583 22.56 96.2316 22.6667 96.4583 22.88C96.6849 23.08 96.7983 23.3467 96.7983 23.68C96.7983 24.0133 96.6849 24.2933 96.4583 24.52C96.2316 24.7333 95.9583 24.84 95.6383 24.84ZM99.4034 37V27.02H100.923L101.023 28.78C101.343 28.1667 101.803 27.68 102.403 27.32C103.003 26.96 103.683 26.78 104.443 26.78C105.23 26.78 105.91 26.94 106.483 27.26C107.057 27.5667 107.503 28.04 107.823 28.68C108.143 29.32 108.303 30.1267 108.303 31.1V37H106.623V31.28C106.623 30.2667 106.397 29.5067 105.943 29C105.503 28.48 104.877 28.22 104.063 28.22C103.49 28.22 102.977 28.36 102.523 28.64C102.083 28.9067 101.73 29.3067 101.463 29.84C101.21 30.36 101.083 31 101.083 31.76V37H99.4034ZM114.828 41.64C113.935 41.64 113.135 41.52 112.428 41.28C111.735 41.0533 111.195 40.7 110.808 40.22C110.422 39.74 110.228 39.1467 110.228 38.44C110.228 38.1467 110.288 37.8267 110.408 37.48C110.542 37.1333 110.762 36.7933 111.068 36.46C111.388 36.1267 111.835 35.8267 112.408 35.56L113.548 36.24C112.868 36.5333 112.415 36.8667 112.188 37.24C111.975 37.6267 111.868 37.9733 111.868 38.28C111.868 38.72 111.995 39.0867 112.248 39.38C112.502 39.6733 112.855 39.8933 113.308 40.04C113.762 40.1867 114.268 40.26 114.828 40.26C115.388 40.26 115.875 40.1733 116.288 40C116.702 39.84 117.022 39.6133 117.248 39.32C117.475 39.0267 117.588 38.68 117.588 38.28C117.588 37.84 117.415 37.46 117.068 37.14C116.735 36.8333 116.088 36.6533 115.128 36.6C114.342 36.5467 113.682 36.4733 113.148 36.38C112.615 36.2867 112.175 36.18 111.828 36.06C111.482 35.9267 111.188 35.78 110.948 35.62C110.722 35.46 110.515 35.2933 110.328 35.12V34.66L112.288 32.74L113.708 33.26L111.728 35.06L111.988 34.38C112.135 34.4867 112.275 34.5867 112.408 34.68C112.542 34.76 112.722 34.8333 112.948 34.9C113.175 34.9667 113.488 35.0267 113.888 35.08C114.302 35.1333 114.842 35.1867 115.508 35.24C116.402 35.3067 117.122 35.4667 117.668 35.72C118.228 35.9733 118.628 36.3133 118.868 36.74C119.122 37.1667 119.248 37.66 119.248 38.22C119.248 38.7933 119.088 39.34 118.768 39.86C118.462 40.38 117.982 40.8067 117.328 41.14C116.688 41.4733 115.855 41.64 114.828 41.64ZM114.808 33.86C113.968 33.86 113.255 33.7067 112.668 33.4C112.082 33.08 111.635 32.6533 111.328 32.12C111.022 31.5733 110.868 30.9733 110.868 30.32C110.868 29.6667 111.022 29.0733 111.328 28.54C111.635 28.0067 112.082 27.58 112.668 27.26C113.255 26.94 113.968 26.78 114.808 26.78C115.648 26.78 116.362 26.94 116.948 27.26C117.535 27.58 117.982 28.0067 118.288 28.54C118.595 29.0733 118.748 29.6667 118.748 30.32C118.748 30.9733 118.595 31.5733 118.288 32.12C117.982 32.6533 117.535 33.08 116.948 33.4C116.362 33.7067 115.648 33.86 114.808 33.86ZM114.808 32.48C115.515 32.48 116.075 32.3 116.488 31.94C116.915 31.5667 117.128 31.0267 117.128 30.32C117.128 29.6267 116.915 29.1 116.488 28.74C116.075 28.3667 115.515 28.18 114.808 28.18C114.102 28.18 113.535 28.3667 113.108 28.74C112.682 29.1 112.468 29.6267 112.468 30.32C112.468 31.0267 112.682 31.5667 113.108 31.94C113.535 32.3 114.102 32.48 114.808 32.48ZM116.428 28.44L115.928 27.02H120.048V28.28L116.428 28.44ZM127.335 37V23H135.995V24.38H129.015V29.26H135.395V30.62H129.015V35.62H135.995V37H127.335ZM137.564 37L140.984 32L137.564 27.02H139.384L142.144 31.12L144.924 27.02H146.724L143.284 32L146.724 37H144.924L142.144 32.88L139.384 37H137.564ZM148.485 41.4V27.02H150.005L150.165 28.66C150.379 28.34 150.652 28.04 150.985 27.76C151.319 27.4667 151.719 27.2333 152.185 27.06C152.652 26.8733 153.192 26.78 153.805 26.78C154.779 26.78 155.632 27.0133 156.365 27.48C157.099 27.9333 157.665 28.5533 158.065 29.34C158.479 30.1267 158.685 31.0267 158.685 32.04C158.685 33.04 158.479 33.9333 158.065 34.72C157.665 35.5067 157.092 36.1267 156.345 36.58C155.612 37.02 154.759 37.24 153.785 37.24C152.972 37.24 152.252 37.0733 151.625 36.74C150.999 36.4067 150.512 35.94 150.165 35.34V41.4H148.485ZM153.605 35.78C154.259 35.78 154.839 35.6267 155.345 35.32C155.865 35 156.265 34.56 156.545 34C156.839 33.4267 156.985 32.76 156.985 32C156.985 31.2533 156.839 30.6 156.545 30.04C156.265 29.4667 155.865 29.0267 155.345 28.72C154.839 28.4 154.259 28.24 153.605 28.24C152.939 28.24 152.345 28.4 151.825 28.72C151.319 29.0267 150.919 29.4667 150.625 30.04C150.345 30.6 150.205 31.2533 150.205 32C150.205 32.76 150.345 33.4267 150.625 34C150.919 34.56 151.319 35 151.825 35.32C152.345 35.6267 152.939 35.78 153.605 35.78ZM165.485 37.24C164.538 37.24 163.698 37.0267 162.965 36.6C162.231 36.16 161.651 35.5467 161.225 34.76C160.811 33.9733 160.605 33.0533 160.605 32C160.605 30.9467 160.811 30.0333 161.225 29.26C161.638 28.4733 162.211 27.8667 162.945 27.44C163.691 27 164.551 26.78 165.525 26.78C166.498 26.78 167.331 27 168.025 27.44C168.718 27.8667 169.245 28.4333 169.605 29.14C169.978 29.8467 170.165 30.62 170.165 31.46C170.165 31.5933 170.165 31.7333 170.165 31.88C170.165 32.0267 170.158 32.1933 170.145 32.38H161.865V31.08H168.505C168.478 30.1733 168.178 29.4667 167.605 28.96C167.045 28.4533 166.338 28.2 165.485 28.2C164.911 28.2 164.378 28.3267 163.885 28.58C163.391 28.8333 162.991 29.2067 162.685 29.7C162.391 30.1933 162.245 30.8067 162.245 31.54V32.1C162.245 32.9267 162.398 33.62 162.705 34.18C163.011 34.7267 163.411 35.14 163.905 35.42C164.398 35.6867 164.925 35.82 165.485 35.82C166.178 35.82 166.751 35.6667 167.205 35.36C167.671 35.04 168.011 34.6067 168.225 34.06H169.885C169.711 34.66 169.425 35.2 169.025 35.68C168.638 36.16 168.145 36.54 167.545 36.82C166.958 37.1 166.271 37.24 165.485 37.24ZM172.411 37V27.02H173.931L174.071 28.94C174.285 28.4867 174.565 28.1 174.911 27.78C175.271 27.46 175.691 27.2133 176.171 27.04C176.665 26.8667 177.225 26.78 177.851 26.78V28.54H177.331C176.891 28.54 176.471 28.6 176.071 28.72C175.685 28.8267 175.338 29.0067 175.031 29.26C174.738 29.5133 174.505 29.86 174.331 30.3C174.171 30.7267 174.091 31.2667 174.091 31.92V37H172.411ZM183.675 37C183.075 37 182.555 36.9067 182.115 36.72C181.675 36.5333 181.335 36.22 181.095 35.78C180.869 35.3267 180.755 34.72 180.755 33.96V28.44H179.015V27.02H180.755L180.975 24.62H182.435V27.02H185.355V28.44H182.435V33.96C182.435 34.5867 182.562 35.0133 182.815 35.24C183.069 35.4533 183.515 35.56 184.155 35.56H185.215V37H183.675Z" fill="white"/>
<path d="M315.54 37.24C314.58 37.24 313.707 37.0467 312.92 36.66C312.147 36.2733 311.527 35.6867 311.06 34.9C310.593 34.1 310.36 33.08 310.36 31.84V23H312.04V31.86C312.04 32.7667 312.187 33.5067 312.48 34.08C312.787 34.6533 313.207 35.0733 313.74 35.34C314.273 35.6067 314.887 35.74 315.58 35.74C316.287 35.74 316.9 35.6067 317.42 35.34C317.94 35.0733 318.347 34.6533 318.64 34.08C318.933 33.5067 319.08 32.7667 319.08 31.86V23H320.76V31.84C320.76 33.08 320.527 34.1 320.06 34.9C319.593 35.6867 318.967 36.2733 318.18 36.66C317.393 37.0467 316.513 37.24 315.54 37.24ZM323.605 37V23H325.285V37H323.605ZM333.333 37.24C332.373 37.24 331.5 37.0467 330.713 36.66C329.94 36.2733 329.32 35.6867 328.853 34.9C328.386 34.1 328.153 33.08 328.153 31.84V23H329.833V31.86C329.833 32.7667 329.98 33.5067 330.273 34.08C330.58 34.6533 331 35.0733 331.533 35.34C332.066 35.6067 332.68 35.74 333.373 35.74C334.08 35.74 334.693 35.6067 335.213 35.34C335.733 35.0733 336.14 34.6533 336.433 34.08C336.726 33.5067 336.873 32.7667 336.873 31.86V23H338.553V31.84C338.553 33.08 338.32 34.1 337.853 34.9C337.386 35.6867 336.76 36.2733 335.973 36.66C335.186 37.0467 334.306 37.24 333.333 37.24ZM340.678 37L344.958 29.94L340.678 23H342.578L346.018 28.58L349.298 23H351.178L346.898 30L351.198 37H349.298L345.838 31.36L342.578 37H340.678ZM358.722 37V23H362.962C364.602 23 365.956 23.2867 367.022 23.86C368.089 24.42 368.876 25.2267 369.382 26.28C369.902 27.32 370.162 28.5733 370.162 30.04C370.162 31.48 369.902 32.72 369.382 33.76C368.876 34.8 368.089 35.6 367.022 36.16C365.956 36.72 364.602 37 362.962 37H358.722ZM360.402 35.6H362.922C364.282 35.6 365.362 35.38 366.162 34.94C366.976 34.4867 367.556 33.8467 367.902 33.02C368.249 32.18 368.422 31.1867 368.422 30.04C368.422 28.8667 368.249 27.86 367.902 27.02C367.556 26.18 366.976 25.5333 366.162 25.08C365.362 24.6267 364.282 24.4 362.922 24.4H360.402V35.6ZM376.949 37.24C376.003 37.24 375.163 37.0267 374.429 36.6C373.696 36.16 373.116 35.5467 372.689 34.76C372.276 33.9733 372.069 33.0533 372.069 32C372.069 30.9467 372.276 30.0333 372.689 29.26C373.103 28.4733 373.676 27.8667 374.409 27.44C375.156 27 376.016 26.78 376.989 26.78C377.963 26.78 378.796 27 379.489 27.44C380.183 27.8667 380.709 28.4333 381.069 29.14C381.443 29.8467 381.629 30.62 381.629 31.46C381.629 31.5933 381.629 31.7333 381.629 31.88C381.629 32.0267 381.623 32.1933 381.609 32.38H373.329V31.08H379.969C379.943 30.1733 379.643 29.4667 379.069 28.96C378.509 28.4533 377.803 28.2 376.949 28.2C376.376 28.2 375.843 28.3267 375.349 28.58C374.856 28.8333 374.456 29.2067 374.149 29.7C373.856 30.1933 373.709 30.8067 373.709 31.54V32.1C373.709 32.9267 373.863 33.62 374.169 34.18C374.476 34.7267 374.876 35.14 375.369 35.42C375.863 35.6867 376.389 35.82 376.949 35.82C377.643 35.82 378.216 35.6667 378.669 35.36C379.136 35.04 379.476 34.6067 379.689 34.06H381.349C381.176 34.66 380.889 35.2 380.489 35.68C380.103 36.16 379.609 36.54 379.009 36.82C378.423 37.1 377.736 37.24 376.949 37.24ZM387.676 37.24C386.876 37.24 386.163 37.1067 385.536 36.84C384.909 36.56 384.409 36.1733 384.036 35.68C383.663 35.1733 383.429 34.58 383.336 33.9H385.056C385.136 34.2467 385.283 34.5667 385.496 34.86C385.723 35.1533 386.016 35.3867 386.376 35.56C386.749 35.7333 387.189 35.82 387.696 35.82C388.176 35.82 388.563 35.7533 388.856 35.62C389.163 35.4733 389.389 35.2867 389.536 35.06C389.696 34.82 389.776 34.56 389.776 34.28C389.776 33.88 389.676 33.5733 389.476 33.36C389.289 33.1467 389.009 32.98 388.636 32.86C388.263 32.74 387.816 32.6267 387.296 32.52C386.869 32.44 386.443 32.3333 386.016 32.2C385.603 32.0667 385.229 31.9 384.896 31.7C384.563 31.4867 384.296 31.22 384.096 30.9C383.896 30.58 383.796 30.1933 383.796 29.74C383.796 29.1667 383.943 28.66 384.236 28.22C384.529 27.7667 384.943 27.4133 385.476 27.16C386.023 26.9067 386.669 26.78 387.416 26.78C388.469 26.78 389.329 27.04 389.996 27.56C390.676 28.08 391.069 28.8333 391.176 29.82H389.516C389.463 29.3133 389.249 28.92 388.876 28.64C388.516 28.3467 388.023 28.2 387.396 28.2C386.769 28.2 386.296 28.3267 385.976 28.58C385.656 28.8333 385.496 29.1667 385.496 29.58C385.496 29.8333 385.583 30.06 385.756 30.26C385.943 30.46 386.209 30.6333 386.556 30.78C386.916 30.9133 387.349 31.0267 387.856 31.12C388.496 31.2533 389.089 31.42 389.636 31.62C390.183 31.8067 390.629 32.0933 390.976 32.48C391.323 32.8667 391.496 33.42 391.496 34.14C391.509 34.7533 391.356 35.2933 391.036 35.76C390.716 36.2267 390.269 36.5933 389.696 36.86C389.136 37.1133 388.463 37.24 387.676 37.24ZM394.076 37V27.02H395.756V37H394.076ZM394.916 24.84C394.582 24.84 394.302 24.7333 394.076 24.52C393.862 24.2933 393.756 24.0133 393.756 23.68C393.756 23.3467 393.862 23.08 394.076 22.88C394.302 22.6667 394.582 22.56 394.916 22.56C395.236 22.56 395.509 22.6667 395.736 22.88C395.962 23.08 396.076 23.3467 396.076 23.68C396.076 24.0133 395.962 24.2933 395.736 24.52C395.509 24.7333 395.236 24.84 394.916 24.84ZM402.641 41.64C401.747 41.64 400.947 41.52 400.241 41.28C399.547 41.0533 399.007 40.7 398.621 40.22C398.234 39.74 398.041 39.1467 398.041 38.44C398.041 38.1467 398.101 37.8267 398.221 37.48C398.354 37.1333 398.574 36.7933 398.881 36.46C399.201 36.1267 399.647 35.8267 400.221 35.56L401.361 36.24C400.681 36.5333 400.227 36.8667 400.001 37.24C399.787 37.6267 399.681 37.9733 399.681 38.28C399.681 38.72 399.807 39.0867 400.061 39.38C400.314 39.6733 400.667 39.8933 401.121 40.04C401.574 40.1867 402.081 40.26 402.641 40.26C403.201 40.26 403.687 40.1733 404.101 40C404.514 39.84 404.834 39.6133 405.061 39.32C405.287 39.0267 405.401 38.68 405.401 38.28C405.401 37.84 405.227 37.46 404.881 37.14C404.547 36.8333 403.901 36.6533 402.941 36.6C402.154 36.5467 401.494 36.4733 400.961 36.38C400.427 36.2867 399.987 36.18 399.641 36.06C399.294 35.9267 399.001 35.78 398.761 35.62C398.534 35.46 398.327 35.2933 398.141 35.12V34.66L400.101 32.74L401.521 33.26L399.541 35.06L399.801 34.38C399.947 34.4867 400.087 34.5867 400.221 34.68C400.354 34.76 400.534 34.8333 400.761 34.9C400.987 34.9667 401.301 35.0267 401.701 35.08C402.114 35.1333 402.654 35.1867 403.321 35.24C404.214 35.3067 404.934 35.4667 405.481 35.72C406.041 35.9733 406.441 36.3133 406.681 36.74C406.934 37.1667 407.061 37.66 407.061 38.22C407.061 38.7933 406.901 39.34 406.581 39.86C406.274 40.38 405.794 40.8067 405.141 41.14C404.501 41.4733 403.667 41.64 402.641 41.64ZM402.621 33.86C401.781 33.86 401.067 33.7067 400.481 33.4C399.894 33.08 399.447 32.6533 399.141 32.12C398.834 31.5733 398.681 30.9733 398.681 30.32C398.681 29.6667 398.834 29.0733 399.141 28.54C399.447 28.0067 399.894 27.58 400.481 27.26C401.067 26.94 401.781 26.78 402.621 26.78C403.461 26.78 404.174 26.94 404.761 27.26C405.347 27.58 405.794 28.0067 406.101 28.54C406.407 29.0733 406.561 29.6667 406.561 30.32C406.561 30.9733 406.407 31.5733 406.101 32.12C405.794 32.6533 405.347 33.08 404.761 33.4C404.174 33.7067 403.461 33.86 402.621 33.86ZM402.621 32.48C403.327 32.48 403.887 32.3 404.301 31.94C404.727 31.5667 404.941 31.0267 404.941 30.32C404.941 29.6267 404.727 29.1 404.301 28.74C403.887 28.3667 403.327 28.18 402.621 28.18C401.914 28.18 401.347 28.3667 400.921 28.74C400.494 29.1 400.281 29.6267 400.281 30.32C400.281 31.0267 400.494 31.5667 400.921 31.94C401.347 32.3 401.914 32.48 402.621 32.48ZM404.241 28.44L403.741 27.02H407.861V28.28L404.241 28.44ZM409.755 37V27.02H411.275L411.375 28.78C411.695 28.1667 412.155 27.68 412.755 27.32C413.355 26.96 414.035 26.78 414.795 26.78C415.582 26.78 416.262 26.94 416.835 27.26C417.408 27.5667 417.855 28.04 418.175 28.68C418.495 29.32 418.655 30.1267 418.655 31.1V37H416.975V31.28C416.975 30.2667 416.748 29.5067 416.295 29C415.855 28.48 415.228 28.22 414.415 28.22C413.842 28.22 413.328 28.36 412.875 28.64C412.435 28.9067 412.082 29.3067 411.815 29.84C411.562 30.36 411.435 31 411.435 31.76V37H409.755ZM425.68 37.24C424.733 37.24 423.893 37.0267 423.16 36.6C422.427 36.16 421.847 35.5467 421.42 34.76C421.007 33.9733 420.8 33.0533 420.8 32C420.8 30.9467 421.007 30.0333 421.42 29.26C421.833 28.4733 422.407 27.8667 423.14 27.44C423.887 27 424.747 26.78 425.72 26.78C426.693 26.78 427.527 27 428.22 27.44C428.913 27.8667 429.44 28.4333 429.8 29.14C430.173 29.8467 430.36 30.62 430.36 31.46C430.36 31.5933 430.36 31.7333 430.36 31.88C430.36 32.0267 430.353 32.1933 430.34 32.38H422.06V31.08H428.7C428.673 30.1733 428.373 29.4667 427.8 28.96C427.24 28.4533 426.533 28.2 425.68 28.2C425.107 28.2 424.573 28.3267 424.08 28.58C423.587 28.8333 423.187 29.2067 422.88 29.7C422.587 30.1933 422.44 30.8067 422.44 31.54V32.1C422.44 32.9267 422.593 33.62 422.9 34.18C423.207 34.7267 423.607 35.14 424.1 35.42C424.593 35.6867 425.12 35.82 425.68 35.82C426.373 35.82 426.947 35.6667 427.4 35.36C427.867 35.04 428.207 34.6067 428.42 34.06H430.08C429.907 34.66 429.62 35.2 429.22 35.68C428.833 36.16 428.34 36.54 427.74 36.82C427.153 37.1 426.467 37.24 425.68 37.24ZM432.607 37V27.02H434.127L434.267 28.94C434.48 28.4867 434.76 28.1 435.107 27.78C435.467 27.46 435.887 27.2133 436.367 27.04C436.86 26.8667 437.42 26.78 438.047 26.78V28.54H437.527C437.087 28.54 436.667 28.6 436.267 28.72C435.88 28.8267 435.533 29.0067 435.227 29.26C434.933 29.5133 434.7 29.86 434.527 30.3C434.367 30.7267 434.287 31.2667 434.287 31.92V37H432.607Z" fill="white"/>
<path d="M571.5 37.24C570.193 37.24 569.047 36.94 568.06 36.34C567.073 35.7267 566.307 34.88 565.76 33.8C565.213 32.72 564.94 31.46 564.94 30.02C564.94 28.5933 565.213 27.3333 565.76 26.24C566.32 25.1467 567.107 24.2933 568.12 23.68C569.147 23.0667 570.353 22.76 571.74 22.76C573.313 22.76 574.627 23.14 575.68 23.9C576.733 24.6467 577.407 25.6933 577.7 27.04H575.76C575.573 26.2 575.133 25.5333 574.44 25.04C573.747 24.5467 572.847 24.3 571.74 24.3C570.713 24.3 569.813 24.5333 569.04 25C568.28 25.4533 567.693 26.1067 567.28 26.96C566.867 27.8133 566.66 28.8333 566.66 30.02C566.66 31.2067 566.867 32.2333 567.28 33.1C567.693 33.9533 568.267 34.6067 569 35.06C569.747 35.5133 570.6 35.74 571.56 35.74C573.053 35.74 574.18 35.3 574.94 34.42C575.7 33.54 576.133 32.3467 576.24 30.84H572.2V29.52H577.96V37H576.42L576.28 34.7C575.947 35.2467 575.56 35.7133 575.12 36.1C574.693 36.4733 574.187 36.76 573.6 36.96C573.013 37.1467 572.313 37.24 571.5 37.24ZM580.536 37V27.02H582.056L582.196 28.94C582.41 28.4867 582.69 28.1 583.036 27.78C583.396 27.46 583.816 27.2133 584.296 27.04C584.79 26.8667 585.35 26.78 585.976 26.78V28.54H585.456C585.016 28.54 584.596 28.6 584.196 28.72C583.81 28.8267 583.463 29.0067 583.156 29.26C582.863 29.5133 582.63 29.86 582.456 30.3C582.296 30.7267 582.216 31.2667 582.216 31.92V37H580.536ZM591.16 37.24C590.334 37.24 589.647 37.1 589.1 36.82C588.567 36.54 588.167 36.1667 587.9 35.7C587.634 35.22 587.5 34.7067 587.5 34.16C587.5 33.48 587.674 32.9067 588.02 32.44C588.38 31.9733 588.88 31.6133 589.52 31.36C590.16 31.1067 590.92 30.98 591.8 30.98H594.48C594.48 30.3667 594.38 29.8533 594.18 29.44C593.994 29.0267 593.714 28.72 593.34 28.52C592.967 28.3067 592.514 28.2 591.98 28.2C591.34 28.2 590.78 28.3667 590.3 28.7C589.82 29.02 589.527 29.4867 589.42 30.1H587.7C587.78 29.38 588.027 28.78 588.44 28.3C588.854 27.8067 589.374 27.4333 590 27.18C590.627 26.9133 591.287 26.78 591.98 26.78C592.9 26.78 593.667 26.9533 594.28 27.3C594.907 27.6333 595.374 28.1067 595.68 28.72C596 29.32 596.16 30.0267 596.16 30.84V37H594.66L594.56 35.22C594.427 35.5 594.254 35.7667 594.04 36.02C593.84 36.26 593.6 36.4733 593.32 36.66C593.054 36.8333 592.74 36.9733 592.38 37.08C592.02 37.1867 591.614 37.24 591.16 37.24ZM591.42 35.82C591.9 35.82 592.327 35.7267 592.7 35.54C593.087 35.34 593.414 35.0733 593.68 34.74C593.947 34.4067 594.147 34.0333 594.28 33.62C594.414 33.2067 594.48 32.7733 594.48 32.32V32.28H591.94C591.287 32.28 590.76 32.36 590.36 32.52C589.974 32.68 589.694 32.8933 589.52 33.16C589.347 33.4267 589.26 33.7333 589.26 34.08C589.26 34.4267 589.34 34.7333 589.5 35C589.66 35.2667 589.9 35.4733 590.22 35.62C590.554 35.7533 590.954 35.82 591.42 35.82ZM598.72 41.4V27.02H600.24L600.4 28.66C600.613 28.34 600.887 28.04 601.22 27.76C601.553 27.4667 601.953 27.2333 602.42 27.06C602.887 26.8733 603.427 26.78 604.04 26.78C605.013 26.78 605.867 27.0133 606.6 27.48C607.333 27.9333 607.9 28.5533 608.3 29.34C608.713 30.1267 608.92 31.0267 608.92 32.04C608.92 33.04 608.713 33.9333 608.3 34.72C607.9 35.5067 607.327 36.1267 606.58 36.58C605.847 37.02 604.993 37.24 604.02 37.24C603.207 37.24 602.487 37.0733 601.86 36.74C601.233 36.4067 600.747 35.94 600.4 35.34V41.4H598.72ZM603.84 35.78C604.493 35.78 605.073 35.6267 605.58 35.32C606.1 35 606.5 34.56 606.78 34C607.073 33.4267 607.22 32.76 607.22 32C607.22 31.2533 607.073 30.6 606.78 30.04C606.5 29.4667 606.1 29.0267 605.58 28.72C605.073 28.4 604.493 28.24 603.84 28.24C603.173 28.24 602.58 28.4 602.06 28.72C601.553 29.0267 601.153 29.4667 600.86 30.04C600.58 30.6 600.44 31.2533 600.44 32C600.44 32.76 600.58 33.4267 600.86 34C601.153 34.56 601.553 35 602.06 35.32C602.58 35.6267 603.173 35.78 603.84 35.78ZM611.259 37V22.6H612.939V28.72C613.272 28.1067 613.739 27.6333 614.339 27.3C614.952 26.9533 615.626 26.78 616.359 26.78C617.119 26.78 617.786 26.94 618.359 27.26C618.932 27.5667 619.372 28.04 619.679 28.68C619.999 29.32 620.159 30.1333 620.159 31.12V37H618.499V31.3C618.499 30.2733 618.286 29.5067 617.859 29C617.432 28.48 616.812 28.22 615.999 28.22C615.426 28.22 614.906 28.36 614.439 28.64C613.972 28.92 613.606 29.32 613.339 29.84C613.072 30.36 612.939 31.0067 612.939 31.78V37H611.259ZM622.904 37V27.02H624.584V37H622.904ZM623.744 24.84C623.41 24.84 623.13 24.7333 622.904 24.52C622.69 24.2933 622.584 24.0133 622.584 23.68C622.584 23.3467 622.69 23.08 622.904 22.88C623.13 22.6667 623.41 22.56 623.744 22.56C624.064 22.56 624.337 22.6667 624.564 22.88C624.79 23.08 624.904 23.3467 624.904 23.68C624.904 24.0133 624.79 24.2933 624.564 24.52C624.337 24.7333 624.064 24.84 623.744 24.84ZM632.069 37.24C631.122 37.24 630.269 37.02 629.509 36.58C628.762 36.14 628.169 35.5333 627.729 34.76C627.302 33.9733 627.089 33.06 627.089 32.02C627.089 30.9667 627.302 30.0533 627.729 29.28C628.169 28.4933 628.762 27.88 629.509 27.44C630.269 27 631.122 26.78 632.069 26.78C633.256 26.78 634.249 27.0867 635.049 27.7C635.849 28.3133 636.356 29.14 636.569 30.18H634.849C634.716 29.5533 634.389 29.0733 633.869 28.74C633.349 28.3933 632.742 28.22 632.049 28.22C631.489 28.22 630.962 28.36 630.469 28.64C629.976 28.92 629.576 29.3467 629.269 29.92C628.962 30.48 628.809 31.1733 628.809 32C628.809 32.6267 628.896 33.18 629.069 33.66C629.256 34.1267 629.496 34.5267 629.789 34.86C630.096 35.18 630.442 35.42 630.829 35.58C631.229 35.74 631.636 35.82 632.049 35.82C632.516 35.82 632.942 35.7467 633.329 35.6C633.716 35.44 634.042 35.2133 634.309 34.92C634.576 34.6133 634.756 34.2533 634.849 33.84H636.569C636.356 34.8533 635.849 35.6733 635.049 36.3C634.249 36.9267 633.256 37.24 632.069 37.24ZM644.328 37V23H648.568C650.208 23 651.561 23.2867 652.628 23.86C653.694 24.42 654.481 25.2267 654.988 26.28C655.508 27.32 655.768 28.5733 655.768 30.04C655.768 31.48 655.508 32.72 654.988 33.76C654.481 34.8 653.694 35.6 652.628 36.16C651.561 36.72 650.208 37 648.568 37H644.328ZM646.008 35.6H648.528C649.888 35.6 650.968 35.38 651.768 34.94C652.581 34.4867 653.161 33.8467 653.508 33.02C653.854 32.18 654.028 31.1867 654.028 30.04C654.028 28.8667 653.854 27.86 653.508 27.02C653.161 26.18 652.581 25.5333 651.768 25.08C650.968 24.6267 649.888 24.4 648.528 24.4H646.008V35.6ZM662.555 37.24C661.608 37.24 660.768 37.0267 660.035 36.6C659.302 36.16 658.722 35.5467 658.295 34.76C657.882 33.9733 657.675 33.0533 657.675 32C657.675 30.9467 657.882 30.0333 658.295 29.26C658.708 28.4733 659.282 27.8667 660.015 27.44C660.762 27 661.622 26.78 662.595 26.78C663.568 26.78 664.402 27 665.095 27.44C665.788 27.8667 666.315 28.4333 666.675 29.14C667.048 29.8467 667.235 30.62 667.235 31.46C667.235 31.5933 667.235 31.7333 667.235 31.88C667.235 32.0267 667.228 32.1933 667.215 32.38H658.935V31.08H665.575C665.548 30.1733 665.248 29.4667 664.675 28.96C664.115 28.4533 663.408 28.2 662.555 28.2C661.982 28.2 661.448 28.3267 660.955 28.58C660.462 28.8333 660.062 29.2067 659.755 29.7C659.462 30.1933 659.315 30.8067 659.315 31.54V32.1C659.315 32.9267 659.468 33.62 659.775 34.18C660.082 34.7267 660.482 35.14 660.975 35.42C661.468 35.6867 661.995 35.82 662.555 35.82C663.248 35.82 663.822 35.6667 664.275 35.36C664.742 35.04 665.082 34.6067 665.295 34.06H666.955C666.782 34.66 666.495 35.2 666.095 35.68C665.708 36.16 665.215 36.54 664.615 36.82C664.028 37.1 663.342 37.24 662.555 37.24ZM673.282 37.24C672.482 37.24 671.768 37.1067 671.142 36.84C670.515 36.56 670.015 36.1733 669.642 35.68C669.268 35.1733 669.035 34.58 668.942 33.9H670.662C670.742 34.2467 670.888 34.5667 671.102 34.86C671.328 35.1533 671.622 35.3867 671.982 35.56C672.355 35.7333 672.795 35.82 673.302 35.82C673.782 35.82 674.168 35.7533 674.462 35.62C674.768 35.4733 674.995 35.2867 675.142 35.06C675.302 34.82 675.382 34.56 675.382 34.28C675.382 33.88 675.282 33.5733 675.082 33.36C674.895 33.1467 674.615 32.98 674.242 32.86C673.868 32.74 673.422 32.6267 672.902 32.52C672.475 32.44 672.048 32.3333 671.622 32.2C671.208 32.0667 670.835 31.9 670.502 31.7C670.168 31.4867 669.902 31.22 669.702 30.9C669.502 30.58 669.402 30.1933 669.402 29.74C669.402 29.1667 669.548 28.66 669.842 28.22C670.135 27.7667 670.548 27.4133 671.082 27.16C671.628 26.9067 672.275 26.78 673.022 26.78C674.075 26.78 674.935 27.04 675.602 27.56C676.282 28.08 676.675 28.8333 676.782 29.82H675.122C675.068 29.3133 674.855 28.92 674.482 28.64C674.122 28.3467 673.628 28.2 673.002 28.2C672.375 28.2 671.902 28.3267 671.582 28.58C671.262 28.8333 671.102 29.1667 671.102 29.58C671.102 29.8333 671.188 30.06 671.362 30.26C671.548 30.46 671.815 30.6333 672.162 30.78C672.522 30.9133 672.955 31.0267 673.462 31.12C674.102 31.2533 674.695 31.42 675.242 31.62C675.788 31.8067 676.235 32.0933 676.582 32.48C676.928 32.8667 677.102 33.42 677.102 34.14C677.115 34.7533 676.962 35.2933 676.642 35.76C676.322 36.2267 675.875 36.5933 675.302 36.86C674.742 37.1133 674.068 37.24 673.282 37.24ZM679.681 37V27.02H681.361V37H679.681ZM680.521 24.84C680.188 24.84 679.908 24.7333 679.681 24.52C679.468 24.2933 679.361 24.0133 679.361 23.68C679.361 23.3467 679.468 23.08 679.681 22.88C679.908 22.6667 680.188 22.56 680.521 22.56C680.841 22.56 681.114 22.6667 681.341 22.88C681.568 23.08 681.681 23.3467 681.681 23.68C681.681 24.0133 681.568 24.2933 681.341 24.52C681.114 24.7333 680.841 24.84 680.521 24.84ZM688.246 41.64C687.353 41.64 686.553 41.52 685.846 41.28C685.153 41.0533 684.613 40.7 684.226 40.22C683.84 39.74 683.646 39.1467 683.646 38.44C683.646 38.1467 683.706 37.8267 683.826 37.48C683.96 37.1333 684.18 36.7933 684.486 36.46C684.806 36.1267 685.253 35.8267 685.826 35.56L686.966 36.24C686.286 36.5333 685.833 36.8667 685.606 37.24C685.393 37.6267 685.286 37.9733 685.286 38.28C685.286 38.72 685.413 39.0867 685.666 39.38C685.92 39.6733 686.273 39.8933 686.726 40.04C687.18 40.1867 687.686 40.26 688.246 40.26C688.806 40.26 689.293 40.1733 689.706 40C690.12 39.84 690.44 39.6133 690.666 39.32C690.893 39.0267 691.006 38.68 691.006 38.28C691.006 37.84 690.833 37.46 690.486 37.14C690.153 36.8333 689.506 36.6533 688.546 36.6C687.76 36.5467 687.1 36.4733 686.566 36.38C686.033 36.2867 685.593 36.18 685.246 36.06C684.9 35.9267 684.606 35.78 684.366 35.62C684.14 35.46 683.933 35.2933 683.746 35.12V34.66L685.706 32.74L687.126 33.26L685.146 35.06L685.406 34.38C685.553 34.4867 685.693 34.5867 685.826 34.68C685.96 34.76 686.14 34.8333 686.366 34.9C686.593 34.9667 686.906 35.0267 687.306 35.08C687.72 35.1333 688.26 35.1867 688.926 35.24C689.82 35.3067 690.54 35.4667 691.086 35.72C691.646 35.9733 692.046 36.3133 692.286 36.74C692.54 37.1667 692.666 37.66 692.666 38.22C692.666 38.7933 692.506 39.34 692.186 39.86C691.88 40.38 691.4 40.8067 690.746 41.14C690.106 41.4733 689.273 41.64 688.246 41.64ZM688.226 33.86C687.386 33.86 686.673 33.7067 686.086 33.4C685.5 33.08 685.053 32.6533 684.746 32.12C684.44 31.5733 684.286 30.9733 684.286 30.32C684.286 29.6667 684.44 29.0733 684.746 28.54C685.053 28.0067 685.5 27.58 686.086 27.26C686.673 26.94 687.386 26.78 688.226 26.78C689.066 26.78 689.78 26.94 690.366 27.26C690.953 27.58 691.4 28.0067 691.706 28.54C692.013 29.0733 692.166 29.6667 692.166 30.32C692.166 30.9733 692.013 31.5733 691.706 32.12C691.4 32.6533 690.953 33.08 690.366 33.4C689.78 33.7067 689.066 33.86 688.226 33.86ZM688.226 32.48C688.933 32.48 689.493 32.3 689.906 31.94C690.333 31.5667 690.546 31.0267 690.546 30.32C690.546 29.6267 690.333 29.1 689.906 28.74C689.493 28.3667 688.933 28.18 688.226 28.18C687.52 28.18 686.953 28.3667 686.526 28.74C686.1 29.1 685.886 29.6267 685.886 30.32C685.886 31.0267 686.1 31.5667 686.526 31.94C686.953 32.3 687.52 32.48 688.226 32.48ZM689.846 28.44L689.346 27.02H693.466V28.28L689.846 28.44ZM695.36 37V27.02H696.88L696.98 28.78C697.3 28.1667 697.76 27.68 698.36 27.32C698.96 26.96 699.64 26.78 700.4 26.78C701.187 26.78 701.867 26.94 702.44 27.26C703.014 27.5667 703.46 28.04 703.78 28.68C704.1 29.32 704.26 30.1267 704.26 31.1V37H702.58V31.28C702.58 30.2667 702.354 29.5067 701.9 29C701.46 28.48 700.834 28.22 700.02 28.22C699.447 28.22 698.934 28.36 698.48 28.64C698.04 28.9067 697.687 29.3067 697.42 29.84C697.167 30.36 697.04 31 697.04 31.76V37H695.36ZM711.285 37.24C710.339 37.24 709.499 37.0267 708.765 36.6C708.032 36.16 707.452 35.5467 707.025 34.76C706.612 33.9733 706.405 33.0533 706.405 32C706.405 30.9467 706.612 30.0333 707.025 29.26C707.439 28.4733 708.012 27.8667 708.745 27.44C709.492 27 710.352 26.78 711.325 26.78C712.299 26.78 713.132 27 713.825 27.44C714.519 27.8667 715.045 28.4333 715.405 29.14C715.779 29.8467 715.965 30.62 715.965 31.46C715.965 31.5933 715.965 31.7333 715.965 31.88C715.965 32.0267 715.959 32.1933 715.945 32.38H707.665V31.08H714.305C714.279 30.1733 713.979 29.4667 713.405 28.96C712.845 28.4533 712.139 28.2 711.285 28.2C710.712 28.2 710.179 28.3267 709.685 28.58C709.192 28.8333 708.792 29.2067 708.485 29.7C708.192 30.1933 708.045 30.8067 708.045 31.54V32.1C708.045 32.9267 708.199 33.62 708.505 34.18C708.812 34.7267 709.212 35.14 709.705 35.42C710.199 35.6867 710.725 35.82 711.285 35.82C711.979 35.82 712.552 35.6667 713.005 35.36C713.472 35.04 713.812 34.6067 714.025 34.06H715.685C715.512 34.66 715.225 35.2 714.825 35.68C714.439 36.16 713.945 36.54 713.345 36.82C712.759 37.1 712.072 37.24 711.285 37.24ZM718.212 37V27.02H719.732L719.872 28.94C720.085 28.4867 720.365 28.1 720.712 27.78C721.072 27.46 721.492 27.2133 721.972 27.04C722.465 26.8667 723.025 26.78 723.652 26.78V28.54H723.132C722.692 28.54 722.272 28.6 721.872 28.72C721.485 28.8267 721.139 29.0067 720.832 29.26C720.539 29.5133 720.305 29.86 720.132 30.3C719.972 30.7267 719.892 31.2667 719.892 31.92V37H718.212Z" fill="white"/>
</svg>
