<svg width="586" height="149" viewBox="0 0 586 149" fill="none" xmlns="http://www.w3.org/2000/svg">
<rect width="276.45" height="59" rx="13" fill="#1C1C1C"/>
<rect y="90" width="276.45" height="59" rx="13" fill="#1C1C1C"/>
<rect x="309" width="276.45" height="59" rx="13" fill="#1C1C1C"/>
<rect x="309" y="90" width="276.45" height="59" rx="13" fill="#1C1C1C"/>
<path d="M30.48 37V23H35.4C36.3867 23 37.2 23.16 37.84 23.48C38.4933 23.7867 38.98 24.2133 39.3 24.76C39.62 25.2933 39.78 25.8933 39.78 26.56C39.78 27.28 39.62 27.88 39.3 28.36C38.9933 28.84 38.5867 29.2067 38.08 29.46C37.5867 29.7133 37.06 29.8667 36.5 29.92L36.78 29.72C37.38 29.7333 37.9333 29.8933 38.44 30.2C38.9467 30.5067 39.3467 30.92 39.64 31.44C39.9467 31.96 40.1 32.54 40.1 33.18C40.1 33.8867 39.9267 34.5333 39.58 35.12C39.2333 35.6933 38.72 36.1533 38.04 36.5C37.3733 36.8333 36.5467 37 35.56 37H30.48ZM32.16 35.6H35.38C36.3267 35.6 37.06 35.38 37.58 34.94C38.1133 34.4867 38.38 33.86 38.38 33.06C38.38 32.2733 38.1067 31.6467 37.56 31.18C37.0267 30.7 36.2867 30.46 35.34 30.46H32.16V35.6ZM32.16 29.12H35.28C36.1867 29.12 36.8733 28.9067 37.34 28.48C37.82 28.0533 38.06 27.4733 38.06 26.74C38.06 26.0333 37.82 25.4667 37.34 25.04C36.8733 24.6133 36.1667 24.4 35.22 24.4H32.16V29.12ZM42.4113 37V27.02H43.9313L44.0713 28.94C44.2846 28.4867 44.5646 28.1 44.9113 27.78C45.2713 27.46 45.6913 27.2133 46.1712 27.04C46.6646 26.8667 47.2246 26.78 47.8513 26.78V28.54H47.3313C46.8913 28.54 46.4713 28.6 46.0713 28.72C45.6846 28.8267 45.3379 29.0067 45.0313 29.26C44.7379 29.5133 44.5046 29.86 44.3313 30.3C44.1713 30.7267 44.0913 31.2667 44.0913 31.92V37H42.4113ZM53.0355 37.24C52.2088 37.24 51.5221 37.1 50.9755 36.82C50.4421 36.54 50.0421 36.1667 49.7755 35.7C49.5088 35.22 49.3755 34.7067 49.3755 34.16C49.3755 33.48 49.5488 32.9067 49.8955 32.44C50.2555 31.9733 50.7555 31.6133 51.3955 31.36C52.0355 31.1067 52.7955 30.98 53.6755 30.98H56.3555C56.3555 30.3667 56.2555 29.8533 56.0555 29.44C55.8688 29.0267 55.5888 28.72 55.2155 28.52C54.8421 28.3067 54.3888 28.2 53.8555 28.2C53.2155 28.2 52.6555 28.3667 52.1755 28.7C51.6955 29.02 51.4021 29.4867 51.2955 30.1H49.5755C49.6555 29.38 49.9021 28.78 50.3155 28.3C50.7288 27.8067 51.2488 27.4333 51.8755 27.18C52.5021 26.9133 53.1621 26.78 53.8555 26.78C54.7755 26.78 55.5421 26.9533 56.1555 27.3C56.7821 27.6333 57.2488 28.1067 57.5555 28.72C57.8755 29.32 58.0355 30.0267 58.0355 30.84V37H56.5355L56.4355 35.22C56.3021 35.5 56.1288 35.7667 55.9155 36.02C55.7155 36.26 55.4755 36.4733 55.1955 36.66C54.9288 36.8333 54.6155 36.9733 54.2555 37.08C53.8955 37.1867 53.4888 37.24 53.0355 37.24ZM53.2955 35.82C53.7755 35.82 54.2021 35.7267 54.5755 35.54C54.9621 35.34 55.2888 35.0733 55.5555 34.74C55.8221 34.4067 56.0221 34.0333 56.1555 33.62C56.2888 33.2067 56.3555 32.7733 56.3555 32.32V32.28H53.8155C53.1621 32.28 52.6355 32.36 52.2355 32.52C51.8488 32.68 51.5688 32.8933 51.3955 33.16C51.2221 33.4267 51.1355 33.7333 51.1355 34.08C51.1355 34.4267 51.2155 34.7333 51.3755 35C51.5355 35.2667 51.7755 35.4733 52.0955 35.62C52.4288 35.7533 52.8288 35.82 53.2955 35.82ZM60.5948 37V27.02H62.1148L62.2148 28.78C62.5348 28.1667 62.9948 27.68 63.5948 27.32C64.1948 26.96 64.8748 26.78 65.6348 26.78C66.4215 26.78 67.1015 26.94 67.6748 27.26C68.2482 27.5667 68.6948 28.04 69.0148 28.68C69.3348 29.32 69.4948 30.1267 69.4948 31.1V37H67.8148V31.28C67.8148 30.2667 67.5882 29.5067 67.1348 29C66.6948 28.48 66.0682 28.22 65.2548 28.22C64.6815 28.22 64.1682 28.36 63.7148 28.64C63.2748 28.9067 62.9215 29.3067 62.6548 29.84C62.4015 30.36 62.2748 31 62.2748 31.76V37H60.5948ZM76.5397 37.24C75.5664 37.24 74.7064 37.0133 73.9597 36.56C73.2264 36.1067 72.653 35.4867 72.2397 34.7C71.8397 33.9 71.6397 32.9933 71.6397 31.98C71.6397 30.98 71.8397 30.0867 72.2397 29.3C72.653 28.5133 73.233 27.9 73.9797 27.46C74.7264 27.0067 75.5864 26.78 76.5597 26.78C77.373 26.78 78.093 26.9467 78.7197 27.28C79.3597 27.6133 79.8464 28.08 80.1797 28.68V22.6H81.8597V37H80.3397L80.1797 35.36C79.9664 35.68 79.693 35.9867 79.3597 36.28C79.0264 36.56 78.6264 36.7933 78.1597 36.98C77.693 37.1533 77.153 37.24 76.5397 37.24ZM76.7397 35.78C77.4064 35.78 77.993 35.6267 78.4997 35.32C79.0064 35 79.3997 34.56 79.6797 34C79.973 33.4267 80.1197 32.76 80.1197 32C80.1197 31.2533 79.973 30.6 79.6797 30.04C79.3997 29.4667 79.0064 29.0267 78.4997 28.72C77.993 28.4 77.4064 28.24 76.7397 28.24C76.0864 28.24 75.4997 28.4 74.9797 28.72C74.473 29.0267 74.073 29.4667 73.7797 30.04C73.4997 30.6 73.3597 31.2533 73.3597 32C73.3597 32.76 73.4997 33.4267 73.7797 34C74.073 34.56 74.473 35 74.9797 35.32C75.4997 35.6267 76.0864 35.78 76.7397 35.78ZM90.0113 37V23H91.6913V37H90.0113ZM99.0592 37.24C98.0859 37.24 97.2259 37.0133 96.4792 36.56C95.7459 36.1067 95.1726 35.4867 94.7592 34.7C94.3592 33.9 94.1592 32.9933 94.1592 31.98C94.1592 30.98 94.3592 30.0867 94.7592 29.3C95.1726 28.5133 95.7526 27.9 96.4992 27.46C97.2459 27.0067 98.1059 26.78 99.0792 26.78C99.8926 26.78 100.613 26.9467 101.239 27.28C101.879 27.6133 102.366 28.08 102.699 28.68V22.6H104.379V37H102.859L102.699 35.36C102.486 35.68 102.213 35.9867 101.879 36.28C101.546 36.56 101.146 36.7933 100.679 36.98C100.213 37.1533 99.6726 37.24 99.0592 37.24ZM99.2592 35.78C99.9259 35.78 100.513 35.6267 101.019 35.32C101.526 35 101.919 34.56 102.199 34C102.493 33.4267 102.639 32.76 102.639 32C102.639 31.2533 102.493 30.6 102.199 30.04C101.919 29.4667 101.526 29.0267 101.019 28.72C100.513 28.4 99.9259 28.24 99.2592 28.24C98.6059 28.24 98.0192 28.4 97.4992 28.72C96.9926 29.0267 96.5926 29.4667 96.2992 30.04C96.0192 30.6 95.8792 31.2533 95.8792 32C95.8792 32.76 96.0192 33.4267 96.2992 34C96.5926 34.56 96.9926 35 97.4992 35.32C98.0192 35.6267 98.6059 35.78 99.2592 35.78ZM111.598 37.24C110.651 37.24 109.811 37.0267 109.078 36.6C108.344 36.16 107.764 35.5467 107.338 34.76C106.924 33.9733 106.718 33.0533 106.718 32C106.718 30.9467 106.924 30.0333 107.338 29.26C107.751 28.4733 108.324 27.8667 109.058 27.44C109.804 27 110.664 26.78 111.638 26.78C112.611 26.78 113.444 27 114.138 27.44C114.831 27.8667 115.358 28.4333 115.718 29.14C116.091 29.8467 116.278 30.62 116.278 31.46C116.278 31.5933 116.278 31.7333 116.278 31.88C116.278 32.0267 116.271 32.1933 116.258 32.38H107.978V31.08H114.618C114.591 30.1733 114.291 29.4667 113.718 28.96C113.158 28.4533 112.451 28.2 111.598 28.2C111.024 28.2 110.491 28.3267 109.998 28.58C109.504 28.8333 109.104 29.2067 108.798 29.7C108.504 30.1933 108.358 30.8067 108.358 31.54V32.1C108.358 32.9267 108.511 33.62 108.818 34.18C109.124 34.7267 109.524 35.14 110.018 35.42C110.511 35.6867 111.038 35.82 111.598 35.82C112.291 35.82 112.864 35.6667 113.318 35.36C113.784 35.04 114.124 34.6067 114.338 34.06H115.998C115.824 34.66 115.538 35.2 115.138 35.68C114.751 36.16 114.258 36.54 113.658 36.82C113.071 37.1 112.384 37.24 111.598 37.24ZM118.525 37V27.02H120.045L120.145 28.78C120.465 28.1667 120.925 27.68 121.525 27.32C122.125 26.96 122.805 26.78 123.565 26.78C124.351 26.78 125.031 26.94 125.605 27.26C126.178 27.5667 126.625 28.04 126.945 28.68C127.265 29.32 127.425 30.1267 127.425 31.1V37H125.745V31.28C125.745 30.2667 125.518 29.5067 125.065 29C124.625 28.48 123.998 28.22 123.185 28.22C122.611 28.22 122.098 28.36 121.645 28.64C121.205 28.9067 120.851 29.3067 120.585 29.84C120.331 30.36 120.205 31 120.205 31.76V37H118.525ZM133.929 37C133.329 37 132.809 36.9067 132.369 36.72C131.929 36.5333 131.589 36.22 131.349 35.78C131.123 35.3267 131.009 34.72 131.009 33.96V28.44H129.269V27.02H131.009L131.229 24.62H132.689V27.02H135.609V28.44H132.689V33.96C132.689 34.5867 132.816 35.0133 133.069 35.24C133.323 35.4533 133.769 35.56 134.409 35.56H135.469V37H133.929ZM137.943 37V27.02H139.623V37H137.943ZM138.783 24.84C138.449 24.84 138.169 24.7333 137.943 24.52C137.729 24.2933 137.623 24.0133 137.623 23.68C137.623 23.3467 137.729 23.08 137.943 22.88C138.169 22.6667 138.449 22.56 138.783 22.56C139.103 22.56 139.376 22.6667 139.603 22.88C139.829 23.08 139.943 23.3467 139.943 23.68C139.943 24.0133 139.829 24.2933 139.603 24.52C139.376 24.7333 139.103 24.84 138.783 24.84ZM146.488 37C145.888 37 145.368 36.9067 144.928 36.72C144.488 36.5333 144.148 36.22 143.908 35.78C143.681 35.3267 143.568 34.72 143.568 33.96V28.44H141.828V27.02H143.568L143.788 24.62H145.248V27.02H148.168V28.44H145.248V33.96C145.248 34.5867 145.375 35.0133 145.628 35.24C145.881 35.4533 146.328 35.56 146.968 35.56H148.028V37H146.488ZM151.421 41.4L153.881 35.88H153.301L149.341 27.02H151.161L154.461 34.64L157.921 27.02H159.661L153.181 41.4H151.421ZM166.828 37V23H171.068C172.708 23 174.061 23.2867 175.128 23.86C176.194 24.42 176.981 25.2267 177.488 26.28C178.008 27.32 178.268 28.5733 178.268 30.04C178.268 31.48 178.008 32.72 177.488 33.76C176.981 34.8 176.194 35.6 175.128 36.16C174.061 36.72 172.708 37 171.068 37H166.828ZM168.508 35.6H171.028C172.388 35.6 173.468 35.38 174.268 34.94C175.081 34.4867 175.661 33.8467 176.008 33.02C176.354 32.18 176.528 31.1867 176.528 30.04C176.528 28.8667 176.354 27.86 176.008 27.02C175.661 26.18 175.081 25.5333 174.268 25.08C173.468 24.6267 172.388 24.4 171.028 24.4H168.508V35.6ZM185.055 37.24C184.108 37.24 183.268 37.0267 182.535 36.6C181.802 36.16 181.222 35.5467 180.795 34.76C180.382 33.9733 180.175 33.0533 180.175 32C180.175 30.9467 180.382 30.0333 180.795 29.26C181.208 28.4733 181.782 27.8667 182.515 27.44C183.262 27 184.122 26.78 185.095 26.78C186.068 26.78 186.902 27 187.595 27.44C188.288 27.8667 188.815 28.4333 189.175 29.14C189.548 29.8467 189.735 30.62 189.735 31.46C189.735 31.5933 189.735 31.7333 189.735 31.88C189.735 32.0267 189.728 32.1933 189.715 32.38H181.435V31.08H188.075C188.048 30.1733 187.748 29.4667 187.175 28.96C186.615 28.4533 185.908 28.2 185.055 28.2C184.482 28.2 183.948 28.3267 183.455 28.58C182.962 28.8333 182.562 29.2067 182.255 29.7C181.962 30.1933 181.815 30.8067 181.815 31.54V32.1C181.815 32.9267 181.968 33.62 182.275 34.18C182.582 34.7267 182.982 35.14 183.475 35.42C183.968 35.6867 184.495 35.82 185.055 35.82C185.748 35.82 186.322 35.6667 186.775 35.36C187.242 35.04 187.582 34.6067 187.795 34.06H189.455C189.282 34.66 188.995 35.2 188.595 35.68C188.208 36.16 187.715 36.54 187.115 36.82C186.528 37.1 185.842 37.24 185.055 37.24ZM195.782 37.24C194.982 37.24 194.268 37.1067 193.642 36.84C193.015 36.56 192.515 36.1733 192.142 35.68C191.768 35.1733 191.535 34.58 191.442 33.9H193.162C193.242 34.2467 193.388 34.5667 193.602 34.86C193.828 35.1533 194.122 35.3867 194.482 35.56C194.855 35.7333 195.295 35.82 195.802 35.82C196.282 35.82 196.668 35.7533 196.962 35.62C197.268 35.4733 197.495 35.2867 197.642 35.06C197.802 34.82 197.882 34.56 197.882 34.28C197.882 33.88 197.782 33.5733 197.582 33.36C197.395 33.1467 197.115 32.98 196.742 32.86C196.368 32.74 195.922 32.6267 195.402 32.52C194.975 32.44 194.548 32.3333 194.122 32.2C193.708 32.0667 193.335 31.9 193.002 31.7C192.668 31.4867 192.402 31.22 192.202 30.9C192.002 30.58 191.902 30.1933 191.902 29.74C191.902 29.1667 192.048 28.66 192.342 28.22C192.635 27.7667 193.048 27.4133 193.582 27.16C194.128 26.9067 194.775 26.78 195.522 26.78C196.575 26.78 197.435 27.04 198.102 27.56C198.782 28.08 199.175 28.8333 199.282 29.82H197.622C197.568 29.3133 197.355 28.92 196.982 28.64C196.622 28.3467 196.128 28.2 195.502 28.2C194.875 28.2 194.402 28.3267 194.082 28.58C193.762 28.8333 193.602 29.1667 193.602 29.58C193.602 29.8333 193.688 30.06 193.862 30.26C194.048 30.46 194.315 30.6333 194.662 30.78C195.022 30.9133 195.455 31.0267 195.962 31.12C196.602 31.2533 197.195 31.42 197.742 31.62C198.288 31.8067 198.735 32.0933 199.082 32.48C199.428 32.8667 199.602 33.42 199.602 34.14C199.615 34.7533 199.462 35.2933 199.142 35.76C198.822 36.2267 198.375 36.5933 197.802 36.86C197.242 37.1133 196.568 37.24 195.782 37.24ZM202.181 37V27.02H203.861V37H202.181ZM203.021 24.84C202.688 24.84 202.408 24.7333 202.181 24.52C201.968 24.2933 201.861 24.0133 201.861 23.68C201.861 23.3467 201.968 23.08 202.181 22.88C202.408 22.6667 202.688 22.56 203.021 22.56C203.341 22.56 203.614 22.6667 203.841 22.88C204.068 23.08 204.181 23.3467 204.181 23.68C204.181 24.0133 204.068 24.2933 203.841 24.52C203.614 24.7333 203.341 24.84 203.021 24.84ZM210.746 41.64C209.853 41.64 209.053 41.52 208.346 41.28C207.653 41.0533 207.113 40.7 206.726 40.22C206.34 39.74 206.146 39.1467 206.146 38.44C206.146 38.1467 206.206 37.8267 206.326 37.48C206.46 37.1333 206.68 36.7933 206.986 36.46C207.306 36.1267 207.753 35.8267 208.326 35.56L209.466 36.24C208.786 36.5333 208.333 36.8667 208.106 37.24C207.893 37.6267 207.786 37.9733 207.786 38.28C207.786 38.72 207.913 39.0867 208.166 39.38C208.42 39.6733 208.773 39.8933 209.226 40.04C209.68 40.1867 210.186 40.26 210.746 40.26C211.306 40.26 211.793 40.1733 212.206 40C212.62 39.84 212.94 39.6133 213.166 39.32C213.393 39.0267 213.506 38.68 213.506 38.28C213.506 37.84 213.333 37.46 212.986 37.14C212.653 36.8333 212.006 36.6533 211.046 36.6C210.26 36.5467 209.6 36.4733 209.066 36.38C208.533 36.2867 208.093 36.18 207.746 36.06C207.4 35.9267 207.106 35.78 206.866 35.62C206.64 35.46 206.433 35.2933 206.246 35.12V34.66L208.206 32.74L209.626 33.26L207.646 35.06L207.906 34.38C208.053 34.4867 208.193 34.5867 208.326 34.68C208.46 34.76 208.64 34.8333 208.866 34.9C209.093 34.9667 209.406 35.0267 209.806 35.08C210.22 35.1333 210.76 35.1867 211.426 35.24C212.32 35.3067 213.04 35.4667 213.586 35.72C214.146 35.9733 214.546 36.3133 214.786 36.74C215.04 37.1667 215.166 37.66 215.166 38.22C215.166 38.7933 215.006 39.34 214.686 39.86C214.38 40.38 213.9 40.8067 213.246 41.14C212.606 41.4733 211.773 41.64 210.746 41.64ZM210.726 33.86C209.886 33.86 209.173 33.7067 208.586 33.4C208 33.08 207.553 32.6533 207.246 32.12C206.94 31.5733 206.786 30.9733 206.786 30.32C206.786 29.6667 206.94 29.0733 207.246 28.54C207.553 28.0067 208 27.58 208.586 27.26C209.173 26.94 209.886 26.78 210.726 26.78C211.566 26.78 212.28 26.94 212.866 27.26C213.453 27.58 213.9 28.0067 214.206 28.54C214.513 29.0733 214.666 29.6667 214.666 30.32C214.666 30.9733 214.513 31.5733 214.206 32.12C213.9 32.6533 213.453 33.08 212.866 33.4C212.28 33.7067 211.566 33.86 210.726 33.86ZM210.726 32.48C211.433 32.48 211.993 32.3 212.406 31.94C212.833 31.5667 213.046 31.0267 213.046 30.32C213.046 29.6267 212.833 29.1 212.406 28.74C211.993 28.3667 211.433 28.18 210.726 28.18C210.02 28.18 209.453 28.3667 209.026 28.74C208.6 29.1 208.386 29.6267 208.386 30.32C208.386 31.0267 208.6 31.5667 209.026 31.94C209.453 32.3 210.02 32.48 210.726 32.48ZM212.346 28.44L211.846 27.02H215.966V28.28L212.346 28.44ZM217.86 37V27.02H219.38L219.48 28.78C219.8 28.1667 220.26 27.68 220.86 27.32C221.46 26.96 222.14 26.78 222.9 26.78C223.687 26.78 224.367 26.94 224.94 27.26C225.514 27.5667 225.96 28.04 226.28 28.68C226.6 29.32 226.76 30.1267 226.76 31.1V37H225.08V31.28C225.08 30.2667 224.854 29.5067 224.4 29C223.96 28.48 223.334 28.22 222.52 28.22C221.947 28.22 221.434 28.36 220.98 28.64C220.54 28.9067 220.187 29.3067 219.92 29.84C219.667 30.36 219.54 31 219.54 31.76V37H217.86ZM233.785 37.24C232.839 37.24 231.999 37.0267 231.265 36.6C230.532 36.16 229.952 35.5467 229.525 34.76C229.112 33.9733 228.905 33.0533 228.905 32C228.905 30.9467 229.112 30.0333 229.525 29.26C229.939 28.4733 230.512 27.8667 231.245 27.44C231.992 27 232.852 26.78 233.825 26.78C234.799 26.78 235.632 27 236.325 27.44C237.019 27.8667 237.545 28.4333 237.905 29.14C238.279 29.8467 238.465 30.62 238.465 31.46C238.465 31.5933 238.465 31.7333 238.465 31.88C238.465 32.0267 238.459 32.1933 238.445 32.38H230.165V31.08H236.805C236.779 30.1733 236.479 29.4667 235.905 28.96C235.345 28.4533 234.639 28.2 233.785 28.2C233.212 28.2 232.679 28.3267 232.185 28.58C231.692 28.8333 231.292 29.2067 230.985 29.7C230.692 30.1933 230.545 30.8067 230.545 31.54V32.1C230.545 32.9267 230.699 33.62 231.005 34.18C231.312 34.7267 231.712 35.14 232.205 35.42C232.699 35.6867 233.225 35.82 233.785 35.82C234.479 35.82 235.052 35.6667 235.505 35.36C235.972 35.04 236.312 34.6067 236.525 34.06H238.185C238.012 34.66 237.725 35.2 237.325 35.68C236.939 36.16 236.445 36.54 235.845 36.82C235.259 37.1 234.572 37.24 233.785 37.24ZM240.712 37V27.02H242.232L242.372 28.94C242.585 28.4867 242.865 28.1 243.212 27.78C243.572 27.46 243.992 27.2133 244.472 27.04C244.965 26.8667 245.525 26.78 246.152 26.78V28.54H245.632C245.192 28.54 244.772 28.6 244.372 28.72C243.985 28.8267 243.639 29.0067 243.332 29.26C243.039 29.5133 242.805 29.86 242.632 30.3C242.472 30.7267 242.392 31.2667 242.392 31.92V37H240.712Z" fill="white"/>
<path d="M39.48 127V113H48V114.38H41.16V119.3H46.98V120.66H41.16V127H39.48ZM50.0831 127V117.02H51.6031L51.7431 118.94C51.9565 118.487 52.2365 118.1 52.5831 117.78C52.9431 117.46 53.3631 117.213 53.8431 117.04C54.3365 116.867 54.8965 116.78 55.5231 116.78V118.54H55.0031C54.5631 118.54 54.1431 118.6 53.7431 118.72C53.3565 118.827 53.0098 119.007 52.7031 119.26C52.4098 119.513 52.1765 119.86 52.0031 120.3C51.8431 120.727 51.7631 121.267 51.7631 121.92V127H50.0831ZM61.5563 127.24C60.6229 127.24 59.7829 127.027 59.0363 126.6C58.2896 126.173 57.6963 125.567 57.2563 124.78C56.8296 123.993 56.6163 123.073 56.6163 122.02C56.6163 120.953 56.8363 120.027 57.2763 119.24C57.7163 118.453 58.3096 117.847 59.0563 117.42C59.8163 116.993 60.6629 116.78 61.5963 116.78C62.5429 116.78 63.3896 116.993 64.1363 117.42C64.8829 117.847 65.4696 118.453 65.8963 119.24C66.3229 120.027 66.5363 120.953 66.5363 122.02C66.5363 123.073 66.3163 123.993 65.8763 124.78C65.4496 125.567 64.8563 126.173 64.0963 126.6C63.3496 127.027 62.5029 127.24 61.5563 127.24ZM61.5563 125.8C62.1429 125.8 62.6829 125.66 63.1763 125.38C63.6696 125.1 64.0629 124.68 64.3563 124.12C64.6629 123.547 64.8163 122.84 64.8163 122C64.8163 121.16 64.6696 120.46 64.3763 119.9C64.0829 119.34 63.6896 118.92 63.1963 118.64C62.7029 118.36 62.1696 118.22 61.5963 118.22C61.0363 118.22 60.5029 118.36 59.9963 118.64C59.5029 118.92 59.1029 119.34 58.7963 119.9C58.4896 120.46 58.3363 121.167 58.3363 122.02C58.3363 122.847 58.4896 123.547 58.7963 124.12C59.1029 124.68 59.4963 125.1 59.9763 125.38C60.4696 125.66 60.9963 125.8 61.5563 125.8ZM68.8917 127V117.02H70.4117L70.5117 118.78C70.8317 118.167 71.2917 117.68 71.8917 117.32C72.4917 116.96 73.1717 116.78 73.9317 116.78C74.7184 116.78 75.3984 116.94 75.9717 117.26C76.5451 117.567 76.9917 118.04 77.3117 118.68C77.6317 119.32 77.7917 120.127 77.7917 121.1V127H76.1117V121.28C76.1117 120.267 75.8851 119.507 75.4317 119C74.9917 118.48 74.3651 118.22 73.5517 118.22C72.9784 118.22 72.4651 118.36 72.0117 118.64C71.5717 118.907 71.2184 119.307 70.9517 119.84C70.6984 120.36 70.5717 121 70.5717 121.76V127H68.8917ZM84.2966 127C83.6966 127 83.1766 126.907 82.7366 126.72C82.2966 126.533 81.9566 126.22 81.7166 125.78C81.4899 125.327 81.3766 124.72 81.3766 123.96V118.44H79.6366V117.02H81.3766L81.5966 114.62H83.0566V117.02H85.9766V118.44H83.0566V123.96C83.0566 124.587 83.1832 125.013 83.4366 125.24C83.6899 125.453 84.1366 125.56 84.7766 125.56H85.8366V127H84.2966ZM88.21 121.86V120.44H96.13V121.86H88.21ZM99.0698 127V113H107.73V114.38H100.75V119.26H107.13V120.62H100.75V125.62H107.73V127H99.0698ZM110.278 127V117.02H111.798L111.898 118.78C112.218 118.167 112.678 117.68 113.278 117.32C113.878 116.96 114.558 116.78 115.318 116.78C116.105 116.78 116.785 116.94 117.358 117.26C117.932 117.567 118.378 118.04 118.698 118.68C119.018 119.32 119.178 120.127 119.178 121.1V127H117.498V121.28C117.498 120.267 117.272 119.507 116.818 119C116.378 118.48 115.752 118.22 114.938 118.22C114.365 118.22 113.852 118.36 113.398 118.64C112.958 118.907 112.605 119.307 112.338 119.84C112.085 120.36 111.958 121 111.958 121.76V127H110.278ZM126.223 127.24C125.25 127.24 124.39 127.013 123.643 126.56C122.91 126.107 122.337 125.487 121.923 124.7C121.523 123.9 121.323 122.993 121.323 121.98C121.323 120.98 121.523 120.087 121.923 119.3C122.337 118.513 122.917 117.9 123.663 117.46C124.41 117.007 125.27 116.78 126.243 116.78C127.057 116.78 127.777 116.947 128.403 117.28C129.043 117.613 129.53 118.08 129.863 118.68V112.6H131.543V127H130.023L129.863 125.36C129.65 125.68 129.377 125.987 129.043 126.28C128.71 126.56 128.31 126.793 127.843 126.98C127.377 127.153 126.837 127.24 126.223 127.24ZM126.423 125.78C127.09 125.78 127.677 125.627 128.183 125.32C128.69 125 129.083 124.56 129.363 124C129.657 123.427 129.803 122.76 129.803 122C129.803 121.253 129.657 120.6 129.363 120.04C129.083 119.467 128.69 119.027 128.183 118.72C127.677 118.4 127.09 118.24 126.423 118.24C125.77 118.24 125.183 118.4 124.663 118.72C124.157 119.027 123.757 119.467 123.463 120.04C123.183 120.6 123.043 121.253 123.043 122C123.043 122.76 123.183 123.427 123.463 124C123.757 124.56 124.157 125 124.663 125.32C125.183 125.627 125.77 125.78 126.423 125.78ZM139.695 127V113H143.935C145.575 113 146.928 113.287 147.995 113.86C149.062 114.42 149.848 115.227 150.355 116.28C150.875 117.32 151.135 118.573 151.135 120.04C151.135 121.48 150.875 122.72 150.355 123.76C149.848 124.8 149.062 125.6 147.995 126.16C146.928 126.72 145.575 127 143.935 127H139.695ZM141.375 125.6H143.895C145.255 125.6 146.335 125.38 147.135 124.94C147.948 124.487 148.528 123.847 148.875 123.02C149.222 122.18 149.395 121.187 149.395 120.04C149.395 118.867 149.222 117.86 148.875 117.02C148.528 116.18 147.948 115.533 147.135 115.08C146.335 114.627 145.255 114.4 143.895 114.4H141.375V125.6ZM157.922 127.24C156.975 127.24 156.135 127.027 155.402 126.6C154.669 126.16 154.089 125.547 153.662 124.76C153.249 123.973 153.042 123.053 153.042 122C153.042 120.947 153.249 120.033 153.662 119.26C154.075 118.473 154.649 117.867 155.382 117.44C156.129 117 156.989 116.78 157.962 116.78C158.935 116.78 159.769 117 160.462 117.44C161.155 117.867 161.682 118.433 162.042 119.14C162.415 119.847 162.602 120.62 162.602 121.46C162.602 121.593 162.602 121.733 162.602 121.88C162.602 122.027 162.595 122.193 162.582 122.38H154.302V121.08H160.942C160.915 120.173 160.615 119.467 160.042 118.96C159.482 118.453 158.775 118.2 157.922 118.2C157.349 118.2 156.815 118.327 156.322 118.58C155.829 118.833 155.429 119.207 155.122 119.7C154.829 120.193 154.682 120.807 154.682 121.54V122.1C154.682 122.927 154.835 123.62 155.142 124.18C155.449 124.727 155.849 125.14 156.342 125.42C156.835 125.687 157.362 125.82 157.922 125.82C158.615 125.82 159.189 125.667 159.642 125.36C160.109 125.04 160.449 124.607 160.662 124.06H162.322C162.149 124.66 161.862 125.2 161.462 125.68C161.075 126.16 160.582 126.54 159.982 126.82C159.395 127.1 158.709 127.24 157.922 127.24ZM167.338 127L163.558 117.02H165.318L168.318 125.38L171.338 117.02H173.058L169.278 127H167.338ZM178.879 127.24C177.932 127.24 177.092 127.027 176.359 126.6C175.626 126.16 175.046 125.547 174.619 124.76C174.206 123.973 173.999 123.053 173.999 122C173.999 120.947 174.206 120.033 174.619 119.26C175.032 118.473 175.606 117.867 176.339 117.44C177.086 117 177.946 116.78 178.919 116.78C179.892 116.78 180.726 117 181.419 117.44C182.112 117.867 182.639 118.433 182.999 119.14C183.372 119.847 183.559 120.62 183.559 121.46C183.559 121.593 183.559 121.733 183.559 121.88C183.559 122.027 183.552 122.193 183.539 122.38H175.259V121.08H181.899C181.872 120.173 181.572 119.467 180.999 118.96C180.439 118.453 179.732 118.2 178.879 118.2C178.306 118.2 177.772 118.327 177.279 118.58C176.786 118.833 176.386 119.207 176.079 119.7C175.786 120.193 175.639 120.807 175.639 121.54V122.1C175.639 122.927 175.792 123.62 176.099 124.18C176.406 124.727 176.806 125.14 177.299 125.42C177.792 125.687 178.319 125.82 178.879 125.82C179.572 125.82 180.146 125.667 180.599 125.36C181.066 125.04 181.406 124.607 181.619 124.06H183.279C183.106 124.66 182.819 125.2 182.419 125.68C182.032 126.16 181.539 126.54 180.939 126.82C180.352 127.1 179.666 127.24 178.879 127.24ZM185.806 127V112.6H187.486V127H185.806ZM194.759 127.24C193.826 127.24 192.986 127.027 192.239 126.6C191.493 126.173 190.899 125.567 190.459 124.78C190.033 123.993 189.819 123.073 189.819 122.02C189.819 120.953 190.039 120.027 190.479 119.24C190.919 118.453 191.513 117.847 192.259 117.42C193.019 116.993 193.866 116.78 194.799 116.78C195.746 116.78 196.593 116.993 197.339 117.42C198.086 117.847 198.673 118.453 199.099 119.24C199.526 120.027 199.739 120.953 199.739 122.02C199.739 123.073 199.519 123.993 199.079 124.78C198.653 125.567 198.059 126.173 197.299 126.6C196.553 127.027 195.706 127.24 194.759 127.24ZM194.759 125.8C195.346 125.8 195.886 125.66 196.379 125.38C196.873 125.1 197.266 124.68 197.559 124.12C197.866 123.547 198.019 122.84 198.019 122C198.019 121.16 197.873 120.46 197.579 119.9C197.286 119.34 196.893 118.92 196.399 118.64C195.906 118.36 195.373 118.22 194.799 118.22C194.239 118.22 193.706 118.36 193.199 118.64C192.706 118.92 192.306 119.34 191.999 119.9C191.693 120.46 191.539 121.167 191.539 122.02C191.539 122.847 191.693 123.547 191.999 124.12C192.306 124.68 192.699 125.1 193.179 125.38C193.673 125.66 194.199 125.8 194.759 125.8ZM202.095 131.4V117.02H203.615L203.775 118.66C203.988 118.34 204.262 118.04 204.595 117.76C204.928 117.467 205.328 117.233 205.795 117.06C206.262 116.873 206.802 116.78 207.415 116.78C208.388 116.78 209.242 117.013 209.975 117.48C210.708 117.933 211.275 118.553 211.675 119.34C212.088 120.127 212.295 121.027 212.295 122.04C212.295 123.04 212.088 123.933 211.675 124.72C211.275 125.507 210.702 126.127 209.955 126.58C209.222 127.02 208.368 127.24 207.395 127.24C206.582 127.24 205.862 127.073 205.235 126.74C204.608 126.407 204.122 125.94 203.775 125.34V131.4H202.095ZM207.215 125.78C207.868 125.78 208.448 125.627 208.955 125.32C209.475 125 209.875 124.56 210.155 124C210.448 123.427 210.595 122.76 210.595 122C210.595 121.253 210.448 120.6 210.155 120.04C209.875 119.467 209.475 119.027 208.955 118.72C208.448 118.4 207.868 118.24 207.215 118.24C206.548 118.24 205.955 118.4 205.435 118.72C204.928 119.027 204.528 119.467 204.235 120.04C203.955 120.6 203.815 121.253 203.815 122C203.815 122.76 203.955 123.427 204.235 124C204.528 124.56 204.928 125 205.435 125.32C205.955 125.627 206.548 125.78 207.215 125.78ZM219.094 127.24C218.147 127.24 217.307 127.027 216.574 126.6C215.841 126.16 215.261 125.547 214.834 124.76C214.421 123.973 214.214 123.053 214.214 122C214.214 120.947 214.421 120.033 214.834 119.26C215.247 118.473 215.821 117.867 216.554 117.44C217.301 117 218.161 116.78 219.134 116.78C220.107 116.78 220.941 117 221.634 117.44C222.327 117.867 222.854 118.433 223.214 119.14C223.587 119.847 223.774 120.62 223.774 121.46C223.774 121.593 223.774 121.733 223.774 121.88C223.774 122.027 223.767 122.193 223.754 122.38H215.474V121.08H222.114C222.087 120.173 221.787 119.467 221.214 118.96C220.654 118.453 219.947 118.2 219.094 118.2C218.521 118.2 217.987 118.327 217.494 118.58C217.001 118.833 216.601 119.207 216.294 119.7C216.001 120.193 215.854 120.807 215.854 121.54V122.1C215.854 122.927 216.007 123.62 216.314 124.18C216.621 124.727 217.021 125.14 217.514 125.42C218.007 125.687 218.534 125.82 219.094 125.82C219.787 125.82 220.361 125.667 220.814 125.36C221.281 125.04 221.621 124.607 221.834 124.06H223.494C223.321 124.66 223.034 125.2 222.634 125.68C222.247 126.16 221.754 126.54 221.154 126.82C220.567 127.1 219.881 127.24 219.094 127.24ZM226.021 127V117.02H227.541L227.681 118.94C227.894 118.487 228.174 118.1 228.521 117.78C228.881 117.46 229.301 117.213 229.781 117.04C230.274 116.867 230.834 116.78 231.461 116.78V118.54H230.941C230.501 118.54 230.081 118.6 229.681 118.72C229.294 118.827 228.947 119.007 228.641 119.26C228.347 119.513 228.114 119.86 227.941 120.3C227.781 120.727 227.701 121.267 227.701 121.92V127H226.021Z" fill="white"/>
<path d="M386.989 37.24C386.029 37.24 385.156 37.0467 384.369 36.66C383.596 36.2733 382.976 35.6867 382.509 34.9C382.043 34.1 381.809 33.08 381.809 31.84V23H383.489V31.86C383.489 32.7667 383.636 33.5067 383.929 34.08C384.236 34.6533 384.656 35.0733 385.189 35.34C385.723 35.6067 386.336 35.74 387.029 35.74C387.736 35.74 388.349 35.6067 388.869 35.34C389.389 35.0733 389.796 34.6533 390.089 34.08C390.383 33.5067 390.529 32.7667 390.529 31.86V23H392.209V31.84C392.209 33.08 391.976 34.1 391.509 34.9C391.043 35.6867 390.416 36.2733 389.629 36.66C388.843 37.0467 387.963 37.24 386.989 37.24ZM395.054 37V23H396.734V37H395.054ZM404.782 37.24C403.822 37.24 402.949 37.0467 402.162 36.66C401.389 36.2733 400.769 35.6867 400.302 34.9C399.836 34.1 399.602 33.08 399.602 31.84V23H401.282V31.86C401.282 32.7667 401.429 33.5067 401.722 34.08C402.029 34.6533 402.449 35.0733 402.982 35.34C403.516 35.6067 404.129 35.74 404.822 35.74C405.529 35.74 406.142 35.6067 406.662 35.34C407.182 35.0733 407.589 34.6533 407.882 34.08C408.176 33.5067 408.322 32.7667 408.322 31.86V23H410.002V31.84C410.002 33.08 409.769 34.1 409.302 34.9C408.836 35.6867 408.209 36.2733 407.422 36.66C406.636 37.0467 405.756 37.24 404.782 37.24ZM412.127 37L416.407 29.94L412.127 23H414.027L417.467 28.58L420.747 23H422.627L418.347 30L422.647 37H420.747L417.287 31.36L414.027 37H412.127ZM430.171 37V23H434.411C436.051 23 437.405 23.2867 438.471 23.86C439.538 24.42 440.325 25.2267 440.831 26.28C441.351 27.32 441.611 28.5733 441.611 30.04C441.611 31.48 441.351 32.72 440.831 33.76C440.325 34.8 439.538 35.6 438.471 36.16C437.405 36.72 436.051 37 434.411 37H430.171ZM431.851 35.6H434.371C435.731 35.6 436.811 35.38 437.611 34.94C438.425 34.4867 439.005 33.8467 439.351 33.02C439.698 32.18 439.871 31.1867 439.871 30.04C439.871 28.8667 439.698 27.86 439.351 27.02C439.005 26.18 438.425 25.5333 437.611 25.08C436.811 24.6267 435.731 24.4 434.371 24.4H431.851V35.6ZM448.399 37.24C447.452 37.24 446.612 37.0267 445.879 36.6C445.145 36.16 444.565 35.5467 444.139 34.76C443.725 33.9733 443.519 33.0533 443.519 32C443.519 30.9467 443.725 30.0333 444.139 29.26C444.552 28.4733 445.125 27.8667 445.859 27.44C446.605 27 447.465 26.78 448.439 26.78C449.412 26.78 450.245 27 450.939 27.44C451.632 27.8667 452.159 28.4333 452.519 29.14C452.892 29.8467 453.079 30.62 453.079 31.46C453.079 31.5933 453.079 31.7333 453.079 31.88C453.079 32.0267 453.072 32.1933 453.059 32.38H444.779V31.08H451.419C451.392 30.1733 451.092 29.4667 450.519 28.96C449.959 28.4533 449.252 28.2 448.399 28.2C447.825 28.2 447.292 28.3267 446.799 28.58C446.305 28.8333 445.905 29.2067 445.599 29.7C445.305 30.1933 445.159 30.8067 445.159 31.54V32.1C445.159 32.9267 445.312 33.62 445.619 34.18C445.925 34.7267 446.325 35.14 446.819 35.42C447.312 35.6867 447.839 35.82 448.399 35.82C449.092 35.82 449.665 35.6667 450.119 35.36C450.585 35.04 450.925 34.6067 451.139 34.06H452.799C452.625 34.66 452.339 35.2 451.939 35.68C451.552 36.16 451.059 36.54 450.459 36.82C449.872 37.1 449.185 37.24 448.399 37.24ZM459.125 37.24C458.325 37.24 457.612 37.1067 456.985 36.84C456.359 36.56 455.859 36.1733 455.485 35.68C455.112 35.1733 454.879 34.58 454.785 33.9H456.505C456.585 34.2467 456.732 34.5667 456.945 34.86C457.172 35.1533 457.465 35.3867 457.825 35.56C458.199 35.7333 458.639 35.82 459.145 35.82C459.625 35.82 460.012 35.7533 460.305 35.62C460.612 35.4733 460.839 35.2867 460.985 35.06C461.145 34.82 461.225 34.56 461.225 34.28C461.225 33.88 461.125 33.5733 460.925 33.36C460.739 33.1467 460.459 32.98 460.085 32.86C459.712 32.74 459.265 32.6267 458.745 32.52C458.319 32.44 457.892 32.3333 457.465 32.2C457.052 32.0667 456.679 31.9 456.345 31.7C456.012 31.4867 455.745 31.22 455.545 30.9C455.345 30.58 455.245 30.1933 455.245 29.74C455.245 29.1667 455.392 28.66 455.685 28.22C455.979 27.7667 456.392 27.4133 456.925 27.16C457.472 26.9067 458.119 26.78 458.865 26.78C459.919 26.78 460.779 27.04 461.445 27.56C462.125 28.08 462.519 28.8333 462.625 29.82H460.965C460.912 29.3133 460.699 28.92 460.325 28.64C459.965 28.3467 459.472 28.2 458.845 28.2C458.219 28.2 457.745 28.3267 457.425 28.58C457.105 28.8333 456.945 29.1667 456.945 29.58C456.945 29.8333 457.032 30.06 457.205 30.26C457.392 30.46 457.659 30.6333 458.005 30.78C458.365 30.9133 458.799 31.0267 459.305 31.12C459.945 31.2533 460.539 31.42 461.085 31.62C461.632 31.8067 462.079 32.0933 462.425 32.48C462.772 32.8667 462.945 33.42 462.945 34.14C462.959 34.7533 462.805 35.2933 462.485 35.76C462.165 36.2267 461.719 36.5933 461.145 36.86C460.585 37.1133 459.912 37.24 459.125 37.24ZM465.525 37V27.02H467.205V37H465.525ZM466.365 24.84C466.032 24.84 465.752 24.7333 465.525 24.52C465.312 24.2933 465.205 24.0133 465.205 23.68C465.205 23.3467 465.312 23.08 465.525 22.88C465.752 22.6667 466.032 22.56 466.365 22.56C466.685 22.56 466.958 22.6667 467.185 22.88C467.412 23.08 467.525 23.3467 467.525 23.68C467.525 24.0133 467.412 24.2933 467.185 24.52C466.958 24.7333 466.685 24.84 466.365 24.84ZM474.09 41.64C473.197 41.64 472.397 41.52 471.69 41.28C470.997 41.0533 470.457 40.7 470.07 40.22C469.683 39.74 469.49 39.1467 469.49 38.44C469.49 38.1467 469.55 37.8267 469.67 37.48C469.803 37.1333 470.023 36.7933 470.33 36.46C470.65 36.1267 471.097 35.8267 471.67 35.56L472.81 36.24C472.13 36.5333 471.677 36.8667 471.45 37.24C471.237 37.6267 471.13 37.9733 471.13 38.28C471.13 38.72 471.257 39.0867 471.51 39.38C471.763 39.6733 472.117 39.8933 472.57 40.04C473.023 40.1867 473.53 40.26 474.09 40.26C474.65 40.26 475.137 40.1733 475.55 40C475.963 39.84 476.283 39.6133 476.51 39.32C476.737 39.0267 476.85 38.68 476.85 38.28C476.85 37.84 476.677 37.46 476.33 37.14C475.997 36.8333 475.35 36.6533 474.39 36.6C473.603 36.5467 472.943 36.4733 472.41 36.38C471.877 36.2867 471.437 36.18 471.09 36.06C470.743 35.9267 470.45 35.78 470.21 35.62C469.983 35.46 469.777 35.2933 469.59 35.12V34.66L471.55 32.74L472.97 33.26L470.99 35.06L471.25 34.38C471.397 34.4867 471.537 34.5867 471.67 34.68C471.803 34.76 471.983 34.8333 472.21 34.9C472.437 34.9667 472.75 35.0267 473.15 35.08C473.563 35.1333 474.103 35.1867 474.77 35.24C475.663 35.3067 476.383 35.4667 476.93 35.72C477.49 35.9733 477.89 36.3133 478.13 36.74C478.383 37.1667 478.51 37.66 478.51 38.22C478.51 38.7933 478.35 39.34 478.03 39.86C477.723 40.38 477.243 40.8067 476.59 41.14C475.95 41.4733 475.117 41.64 474.09 41.64ZM474.07 33.86C473.23 33.86 472.517 33.7067 471.93 33.4C471.343 33.08 470.897 32.6533 470.59 32.12C470.283 31.5733 470.13 30.9733 470.13 30.32C470.13 29.6667 470.283 29.0733 470.59 28.54C470.897 28.0067 471.343 27.58 471.93 27.26C472.517 26.94 473.23 26.78 474.07 26.78C474.91 26.78 475.623 26.94 476.21 27.26C476.797 27.58 477.243 28.0067 477.55 28.54C477.857 29.0733 478.01 29.6667 478.01 30.32C478.01 30.9733 477.857 31.5733 477.55 32.12C477.243 32.6533 476.797 33.08 476.21 33.4C475.623 33.7067 474.91 33.86 474.07 33.86ZM474.07 32.48C474.777 32.48 475.337 32.3 475.75 31.94C476.177 31.5667 476.39 31.0267 476.39 30.32C476.39 29.6267 476.177 29.1 475.75 28.74C475.337 28.3667 474.777 28.18 474.07 28.18C473.363 28.18 472.797 28.3667 472.37 28.74C471.943 29.1 471.73 29.6267 471.73 30.32C471.73 31.0267 471.943 31.5667 472.37 31.94C472.797 32.3 473.363 32.48 474.07 32.48ZM475.69 28.44L475.19 27.02H479.31V28.28L475.69 28.44ZM481.204 37V27.02H482.724L482.824 28.78C483.144 28.1667 483.604 27.68 484.204 27.32C484.804 26.96 485.484 26.78 486.244 26.78C487.031 26.78 487.711 26.94 488.284 27.26C488.858 27.5667 489.304 28.04 489.624 28.68C489.944 29.32 490.104 30.1267 490.104 31.1V37H488.424V31.28C488.424 30.2667 488.198 29.5067 487.744 29C487.304 28.48 486.678 28.22 485.864 28.22C485.291 28.22 484.778 28.36 484.324 28.64C483.884 28.9067 483.531 29.3067 483.264 29.84C483.011 30.36 482.884 31 482.884 31.76V37H481.204ZM497.129 37.24C496.182 37.24 495.342 37.0267 494.609 36.6C493.876 36.16 493.296 35.5467 492.869 34.76C492.456 33.9733 492.249 33.0533 492.249 32C492.249 30.9467 492.456 30.0333 492.869 29.26C493.282 28.4733 493.856 27.8667 494.589 27.44C495.336 27 496.196 26.78 497.169 26.78C498.142 26.78 498.976 27 499.669 27.44C500.362 27.8667 500.889 28.4333 501.249 29.14C501.622 29.8467 501.809 30.62 501.809 31.46C501.809 31.5933 501.809 31.7333 501.809 31.88C501.809 32.0267 501.802 32.1933 501.789 32.38H493.509V31.08H500.149C500.122 30.1733 499.822 29.4667 499.249 28.96C498.689 28.4533 497.982 28.2 497.129 28.2C496.556 28.2 496.022 28.3267 495.529 28.58C495.036 28.8333 494.636 29.2067 494.329 29.7C494.036 30.1933 493.889 30.8067 493.889 31.54V32.1C493.889 32.9267 494.042 33.62 494.349 34.18C494.656 34.7267 495.056 35.14 495.549 35.42C496.042 35.6867 496.569 35.82 497.129 35.82C497.822 35.82 498.396 35.6667 498.849 35.36C499.316 35.04 499.656 34.6067 499.869 34.06H501.529C501.356 34.66 501.069 35.2 500.669 35.68C500.282 36.16 499.789 36.54 499.189 36.82C498.602 37.1 497.916 37.24 497.129 37.24ZM504.056 37V27.02H505.576L505.716 28.94C505.929 28.4867 506.209 28.1 506.556 27.78C506.916 27.46 507.336 27.2133 507.816 27.04C508.309 26.8667 508.869 26.78 509.496 26.78V28.54H508.976C508.536 28.54 508.116 28.6 507.716 28.72C507.329 28.8267 506.982 29.0067 506.676 29.26C506.382 29.5133 506.149 29.86 505.976 30.3C505.816 30.7267 505.736 31.2667 505.736 31.92V37H504.056Z" fill="white"/>
<path d="M373.949 127.24C372.643 127.24 371.496 126.94 370.509 126.34C369.523 125.727 368.756 124.88 368.209 123.8C367.663 122.72 367.389 121.46 367.389 120.02C367.389 118.593 367.663 117.333 368.209 116.24C368.769 115.147 369.556 114.293 370.569 113.68C371.596 113.067 372.803 112.76 374.189 112.76C375.763 112.76 377.076 113.14 378.129 113.9C379.183 114.647 379.856 115.693 380.149 117.04H378.209C378.023 116.2 377.583 115.533 376.889 115.04C376.196 114.547 375.296 114.3 374.189 114.3C373.163 114.3 372.263 114.533 371.489 115C370.729 115.453 370.143 116.107 369.729 116.96C369.316 117.813 369.109 118.833 369.109 120.02C369.109 121.207 369.316 122.233 369.729 123.1C370.143 123.953 370.716 124.607 371.449 125.06C372.196 125.513 373.049 125.74 374.009 125.74C375.503 125.74 376.629 125.3 377.389 124.42C378.149 123.54 378.583 122.347 378.689 120.84H374.649V119.52H380.409V127H378.869L378.729 124.7C378.396 125.247 378.009 125.713 377.569 126.1C377.143 126.473 376.636 126.76 376.049 126.96C375.463 127.147 374.763 127.24 373.949 127.24ZM382.985 127V117.02H384.505L384.645 118.94C384.859 118.487 385.139 118.1 385.485 117.78C385.845 117.46 386.265 117.213 386.745 117.04C387.239 116.867 387.799 116.78 388.425 116.78V118.54H387.905C387.465 118.54 387.045 118.6 386.645 118.72C386.259 118.827 385.912 119.007 385.605 119.26C385.312 119.513 385.079 119.86 384.905 120.3C384.745 120.727 384.665 121.267 384.665 121.92V127H382.985ZM393.61 127.24C392.783 127.24 392.096 127.1 391.55 126.82C391.016 126.54 390.616 126.167 390.35 125.7C390.083 125.22 389.95 124.707 389.95 124.16C389.95 123.48 390.123 122.907 390.47 122.44C390.83 121.973 391.33 121.613 391.97 121.36C392.61 121.107 393.37 120.98 394.25 120.98H396.93C396.93 120.367 396.83 119.853 396.63 119.44C396.443 119.027 396.163 118.72 395.79 118.52C395.416 118.307 394.963 118.2 394.43 118.2C393.79 118.2 393.23 118.367 392.75 118.7C392.27 119.02 391.976 119.487 391.87 120.1H390.15C390.23 119.38 390.476 118.78 390.89 118.3C391.303 117.807 391.823 117.433 392.45 117.18C393.076 116.913 393.736 116.78 394.43 116.78C395.35 116.78 396.116 116.953 396.73 117.3C397.356 117.633 397.823 118.107 398.13 118.72C398.45 119.32 398.61 120.027 398.61 120.84V127H397.11L397.01 125.22C396.876 125.5 396.703 125.767 396.49 126.02C396.29 126.26 396.05 126.473 395.77 126.66C395.503 126.833 395.19 126.973 394.83 127.08C394.47 127.187 394.063 127.24 393.61 127.24ZM393.87 125.82C394.35 125.82 394.776 125.727 395.15 125.54C395.536 125.34 395.863 125.073 396.13 124.74C396.396 124.407 396.596 124.033 396.73 123.62C396.863 123.207 396.93 122.773 396.93 122.32V122.28H394.39C393.736 122.28 393.21 122.36 392.81 122.52C392.423 122.68 392.143 122.893 391.97 123.16C391.796 123.427 391.71 123.733 391.71 124.08C391.71 124.427 391.79 124.733 391.95 125C392.11 125.267 392.35 125.473 392.67 125.62C393.003 125.753 393.403 125.82 393.87 125.82ZM401.169 131.4V117.02H402.689L402.849 118.66C403.062 118.34 403.336 118.04 403.669 117.76C404.002 117.467 404.402 117.233 404.869 117.06C405.336 116.873 405.876 116.78 406.489 116.78C407.462 116.78 408.316 117.013 409.049 117.48C409.782 117.933 410.349 118.553 410.749 119.34C411.162 120.127 411.369 121.027 411.369 122.04C411.369 123.04 411.162 123.933 410.749 124.72C410.349 125.507 409.776 126.127 409.029 126.58C408.296 127.02 407.442 127.24 406.469 127.24C405.656 127.24 404.936 127.073 404.309 126.74C403.682 126.407 403.196 125.94 402.849 125.34V131.4H401.169ZM406.289 125.78C406.942 125.78 407.522 125.627 408.029 125.32C408.549 125 408.949 124.56 409.229 124C409.522 123.427 409.669 122.76 409.669 122C409.669 121.253 409.522 120.6 409.229 120.04C408.949 119.467 408.549 119.027 408.029 118.72C407.522 118.4 406.942 118.24 406.289 118.24C405.622 118.24 405.029 118.4 404.509 118.72C404.002 119.027 403.602 119.467 403.309 120.04C403.029 120.6 402.889 121.253 402.889 122C402.889 122.76 403.029 123.427 403.309 124C403.602 124.56 404.002 125 404.509 125.32C405.029 125.627 405.622 125.78 406.289 125.78ZM413.708 127V112.6H415.388V118.72C415.721 118.107 416.188 117.633 416.788 117.3C417.401 116.953 418.075 116.78 418.808 116.78C419.568 116.78 420.235 116.94 420.808 117.26C421.381 117.567 421.821 118.04 422.128 118.68C422.448 119.32 422.608 120.133 422.608 121.12V127H420.948V121.3C420.948 120.273 420.735 119.507 420.308 119C419.881 118.48 419.261 118.22 418.448 118.22C417.875 118.22 417.355 118.36 416.888 118.64C416.421 118.92 416.055 119.32 415.788 119.84C415.521 120.36 415.388 121.007 415.388 121.78V127H413.708ZM425.353 127V117.02H427.033V127H425.353ZM426.193 114.84C425.86 114.84 425.58 114.733 425.353 114.52C425.14 114.293 425.033 114.013 425.033 113.68C425.033 113.347 425.14 113.08 425.353 112.88C425.58 112.667 425.86 112.56 426.193 112.56C426.513 112.56 426.786 112.667 427.013 112.88C427.24 113.08 427.353 113.347 427.353 113.68C427.353 114.013 427.24 114.293 427.013 114.52C426.786 114.733 426.513 114.84 426.193 114.84ZM434.518 127.24C433.571 127.24 432.718 127.02 431.958 126.58C431.211 126.14 430.618 125.533 430.178 124.76C429.751 123.973 429.538 123.06 429.538 122.02C429.538 120.967 429.751 120.053 430.178 119.28C430.618 118.493 431.211 117.88 431.958 117.44C432.718 117 433.571 116.78 434.518 116.78C435.705 116.78 436.698 117.087 437.498 117.7C438.298 118.313 438.805 119.14 439.018 120.18H437.298C437.165 119.553 436.838 119.073 436.318 118.74C435.798 118.393 435.191 118.22 434.498 118.22C433.938 118.22 433.411 118.36 432.918 118.64C432.425 118.92 432.025 119.347 431.718 119.92C431.411 120.48 431.258 121.173 431.258 122C431.258 122.627 431.345 123.18 431.518 123.66C431.705 124.127 431.945 124.527 432.238 124.86C432.545 125.18 432.891 125.42 433.278 125.58C433.678 125.74 434.085 125.82 434.498 125.82C434.965 125.82 435.391 125.747 435.778 125.6C436.165 125.44 436.491 125.213 436.758 124.92C437.025 124.613 437.205 124.253 437.298 123.84H439.018C438.805 124.853 438.298 125.673 437.498 126.3C436.698 126.927 435.705 127.24 434.518 127.24ZM446.777 127V113H451.017C452.657 113 454.01 113.287 455.077 113.86C456.144 114.42 456.93 115.227 457.437 116.28C457.957 117.32 458.217 118.573 458.217 120.04C458.217 121.48 457.957 122.72 457.437 123.76C456.93 124.8 456.144 125.6 455.077 126.16C454.01 126.72 452.657 127 451.017 127H446.777ZM448.457 125.6H450.977C452.337 125.6 453.417 125.38 454.217 124.94C455.03 124.487 455.61 123.847 455.957 123.02C456.304 122.18 456.477 121.187 456.477 120.04C456.477 118.867 456.304 117.86 455.957 117.02C455.61 116.18 455.03 115.533 454.217 115.08C453.417 114.627 452.337 114.4 450.977 114.4H448.457V125.6ZM465.004 127.24C464.057 127.24 463.217 127.027 462.484 126.6C461.751 126.16 461.171 125.547 460.744 124.76C460.331 123.973 460.124 123.053 460.124 122C460.124 120.947 460.331 120.033 460.744 119.26C461.157 118.473 461.731 117.867 462.464 117.44C463.211 117 464.071 116.78 465.044 116.78C466.017 116.78 466.851 117 467.544 117.44C468.237 117.867 468.764 118.433 469.124 119.14C469.497 119.847 469.684 120.62 469.684 121.46C469.684 121.593 469.684 121.733 469.684 121.88C469.684 122.027 469.677 122.193 469.664 122.38H461.384V121.08H468.024C467.997 120.173 467.697 119.467 467.124 118.96C466.564 118.453 465.857 118.2 465.004 118.2C464.431 118.2 463.897 118.327 463.404 118.58C462.911 118.833 462.511 119.207 462.204 119.7C461.911 120.193 461.764 120.807 461.764 121.54V122.1C461.764 122.927 461.917 123.62 462.224 124.18C462.531 124.727 462.931 125.14 463.424 125.42C463.917 125.687 464.444 125.82 465.004 125.82C465.697 125.82 466.271 125.667 466.724 125.36C467.191 125.04 467.531 124.607 467.744 124.06H469.404C469.231 124.66 468.944 125.2 468.544 125.68C468.157 126.16 467.664 126.54 467.064 126.82C466.477 127.1 465.791 127.24 465.004 127.24ZM475.731 127.24C474.931 127.24 474.217 127.107 473.591 126.84C472.964 126.56 472.464 126.173 472.091 125.68C471.717 125.173 471.484 124.58 471.391 123.9H473.111C473.191 124.247 473.337 124.567 473.551 124.86C473.777 125.153 474.071 125.387 474.431 125.56C474.804 125.733 475.244 125.82 475.751 125.82C476.231 125.82 476.617 125.753 476.911 125.62C477.217 125.473 477.444 125.287 477.591 125.06C477.751 124.82 477.831 124.56 477.831 124.28C477.831 123.88 477.731 123.573 477.531 123.36C477.344 123.147 477.064 122.98 476.691 122.86C476.317 122.74 475.871 122.627 475.351 122.52C474.924 122.44 474.497 122.333 474.071 122.2C473.657 122.067 473.284 121.9 472.951 121.7C472.617 121.487 472.351 121.22 472.151 120.9C471.951 120.58 471.851 120.193 471.851 119.74C471.851 119.167 471.997 118.66 472.291 118.22C472.584 117.767 472.997 117.413 473.531 117.16C474.077 116.907 474.724 116.78 475.471 116.78C476.524 116.78 477.384 117.04 478.051 117.56C478.731 118.08 479.124 118.833 479.231 119.82H477.571C477.517 119.313 477.304 118.92 476.931 118.64C476.571 118.347 476.077 118.2 475.451 118.2C474.824 118.2 474.351 118.327 474.031 118.58C473.711 118.833 473.551 119.167 473.551 119.58C473.551 119.833 473.637 120.06 473.811 120.26C473.997 120.46 474.264 120.633 474.611 120.78C474.971 120.913 475.404 121.027 475.911 121.12C476.551 121.253 477.144 121.42 477.691 121.62C478.237 121.807 478.684 122.093 479.031 122.48C479.377 122.867 479.551 123.42 479.551 124.14C479.564 124.753 479.411 125.293 479.091 125.76C478.771 126.227 478.324 126.593 477.751 126.86C477.191 127.113 476.517 127.24 475.731 127.24ZM482.13 127V117.02H483.81V127H482.13ZM482.97 114.84C482.637 114.84 482.357 114.733 482.13 114.52C481.917 114.293 481.81 114.013 481.81 113.68C481.81 113.347 481.917 113.08 482.13 112.88C482.357 112.667 482.637 112.56 482.97 112.56C483.29 112.56 483.564 112.667 483.79 112.88C484.017 113.08 484.13 113.347 484.13 113.68C484.13 114.013 484.017 114.293 483.79 114.52C483.564 114.733 483.29 114.84 482.97 114.84ZM490.695 131.64C489.802 131.64 489.002 131.52 488.295 131.28C487.602 131.053 487.062 130.7 486.675 130.22C486.289 129.74 486.095 129.147 486.095 128.44C486.095 128.147 486.155 127.827 486.275 127.48C486.409 127.133 486.629 126.793 486.935 126.46C487.255 126.127 487.702 125.827 488.275 125.56L489.415 126.24C488.735 126.533 488.282 126.867 488.055 127.24C487.842 127.627 487.735 127.973 487.735 128.28C487.735 128.72 487.862 129.087 488.115 129.38C488.369 129.673 488.722 129.893 489.175 130.04C489.629 130.187 490.135 130.26 490.695 130.26C491.255 130.26 491.742 130.173 492.155 130C492.569 129.84 492.889 129.613 493.115 129.32C493.342 129.027 493.455 128.68 493.455 128.28C493.455 127.84 493.282 127.46 492.935 127.14C492.602 126.833 491.955 126.653 490.995 126.6C490.209 126.547 489.549 126.473 489.015 126.38C488.482 126.287 488.042 126.18 487.695 126.06C487.349 125.927 487.055 125.78 486.815 125.62C486.589 125.46 486.382 125.293 486.195 125.12V124.66L488.155 122.74L489.575 123.26L487.595 125.06L487.855 124.38C488.002 124.487 488.142 124.587 488.275 124.68C488.409 124.76 488.589 124.833 488.815 124.9C489.042 124.967 489.355 125.027 489.755 125.08C490.169 125.133 490.709 125.187 491.375 125.24C492.269 125.307 492.989 125.467 493.535 125.72C494.095 125.973 494.495 126.313 494.735 126.74C494.989 127.167 495.115 127.66 495.115 128.22C495.115 128.793 494.955 129.34 494.635 129.86C494.329 130.38 493.849 130.807 493.195 131.14C492.555 131.473 491.722 131.64 490.695 131.64ZM490.675 123.86C489.835 123.86 489.122 123.707 488.535 123.4C487.949 123.08 487.502 122.653 487.195 122.12C486.889 121.573 486.735 120.973 486.735 120.32C486.735 119.667 486.889 119.073 487.195 118.54C487.502 118.007 487.949 117.58 488.535 117.26C489.122 116.94 489.835 116.78 490.675 116.78C491.515 116.78 492.229 116.94 492.815 117.26C493.402 117.58 493.849 118.007 494.155 118.54C494.462 119.073 494.615 119.667 494.615 120.32C494.615 120.973 494.462 121.573 494.155 122.12C493.849 122.653 493.402 123.08 492.815 123.4C492.229 123.707 491.515 123.86 490.675 123.86ZM490.675 122.48C491.382 122.48 491.942 122.3 492.355 121.94C492.782 121.567 492.995 121.027 492.995 120.32C492.995 119.627 492.782 119.1 492.355 118.74C491.942 118.367 491.382 118.18 490.675 118.18C489.969 118.18 489.402 118.367 488.975 118.74C488.549 119.1 488.335 119.627 488.335 120.32C488.335 121.027 488.549 121.567 488.975 121.94C489.402 122.3 489.969 122.48 490.675 122.48ZM492.295 118.44L491.795 117.02H495.915V118.28L492.295 118.44ZM497.81 127V117.02H499.33L499.43 118.78C499.75 118.167 500.21 117.68 500.81 117.32C501.41 116.96 502.09 116.78 502.85 116.78C503.636 116.78 504.316 116.94 504.89 117.26C505.463 117.567 505.91 118.04 506.23 118.68C506.55 119.32 506.71 120.127 506.71 121.1V127H505.03V121.28C505.03 120.267 504.803 119.507 504.35 119C503.91 118.48 503.283 118.22 502.47 118.22C501.896 118.22 501.383 118.36 500.93 118.64C500.49 118.907 500.136 119.307 499.87 119.84C499.616 120.36 499.49 121 499.49 121.76V127H497.81ZM513.735 127.24C512.788 127.24 511.948 127.027 511.215 126.6C510.481 126.16 509.901 125.547 509.475 124.76C509.061 123.973 508.855 123.053 508.855 122C508.855 120.947 509.061 120.033 509.475 119.26C509.888 118.473 510.461 117.867 511.195 117.44C511.941 117 512.801 116.78 513.775 116.78C514.748 116.78 515.581 117 516.275 117.44C516.968 117.867 517.495 118.433 517.855 119.14C518.228 119.847 518.415 120.62 518.415 121.46C518.415 121.593 518.415 121.733 518.415 121.88C518.415 122.027 518.408 122.193 518.395 122.38H510.115V121.08H516.755C516.728 120.173 516.428 119.467 515.855 118.96C515.295 118.453 514.588 118.2 513.735 118.2C513.161 118.2 512.628 118.327 512.135 118.58C511.641 118.833 511.241 119.207 510.935 119.7C510.641 120.193 510.495 120.807 510.495 121.54V122.1C510.495 122.927 510.648 123.62 510.955 124.18C511.261 124.727 511.661 125.14 512.155 125.42C512.648 125.687 513.175 125.82 513.735 125.82C514.428 125.82 515.001 125.667 515.455 125.36C515.921 125.04 516.261 124.607 516.475 124.06H518.135C517.961 124.66 517.675 125.2 517.275 125.68C516.888 126.16 516.395 126.54 515.795 126.82C515.208 127.1 514.521 127.24 513.735 127.24ZM520.661 127V117.02H522.181L522.321 118.94C522.535 118.487 522.815 118.1 523.161 117.78C523.521 117.46 523.941 117.213 524.421 117.04C524.915 116.867 525.475 116.78 526.101 116.78V118.54H525.581C525.141 118.54 524.721 118.6 524.321 118.72C523.935 118.827 523.588 119.007 523.281 119.26C522.988 119.513 522.755 119.86 522.581 120.3C522.421 120.727 522.341 121.267 522.341 121.92V127H520.661Z" fill="white"/>
</svg>
