<svg width="30" height="30" viewBox="0 0 30 30" fill="none" xmlns="http://www.w3.org/2000/svg">
<path d="M17.0304 18.9048C16.4358 19.2553 15.1369 19.362 12.6667 16.8998C10.1965 14.4377 10.3015 13.1421 10.6521 12.5491C11.5471 12.4587 12.4018 11.8625 13.1982 11.0693C13.7847 10.4828 13.3097 9.05953 12.1336 7.88825C10.9591 6.71859 9.53254 6.24361 8.94286 6.82845C5.16083 10.5992 7.05427 15.546 10.539 19.0195C14.0707 22.5414 18.8947 24.4704 22.7688 20.6092C23.3569 20.0243 22.8819 18.5994 21.7058 17.4298C20.5313 16.2585 19.1031 15.7835 18.5151 16.3699C17.7202 17.1616 17.1208 18.013 17.0304 18.9048Z" fill="white"/>
<path fill-rule="evenodd" clip-rule="evenodd" d="M14.9416 2.41983C12.6988 2.41962 10.499 3.03602 8.58285 4.20166C6.66669 5.36729 5.10786 7.03729 4.07677 9.02908C3.04569 11.0209 2.58204 13.2578 2.7365 15.4953C2.89097 17.7329 3.6576 19.8849 4.9526 21.7161C5.07295 21.8857 5.14761 22.0835 5.1694 22.2903C5.19119 22.4971 5.15937 22.7061 5.077 22.8971L3.34189 26.9085L8.42606 25.4335C8.72454 25.3467 9.04498 25.3779 9.32108 25.5207C10.9665 26.371 12.7835 26.8365 14.635 26.8822C16.4865 26.9278 18.3243 26.5525 20.0096 25.7845C21.695 25.0164 23.1839 23.8757 24.3642 22.4484C25.5444 21.0211 26.3852 19.3444 26.8231 17.5448C27.2609 15.7452 27.2844 13.8697 26.8918 12.0597C26.4992 10.2497 25.7007 8.55246 24.5566 7.096C23.4125 5.63955 21.9526 4.4619 20.287 3.65186C18.6215 2.84183 16.7937 2.42056 14.9416 2.41983ZM0.28525 14.6529C0.286012 11.4766 1.31857 8.38659 3.22746 5.84798C5.13636 3.30936 7.81828 1.45956 10.8695 0.577072C13.9206 -0.30542 17.1759 -0.172841 20.1452 0.954849C23.1145 2.08254 25.6371 4.14431 27.3333 6.82974C29.0294 9.51518 29.8073 12.6789 29.5497 15.8447C29.2922 19.0105 28.0132 22.0069 25.9053 24.3829C23.7975 26.7589 20.9748 28.3858 17.8623 29.0188C14.7497 29.6517 11.5158 29.2564 8.64739 27.8924L1.54862 29.9522C1.32789 30.0161 1.09355 30.0159 0.87292 29.9517C0.652294 29.8874 0.454483 29.7618 0.302567 29.5894C0.150651 29.417 0.0508934 29.2049 0.0149311 28.978C-0.0210312 28.751 0.00828517 28.5185 0.0994603 28.3076L2.59065 22.5433C1.08174 20.1885 0.281502 17.4496 0.28525 14.6529Z" fill="white"/>
</svg>
